{
DisplayStrings = (
n/quoteright
);
copyright = "Copyright \U00A9 2011 by Eric A Meyer. All rights reserved.";
date = "2011-12-09 02:32:38 +0000";
designer = "Eric A Meyer";
designerURL = "http://eric.andmeyer.com/";
familyName = "Green Mud JJ";
fontMaster = (
{
alignmentZones = (
"{700, 16}",
"{600, 16}",
"{400, 16}",
"{0, -15}",
"{-300, -16}"
);
ascender = 700;
capHeight = 600;
descender = "-300";
horizontalStems = (
33
);
id = "B2224B7D-3358-49DE-B033-78E3556D2134";
verticalStems = (
33
);
xHeight = 400;
}
);
glyphs = (
{
glyphname = A;
layers = (
{
layerId = "B2224B7D-3358-49DE-B033-78E3556D2134";
name = Regular;
paths = (
{
closed = 1;
nodes = (
"283 -84 LINE",
"278 1 OFFCURVE",
"267 99 OFFCURVE",
"255 198 CURVE",
"263 197 LINE",
"263 230 LINE",
"260 230 OFFCURVE",
"256 231 OFFCURVE",
"251 231 CURVE",
"233 377 LINE SMOOTH",
"226 446 OFFCURVE",
"214 544 OFFCURVE",
"203 583 CURVE",
"200 592 OFFCURVE",
"192 616 OFFCURVE",
"171 616 CURVE",
"138 618 OFFCURVE",
"115 522 OFFCURVE",
"103 467 CURVE SMOOTH",
"85 386 OFFCURVE",
"67 284 OFFCURVE",
"51 193 CURVE SMOOTH",
"35 104 OFFCURVE",
"22 28 OFFCURVE",
"13 0 CURVE",
"44 -10 LINE",
"54 19 OFFCURVE",
"67 97 OFFCURVE",
"84 188 CURVE SMOOTH",
"88 212 LINE",
"121 213 OFFCURVE",
"180 206 OFFCURVE",
"222 201 CURVE",
"234 101 OFFCURVE",
"245 0 OFFCURVE",
"250 -86 CURVE"
);
},
{
closed = 1;
nodes = (
"105 312 OFFCURVE",
"119 384 OFFCURVE",
"132 445 CURVE SMOOTH",
"141 487 OFFCURVE",
"162 574 OFFCURVE",
"170 576 CURVE SMOOTH",
"179 578 OFFCURVE",
"194 423 OFFCURVE",
"201 373 CURVE SMOOTH",
"218 235 LINE",
"179 239 OFFCURVE",
"130 245 OFFCURVE",
"94 244 CURVE"
);
}
);
width = 315;
}
);
unicode = 0041;
},
{
glyphname = B;
layers = (
{
layerId = "B2224B7D-3358-49DE-B033-78E3556D2134";
name = Regular;
paths = (
{
closed = 1;
nodes = (
"73 622 LINE",
"83 523 OFFCURVE",
"77 422 OFFCURVE",
"71 324 CURVE SMOOTH",
"65.6357 226.548 OFFCURVE",
"58.6728 129.096 OFFCURVE",
"67.9773 30.9298 CURVE",
"58.7666 36.6899 OFFCURVE",
"50.9512 44.2902 OFFCURVE",
"45 54 CURVE",
"18 37 LINE",
"40 4 OFFCURVE",
"79 -15 OFFCURVE",
"130 -15 CURVE SMOOTH",
"170 -15 OFFCURVE",
"227 -1 OFFCURVE",
"281 28 CURVE",
"357 73 OFFCURVE",
"406 148 OFFCURVE",
"379 209 CURVE SMOOTH",
"350 273 OFFCURVE",
"207 286 OFFCURVE",
"190 321 CURVE SMOOTH",
"179 344 OFFCURVE",
"199 386 OFFCURVE",
"217 426 CURVE SMOOTH",
"242 478 OFFCURVE",
"267 531 OFFCURVE",
"241 568 CURVE SMOOTH",
"221.113 595.118 OFFCURVE",
"178.347 606.711 OFFCURVE",
"106.792 602.041 CURVE",
"106.276 609.703 OFFCURVE",
"105.681 617.357 OFFCURVE",
"105 625 CURVE"
);
},
{
closed = 1;
nodes = (
"219.214 29.067 OFFCURVE",
"152.573 9.38857 OFFCURVE",
"102.32 18.3317 CURVE",
"90.9165 119.455 OFFCURVE",
"97.3946 222.037 OFFCURVE",
"103 322 CURVE SMOOTH",
"107.109 403.368 OFFCURVE",
"111.894 487.437 OFFCURVE",
"108.471 570.878 CURVE",
"180.201 575.498 OFFCURVE",
"205.894 562.749 OFFCURVE",
"215 550 CURVE SMOOTH",
"231 528 OFFCURVE",
"209 483 OFFCURVE",
"189 439 CURVE SMOOTH",
"166 390 OFFCURVE",
"145 344 OFFCURVE",
"161 307 CURVE",
"190 251 OFFCURVE",
"324 255 OFFCURVE",
"350 197 CURVE SMOOTH",
"370 148 OFFCURVE",
"326 91 OFFCURVE",
"265 56 CURVE SMOOTH"
);
}
);
width = 424;
}
);
unicode = 0042;
},
{
glyphname = C;
layers = (
{
layerId = "B2224B7D-3358-49DE-B033-78E3556D2134";
name = Regular;
paths = (
{
closed = 1;
nodes = (
"205 -22 OFFCURVE",
"123 -34 OFFCURVE",
"71 37 CURVE SMOOTH",
"17 105 OFFCURVE",
"10 223 OFFCURVE",
"19 320 CURVE SMOOTH",
"27 412 OFFCURVE",
"59 528 OFFCURVE",
"112 584 CURVE SMOOTH",
"147 620 OFFCURVE",
"186 626 OFFCURVE",
"223 600 CURVE",
"204 573 LINE",
"190 583 OFFCURVE",
"167 593 OFFCURVE",
"136 561 CURVE SMOOTH",
"96 519 OFFCURVE",
"63 423 OFFCURVE",
"53 317 CURVE SMOOTH",
"42 204 OFFCURVE",
"58 107 OFFCURVE",
"97 57 CURVE SMOOTH",
"134 9 OFFCURVE",
"190 6 OFFCURVE",
"263 46 CURVE",
"280 17 LINE"
);
}
);
width = 302;
}
);
unicode = 0043;
},
{
glyphname = D;
layers = (
{
layerId = "B2224B7D-3358-49DE-B033-78E3556D2134";
name = Regular;
paths = (
{
closed = 1;
nodes = (
"21 580 LINE",
"23.2693 580.354 OFFCURVE",
"25.5201 580.676 OFFCURVE",
"27.7527 580.967 CURVE",
"14.0051 358.704 OFFCURVE",
"28.8737 141.747 OFFCURVE",
"34.8292 18.5591 CURVE",
"30.9377 17.6307 OFFCURVE",
"26.9949 16.7767 OFFCURVE",
"23 15.9999 CURVE",
"29 -15 LINE",
"86 -6 OFFCURVE",
"127 13.9999 OFFCURVE",
"163 43.9999 CURVE SMOOTH",
"272 134 OFFCURVE",
"301 292 OFFCURVE",
"282 405 CURVE SMOOTH",
"270 473 OFFCURVE",
"241 528 OFFCURVE",
"198 565 CURVE SMOOTH",
"151 607 OFFCURVE",
"88 623 OFFCURVE",
"16 612 CURVE"
);
},
{
closed = 1;
nodes = (
"61.1387 160.467 OFFCURVE",
"45.1122 363.496 OFFCURVE",
"60.0817 583.041 CURVE",
"175.103 582.376 OFFCURVE",
"233.748 491.096 OFFCURVE",
"250 399 CURVE SMOOTH",
"275.572 255.617 OFFCURVE",
"215.234 83.8755 OFFCURVE",
"67.4658 28.5034 CURVE"
);
}
);
width = 321;
}
);
unicode = 0044;
},
{
glyphname = E;
layers = (
{
layerId = "B2224B7D-3358-49DE-B033-78E3556D2134";
name = Regular;
paths = (
{
closed = 1;
nodes = (
"190 300 LINE",
"156.837 300 OFFCURVE",
"123.234 297.36 OFFCURVE",
"90.3579 294.124 CURVE",
"90.8743 384.629 OFFCURVE",
"89.6153 475.923 OFFCURVE",
"82.5237 565.031 CURVE",
"143.61 565.122 OFFCURVE",
"201.741 576.751 OFFCURVE",
"270 567 CURVE",
"274 600 LINE",
"186 612 OFFCURVE",
"113 588 OFFCURVE",
"26 602 CURVE",
"20 570 LINE",
"30.2339 568.215 OFFCURVE",
"40.2837 566.997 OFFCURVE",
"50.2017 566.213 CURVE",
"57.6649 475.503 OFFCURVE",
"58.9123 382.828 OFFCURVE",
"58.3384 290.824 CURVE",
"52.5206 290.21 OFFCURVE",
"46.7388 289.598 OFFCURVE",
"41 289 CURVE",
"44 256 LINE",
"48.6587 256.595 OFFCURVE",
"53.3473 257.179 OFFCURVE",
"58.061 257.751 CURVE",
"57.7821 230.726 OFFCURVE",
"57.391 203.786 OFFCURVE",
"57 177 CURVE SMOOTH",
"56.0307 125.625 OFFCURVE",
"55.0614 73.3108 OFFCURVE",
"55.0028 21.8784 CURVE",
"42.5175 20.7172 OFFCURVE",
"29.5969 20 OFFCURVE",
"16 20 CURVE",
"16 -12 LINE",
"109 -12 OFFCURVE",
"179 21 OFFCURVE",
"277 0 CURVE",
"284 32 LINE",
"202.82 48.8211 OFFCURVE",
"147.848 34.6194 OFFCURVE",
"87.0091 25.7749 CURVE",
"87.1104 75.9484 OFFCURVE",
"88.0551 126.867 OFFCURVE",
"89 176 CURVE SMOOTH",
"89.4097 204.269 OFFCURVE",
"89.8193 232.747 OFFCURVE",
"90.1 261.341 CURVE",
"123.027 264.696 OFFCURVE",
"156.744 267 OFFCURVE",
"190 267 CURVE"
);
}
);
width = 318;
}
);
unicode = 0045;
},
{
glyphname = F;
layers = (
{
layerId = "B2224B7D-3358-49DE-B033-78E3556D2134";
name = Regular;
paths = (
{
closed = 1;
nodes = (
"163 316 LINE",
"135.055 314.356 OFFCURVE",
"92.2492 314.739 OFFCURVE",
"61.787 313.262 CURVE",
"59.8495 396.779 OFFCURVE",
"57.4272 486.915 OFFCURVE",
"65.4297 570.244 CURVE",
"133.784 570.995 OFFCURVE",
"193.301 573.687 OFFCURVE",
"303 581 CURVE",
"303 612 LINE",
"166 602 OFFCURVE",
"108 600 OFFCURVE",
"16 600 CURVE",
"16 570 LINE",
"22.566 570 OFFCURVE",
"28.9625 570.01 OFFCURVE",
"35.2282 570.032 CURVE",
"27.178 483.232 OFFCURVE",
"30.0595 389.351 OFFCURVE",
"32 303 CURVE SMOOTH",
"36 203 OFFCURVE",
"39 99 OFFCURVE",
"25 0 CURVE",
"55 -4 LINE",
"67.9487 89.4156 OFFCURVE",
"66.3546 187.108 OFFCURVE",
"62.8773 281.166 CURVE",
"94.9866 282.744 OFFCURVE",
"148.109 284.196 OFFCURVE",
"165 285 CURVE"
);
}
);
width = 270;
}
);
unicode = 0046;
},
{
glyphname = G;
layers = (
{
layerId = "B2224B7D-3358-49DE-B033-78E3556D2134";
name = Regular;
paths = (
{
closed = 1;
nodes = (
"80 -15 OFFCURVE",
"43 29 OFFCURVE",
"27 121 CURVE SMOOTH",
"18 174 OFFCURVE",
"12 283 OFFCURVE",
"19 385 CURVE SMOOTH",
"23 470 OFFCURVE",
"41 587 OFFCURVE",
"96 612 CURVE SMOOTH",
"115 619 OFFCURVE",
"135 617 OFFCURVE",
"157 603 CURVE SMOOTH",
"177 591 OFFCURVE",
"198 569 OFFCURVE",
"221 537 CURVE",
"196 518 LINE",
"159 568 OFFCURVE",
"128 590 OFFCURVE",
"109 582 CURVE SMOOTH",
"80 570 OFFCURVE",
"58 495 OFFCURVE",
"51 383 CURVE SMOOTH",
"44 284 OFFCURVE",
"50 177 OFFCURVE",
"59 126 CURVE SMOOTH",
"66 81 OFFCURVE",
"83 26 OFFCURVE",
"123 18 CURVE SMOOTH",
"148 13 OFFCURVE",
"174 28 OFFCURVE",
"193 42 CURVE SMOOTH",
"237 75 OFFCURVE",
"312 175 OFFCURVE",
"283 214 CURVE SMOOTH",
"273 227 OFFCURVE",
"226 227 OFFCURVE",
"169 216 CURVE",
"160 247 LINE",
"225 259 OFFCURVE",
"281 267 OFFCURVE",
"308 234 CURVE SMOOTH",
"351 175 OFFCURVE",
"274 62 OFFCURVE",
"212 16 CURVE SMOOTH",
"184 -4 OFFCURVE",
"157 -15 OFFCURVE",
"133 -15 CURVE SMOOTH"
);
}
);
width = 353;
}
);
unicode = 0047;
},
{
glyphname = H;
layers = (
{
layerId = "B2224B7D-3358-49DE-B033-78E3556D2134";
name = Regular;
paths = (
{
closed = 1;
nodes = (
"318 285 LINE",
"301.713 286.481 OFFCURVE",
"286.522 288.235 OFFCURVE",
"272.123 290.163 CURVE",
"271.958 400.558 OFFCURVE",
"267.438 514.416 OFFCURVE",
"254 604 CURVE",
"221 600 LINE",
"233.703 513.033 OFFCURVE",
"238.051 402.672 OFFCURVE",
"238.36 295.159 CURVE",
"226.549 297.059 OFFCURVE",
"215.167 299.029 OFFCURVE",
"204 301 CURVE SMOOTH",
"156.603 309.531 OFFCURVE",
"113.697 317.164 OFFCURVE",
"53.1384 317.936 CURVE",
"54.4083 414.543 OFFCURVE",
"54.0018 512.537 OFFCURVE",
"49 609 CURVE",
"16 607 LINE",
"22 473 OFFCURVE",
"20 336 OFFCURVE",
"18 203 CURVE SMOOTH",
"17 136 OFFCURVE",
"16 67.9999 OFFCURVE",
"16 0 CURVE",
"49 0 LINE",
"49 67.9999 OFFCURVE",
"50 136 OFFCURVE",
"51 203 CURVE SMOOTH",
"51.6118 230.126 OFFCURVE",
"52.1821 257.46 OFFCURVE",
"52.6429 284.934 CURVE",
"109.741 284.155 OFFCURVE",
"152.524 276.527 OFFCURVE",
"198 268 CURVE SMOOTH",
"211.06 265.761 OFFCURVE",
"224.399 263.522 OFFCURVE",
"238.328 261.335 CURVE",
"237.863 160.951 OFFCURVE",
"234.22 65.5391 OFFCURVE",
"231 -3 CURVE",
"264 -5 LINE",
"267.61 63.1452 OFFCURVE",
"271.424 157.156 OFFCURVE",
"272.041 256.352 CURVE",
"285.607 254.48 OFFCURVE",
"299.85 252.683 OFFCURVE",
"315 251 CURVE"
);
}
);
width = 340;
}
);
unicode = 0048;
},
{
glyphname = I;
layers = (
{
layerId = "B2224B7D-3358-49DE-B033-78E3556D2134";
name = Regular;
paths = (
{
closed = 1;
nodes = (
"265 603 LINE",
"195 599 OFFCURVE",
"134 589 OFFCURVE",
"28 600 CURVE",
"25 568 LINE",
"60 565 OFFCURVE",
"89 563 OFFCURVE",
"116 563 CURVE SMOOTH",
"122.345 563 OFFCURVE",
"128.835 563.097 OFFCURVE",
"135.412 563.27 CURVE",
"113.491 428.904 OFFCURVE",
"118.293 301.071 OFFCURVE",
"124 166 CURVE SMOOTH",
"126.331 120.165 OFFCURVE",
"128.661 73.7263 OFFCURVE",
"129.585 26.6842 CURVE",
"91.6599 22.7437 OFFCURVE",
"55.0159 17.9999 OFFCURVE",
"16 17.9999 CURVE",
"16 -13 LINE",
"61.6009 -13 OFFCURVE",
"95.9018 -8 OFFCURVE",
"129.976 -5 CURVE",
"129.992 -8 OFFCURVE",
"130 -11 OFFCURVE",
"130 -14 CURVE",
"161 -14 LINE",
"161 -10 OFFCURVE",
"160.986 -6 OFFCURVE",
"160.959 -1 CURVE",
"185.236 0.69339 OFFCURVE",
"211.012 1.74086 OFFCURVE",
"242 0 CURVE",
"244 30.9999 LINE",
"214.374 32.7427 OFFCURVE",
"186.934 31.6912 OFFCURVE",
"160.538 29.5817 CURVE",
"159.584 76.2686 OFFCURVE",
"157.292 121.926 OFFCURVE",
"155 167 CURVE SMOOTH",
"150.161 302.483 OFFCURVE",
"144.386 431.411 OFFCURVE",
"168.489 564.658 CURVE",
"203.571 566.586 OFFCURVE",
"238.466 569.673 OFFCURVE",
"265 571 CURVE"
);
}
);
width = 298;
}
);
unicode = 0049;
},
{
glyphname = J;
layers = (
{
layerId = "B2224B7D-3358-49DE-B033-78E3556D2134";
name = Regular;
paths = (
{
closed = 1;
nodes = (
"326 600 LINE",
"216 587 OFFCURVE",
"139 604 OFFCURVE",
"45 604 CURVE",
"45 572 LINE",
"91 572 OFFCURVE",
"131 569 OFFCURVE",
"169 566 CURVE",
"171 526 OFFCURVE",
"175 487 OFFCURVE",
"179 450 CURVE SMOOTH",
"192 325 OFFCURVE",
"204 207 OFFCURVE",
"157 77 CURVE SMOOTH",
"142 33 OFFCURVE",
"127 17 OFFCURVE",
"118 17 CURVE SMOOTH",
"118 17 OFFCURVE",
"117 17 OFFCURVE",
"117 17 CURVE",
"108 19 OFFCURVE",
"91 37 OFFCURVE",
"74 80 CURVE",
"61 117 OFFCURVE",
"52 160 OFFCURVE",
"52 191 CURVE",
"20 191 LINE",
"20 157 OFFCURVE",
"29 108 OFFCURVE",
"44 69 CURVE SMOOTH",
"62 21 OFFCURVE",
"89 -15 OFFCURVE",
"118 -15 CURVE SMOOTH",
"151 -15 OFFCURVE",
"174 24 OFFCURVE",
"189 67 CURVE SMOOTH",
"236 203 OFFCURVE",
"224 324 OFFCURVE",
"211 453 CURVE SMOOTH",
"208 489 OFFCURVE",
"204 526 OFFCURVE",
"201 564 CURVE",
"215 563 OFFCURVE",
"230 563 OFFCURVE",
"244 563 CURVE SMOOTH",
"271 563 OFFCURVE",
"298 564 OFFCURVE",
"331 568 CURVE"
);
}
);
width = 359;
}
);
unicode = 004A;
},
{
glyphname = K;
layers = (
{
layerId = "B2224B7D-3358-49DE-B033-78E3556D2134";
name = Regular;
paths = (
{
closed = 1;
nodes = (
"253 600 LINE",
"183 473 OFFCURVE",
"131 394 OFFCURVE",
"96 342 CURVE SMOOTH",
"91 335 OFFCURVE",
"86 328 OFFCURVE",
"82 321 CURVE",
"81 414 OFFCURVE",
"83 510 OFFCURVE",
"88 605 CURVE",
"54 605 LINE",
"47 492 OFFCURVE",
"47 375 OFFCURVE",
"49 265 CURVE",
"45 253 OFFCURVE",
"43 242 OFFCURVE",
"45 232 CURVE SMOOTH",
"46 227 OFFCURVE",
"47 223 OFFCURVE",
"50 219 CURVE",
"52 135 OFFCURVE",
"55 56 OFFCURVE",
"58 -15 CURVE",
"92 -13 LINE",
"89 48 OFFCURVE",
"86 115 OFFCURVE",
"84 187 CURVE",
"91 182 OFFCURVE",
"100 177 OFFCURVE",
"109 171 CURVE SMOOTH",
"153 143 OFFCURVE",
"227 94 OFFCURVE",
"332 -5 CURVE",
"355 19 LINE",
"248 121 OFFCURVE",
"173 170 OFFCURVE",
"126 200 CURVE",
"107 213 OFFCURVE",
"91 223 OFFCURVE",
"83 231 CURVE",
"83 239 OFFCURVE",
"83 248 OFFCURVE",
"83 257 CURVE",
"90 273 OFFCURVE",
"105 295 OFFCURVE",
"124 324 CURVE SMOOTH",
"159 376 OFFCURVE",
"212 455 OFFCURVE",
"282 585 CURVE"
);
}
);
width = 365;
}
);
unicode = 004B;
},
{
glyphname = L;
layers = (
{
layerId = "B2224B7D-3358-49DE-B033-78E3556D2134";
name = Regular;
paths = (
{
closed = 1;
nodes = (
"25 -15 OFFCURVE",
"30 25 OFFCURVE",
"43 183 CURVE SMOOTH",
"54 291 OFFCURVE",
"66 440 OFFCURVE",
"69 600 CURVE",
"102 600 LINE",
"99 438 OFFCURVE",
"86 289 OFFCURVE",
"77 179 CURVE SMOOTH",
"72 133 OFFCURVE",
"69 93 OFFCURVE",
"67 63 CURVE SMOOTH",
"66 41 OFFCURVE",
"64 26 OFFCURVE",
"66 22 CURVE",
"69 19 OFFCURVE",
"97 28 OFFCURVE",
"114 33 CURVE SMOOTH",
"188 53 OFFCURVE",
"221 60 OFFCURVE",
"237 58 CURVE",
"231 25 LINE",
"231 25 LINE",
"211 25 OFFCURVE",
"149 9 OFFCURVE",
"122 0 CURVE SMOOTH",
"108 -4 OFFCURVE",
"64 -15 OFFCURVE",
"56 -15 CURVE SMOOTH"
);
}
);
width = 259;
}
);
unicode = 004C;
},
{
glyphname = M;
layers = (
{
layerId = "B2224B7D-3358-49DE-B033-78E3556D2134";
name = Regular;
paths = (
{
closed = 1;
nodes = (
"353 -61 LINE",
"353 33 OFFCURVE",
"354 129 OFFCURVE",
"355 222 CURVE SMOOTH",
"355 315 OFFCURVE",
"356 412 OFFCURVE",
"356 506 CURVE SMOOTH",
"356 531 OFFCURVE",
"356 557 OFFCURVE",
"354 559 CURVE",
"350 563 OFFCURVE",
"326 489 OFFCURVE",
"315 455 CURVE SMOOTH",
"268 321 OFFCURVE",
"239 248 OFFCURVE",
"202 267 CURVE SMOOTH",
"141 298 OFFCURVE",
"121 370 OFFCURVE",
"101 439 CURVE SMOOTH",
"92 469 OFFCURVE",
"77 528 OFFCURVE",
"72 528 CURVE",
"68 528 OFFCURVE",
"77 391 OFFCURVE",
"77 245 CURVE SMOOTH",
"77 161 OFFCURVE",
"75 89 OFFCURVE",
"56 -7 CURVE",
"22 0 LINE",
"40 92 OFFCURVE",
"42 163 OFFCURVE",
"42 245 CURVE SMOOTH",
"42 393 OFFCURVE",
"40 479 OFFCURVE",
"37 525 CURVE SMOOTH",
"37 550 OFFCURVE",
"32 586 OFFCURVE",
"49 595 CURVE SMOOTH",
"86 604 OFFCURVE",
"115 517 OFFCURVE",
"135 449 CURVE SMOOTH",
"152 385 OFFCURVE",
"169 326 OFFCURVE",
"213 301 CURVE",
"238 332 OFFCURVE",
"257 403 OFFCURVE",
"282 465 CURVE SMOOTH",
"295 503 OFFCURVE",
"307 538 OFFCURVE",
"318 564 CURVE SMOOTH",
"330 594 OFFCURVE",
"342 619 OFFCURVE",
"364 616 CURVE SMOOTH",
"382 612 OFFCURVE",
"386 588 OFFCURVE",
"388 578 CURVE SMOOTH",
"390 562 OFFCURVE",
"391 539 OFFCURVE",
"391 506 CURVE SMOOTH",
"391 411 OFFCURVE",
"390 315 OFFCURVE",
"390 222 CURVE SMOOTH",
"389 129 OFFCURVE",
"388 33 OFFCURVE",
"388 -61 CURVE"
);
}
);
width = 441;
}
);
unicode = 004D;
},
{
glyphname = N;
layers = (
{
layerId = "B2224B7D-3358-49DE-B033-78E3556D2134";
name = Regular;
paths = (
{
closed = 1;
nodes = (
"355 -11 OFFCURVE",
"347 -8 OFFCURVE",
"341 2 CURVE SMOOTH",
"311 50 OFFCURVE",
"244 200 OFFCURVE",
"222 249 CURVE SMOOTH",
"174 354 OFFCURVE",
"127 465 OFFCURVE",
"78 546 CURVE SMOOTH",
"65 565 OFFCURVE",
"58 575 OFFCURVE",
"53 575 CURVE",
"48 575 OFFCURVE",
"48 553 OFFCURVE",
"49 514 CURVE SMOOTH",
"53 440 OFFCURVE",
"62 373 OFFCURVE",
"64 288 CURVE SMOOTH",
"65 199 OFFCURVE",
"67 99 OFFCURVE",
"74 2 CURVE",
"41 0 LINE",
"34 98 OFFCURVE",
"32 198 OFFCURVE",
"31 287 CURVE SMOOTH",
"28 343 OFFCURVE",
"19 464 OFFCURVE",
"16 512 CURVE SMOOTH",
"15 541 OFFCURVE",
"16 562 OFFCURVE",
"19 578 CURVE SMOOTH",
"23 598 OFFCURVE",
"32 609 OFFCURVE",
"45 612 CURVE SMOOTH",
"66 617 OFFCURVE",
"84 595 OFFCURVE",
"98 576 CURVE SMOOTH",
"150 501 OFFCURVE",
"204 375 OFFCURVE",
"252 262 CURVE SMOOTH",
"275 211 OFFCURVE",
"349 46 OFFCURVE",
"354 46 CURVE",
"360 46 OFFCURVE",
"360 106 OFFCURVE",
"360 180 CURVE SMOOTH",
"359 265 OFFCURVE",
"355 369 OFFCURVE",
"352 452 CURVE SMOOTH",
"350 515 OFFCURVE",
"348 570 OFFCURVE",
"348 600 CURVE",
"382 600 LINE",
"382 570 OFFCURVE",
"384 516 OFFCURVE",
"386 453 CURVE SMOOTH",
"389 365 OFFCURVE",
"392 254 OFFCURVE",
"393 165 CURVE SMOOTH",
"393 109 OFFCURVE",
"392 46 OFFCURVE",
"385 17 CURVE SMOOTH",
"383 1 OFFCURVE",
"372 -11 OFFCURVE",
"361 -11 CURVE SMOOTH"
);
}
);
width = 426;
}
);
unicode = 004E;
},
{
glyphname = O;
layers = (
{
layerId = "B2224B7D-3358-49DE-B033-78E3556D2134";
name = Regular;
paths = (
{
closed = 1;
nodes = (
"111 -15 OFFCURVE",
"69 7 OFFCURVE",
"45 58 CURVE SMOOTH",
"28 94 OFFCURVE",
"18 143 OFFCURVE",
"16 200 CURVE SMOOTH",
"15 252 OFFCURVE",
"20 309 OFFCURVE",
"33 366 CURVE SMOOTH",
"59 490 OFFCURVE",
"112 584 OFFCURVE",
"171 614 CURVE",
"179 600 LINE",
"199 590 OFFCURVE",
"219 576 OFFCURVE",
"237 557 CURVE SMOOTH",
"258 535 OFFCURVE",
"276 508 OFFCURVE",
"293 475 CURVE SMOOTH",
"324 413 OFFCURVE",
"344 337 OFFCURVE",
"346 264 CURVE SMOOTH",
"349 207 OFFCURVE",
"341 152 OFFCURVE",
"323 109 CURVE SMOOTH",
"303 58 OFFCURVE",
"270 23 OFFCURVE",
"226 4 CURVE SMOOTH",
"199 -9 OFFCURVE",
"174 -15 OFFCURVE",
"152 -15 CURVE SMOOTH"
);
},
{
closed = 1;
nodes = (
"148 552 OFFCURVE",
"131 530 OFFCURVE",
"116 501 CURVE SMOOTH",
"95 462 OFFCURVE",
"79 413 OFFCURVE",
"67 358 CURVE SMOOTH",
"42 245 OFFCURVE",
"45 136 OFFCURVE",
"76 73 CURVE SMOOTH",
"103 19 OFFCURVE",
"148 6 OFFCURVE",
"211 35 CURVE SMOOTH",
"309 79 OFFCURVE",
"314 210 OFFCURVE",
"311 263 CURVE SMOOTH",
"309 331 OFFCURVE",
"291 402 OFFCURVE",
"262 460 CURVE SMOOTH",
"235 512 OFFCURVE",
"201 550 OFFCURVE",
"165 568 CURVE"
);
}
);
width = 386;
}
);
unicode = 004F;
},
{
glyphname = P;
layers = (
{
layerId = "B2224B7D-3358-49DE-B033-78E3556D2134";
name = Regular;
paths = (
{
closed = 1;
nodes = (
"21 568 LINE",
"25.6389 568.807 OFFCURVE",
"30.2141 569.519 OFFCURVE",
"34.7243 570.138 CURVE",
"22.2957 454.304 OFFCURVE",
"30.6477 333.86 OFFCURVE",
"39 216 CURVE SMOOTH",
"44 145 OFFCURVE",
"49 71 OFFCURVE",
"49 0 CURVE",
"81 0 LINE",
"81 72 OFFCURVE",
"76 146 OFFCURVE",
"71 219 CURVE SMOOTH",
"69.3959 241.1 OFFCURVE",
"67.7919 263.36 OFFCURVE",
"66.3351 285.699 CURVE",
"114.309 269.259 OFFCURVE",
"165.472 273.042 OFFCURVE",
"208 320 CURVE SMOOTH",
"232 346 OFFCURVE",
"248 380 OFFCURVE",
"254 417 CURVE SMOOTH",
"260 455 OFFCURVE",
"254 493 OFFCURVE",
"237 524 CURVE SMOOTH",
"221 555 OFFCURVE",
"193 579 OFFCURVE",
"158 592 CURVE SMOOTH",
"119 607 OFFCURVE",
"71 610 OFFCURVE",
"16 600 CURVE"
);
},
{
closed = 1;
nodes = (
"166.319 322.336 OFFCURVE",
"126.37 293.971 OFFCURVE",
"64.2031 320.589 CURVE",
"59.404 405.634 OFFCURVE",
"57.8299 491.231 OFFCURVE",
"67.536 573.044 CURVE",
"135.579 575.509 OFFCURVE",
"185.145 553.419 OFFCURVE",
"209 509 CURVE SMOOTH",
"236 459 OFFCURVE",
"225 386 OFFCURVE",
"185 342 CURVE SMOOTH"
);
}
);
width = 289;
}
);
unicode = 0050;
},
{
glyphname = Q;
layers = (
{
layerId = "B2224B7D-3358-49DE-B033-78E3556D2134";
name = Regular;
paths = (
{
closed = 1;
nodes = (
"225 601 LINE",
"189 612 OFFCURVE",
"157 611 OFFCURVE",
"128 600 CURVE SMOOTH",
"101 590 OFFCURVE",
"79 571 OFFCURVE",
"61 544 CURVE SMOOTH",
"24 486 OFFCURVE",
"8 390 OFFCURVE",
"20 281 CURVE SMOOTH",
"31 178 OFFCURVE",
"63 85 OFFCURVE",
"108 32 CURVE SMOOTH",
"126 11 OFFCURVE",
"145 -3 OFFCURVE",
"165 -10 CURVE",
"176 -13 OFFCURVE",
"185 -15 OFFCURVE",
"196 -15 CURVE SMOOTH",
"209 -15 OFFCURVE",
"221 -12 OFFCURVE",
"235 -6 CURVE SMOOTH",
"266.183 6.94408 OFFCURVE",
"293.559 32.697 OFFCURVE",
"315.497 68.8139 CURVE",
"329.46 52.4771 OFFCURVE",
"342.275 36.1415 OFFCURVE",
"353 21 CURVE",
"357 17 OFFCURVE",
"376 -10 OFFCURVE",
"379 -15 CURVE",
"404 4 LINE",
"401 8 OFFCURVE",
"383 34 OFFCURVE",
"379 39 CURVE",
"365.508 57.7395 OFFCURVE",
"349.065 78.1647 OFFCURVE",
"331.147 98.3275 CURVE",
"339.64 116.691 OFFCURVE",
"346.973 136.987 OFFCURVE",
"353 159 CURVE SMOOTH",
"372 236 OFFCURVE",
"375 324 OFFCURVE",
"359 403 CURVE SMOOTH",
"348 458 OFFCURVE",
"327 506 OFFCURVE",
"299 540 CURVE SMOOTH",
"277 565 OFFCURVE",
"252 583 OFFCURVE",
"222 592 CURVE"
);
},
{
closed = 1;
nodes = (
"177 568 LINE",
"282 568 OFFCURVE",
"318 448 OFFCURVE",
"328 396 CURVE SMOOTH",
"344 322 OFFCURVE",
"341 239 OFFCURVE",
"322 168 CURVE SMOOTH",
"317.809 152.284 OFFCURVE",
"312.915 137.578 OFFCURVE",
"307.393 123.974 CURVE",
"283.955 148.237 OFFCURVE",
"259.223 170.815 OFFCURVE",
"236 188 CURVE",
"218 163 LINE",
"242.027 145.241 OFFCURVE",
"268.51 120.388 OFFCURVE",
"293.173 93.8569 CURVE",
"273.876 58.6413 OFFCURVE",
"249.5 33.8752 OFFCURVE",
"222 22 CURVE SMOOTH",
"191 8 OFFCURVE",
"160 18 OFFCURVE",
"131 52 CURVE SMOOTH",
"91 99 OFFCURVE",
"61 188 OFFCURVE",
"51 285 CURVE SMOOTH",
"41 385 OFFCURVE",
"54 475 OFFCURVE",
"87 527 CURVE SMOOTH",
"110 561 OFFCURVE",
"139 578 OFFCURVE",
"176 578 CURVE",
"176 578 OFFCURVE",
"176 578 OFFCURVE",
"177 578 CURVE"
);
}
);
width = 420;
}
);
unicode = 0051;
},
{
glyphname = R;
layers = (
{
layerId = "B2224B7D-3358-49DE-B033-78E3556D2134";
name = Regular;
paths = (
{
closed = 1;
nodes = (
"25 592 LINE",
"37 473 OFFCURVE",
"32 334 OFFCURVE",
"27 199 CURVE SMOOTH",
"24 129 OFFCURVE",
"22 63 OFFCURVE",
"22 0 CURVE",
"55 0 LINE",
"55 62 OFFCURVE",
"57 128 OFFCURVE",
"60 198 CURVE SMOOTH",
"61 235 OFFCURVE",
"63 273 OFFCURVE",
"64 310 CURVE",
"79 281 OFFCURVE",
"106 248 OFFCURVE",
"136 211 CURVE SMOOTH",
"190 145 OFFCURVE",
"251 71 OFFCURVE",
"265 0 CURVE",
"297 6 LINE",
"282 85 OFFCURVE",
"218 164 OFFCURVE",
"162 232 CURVE SMOOTH",
"130 270 OFFCURVE",
"100 306 OFFCURVE",
"89 333 CURVE",
"112 344 OFFCURVE",
"158 368 OFFCURVE",
"195 403 CURVE",
"239 439 OFFCURVE",
"262 495 OFFCURVE",
"241 547 CURVE SMOOTH",
"218 609 OFFCURVE",
"162 624 OFFCURVE",
"102 611 CURVE SMOOTH",
"88 608 OFFCURVE",
"73 603 OFFCURVE",
"58 595 CURVE",
"58 596 OFFCURVE",
"58 596 OFFCURVE",
"58 596 CURVE"
);
},
{
closed = 1;
nodes = (
"66 427 OFFCURVE",
"66 495 OFFCURVE",
"61 559 CURVE",
"121 597 OFFCURVE",
"189 593 OFFCURVE",
"211 535 CURVE SMOOTH",
"233 477 OFFCURVE",
"189 420 OFFCURVE",
"73 362 CURVE SMOOTH",
"71 361 OFFCURVE",
"68 360 OFFCURVE",
"65 358 CURVE"
);
}
);
width = 319;
}
);
unicode = 0052;
},
{
glyphname = S;
layers = (
{
layerId = "B2224B7D-3358-49DE-B033-78E3556D2134";
name = Regular;
paths = (
{
closed = 1;
nodes = (
"67 96 LINE",
"77 40 OFFCURVE",
"111 12 OFFCURVE",
"158 19 CURVE SMOOTH",
"219 28 OFFCURVE",
"283 96 OFFCURVE",
"275 177 CURVE SMOOTH",
"271 220 OFFCURVE",
"259 249 OFFCURVE",
"242 263 CURVE SMOOTH",
"201 295 OFFCURVE",
"124 255 OFFCURVE",
"71 274 CURVE",
"42 286 OFFCURVE",
"24 312 OFFCURVE",
"18 356 CURVE SMOOTH",
"12 400 OFFCURVE",
"21 457 OFFCURVE",
"43 508 CURVE SMOOTH",
"66 563 OFFCURVE",
"98 600 OFFCURVE",
"133 611 CURVE",
"155 619 OFFCURVE",
"197 621 OFFCURVE",
"234 554 CURVE",
"205 539 LINE",
"186 574 OFFCURVE",
"165 588 OFFCURVE",
"143 581 CURVE SMOOTH",
"119 573 OFFCURVE",
"91 541 OFFCURVE",
"72 495 CURVE SMOOTH",
"52 449 OFFCURVE",
"44 399 OFFCURVE",
"50 360 CURVE SMOOTH",
"56 319 OFFCURVE",
"71 309 OFFCURVE",
"82 305 CURVE SMOOTH",
"131 289 OFFCURVE",
"209 331 OFFCURVE",
"262 289 CURVE SMOOTH",
"287 268 OFFCURVE",
"301 233 OFFCURVE",
"307 181 CURVE SMOOTH",
"315 89 OFFCURVE",
"249 0 OFFCURVE",
"163 -13 CURVE SMOOTH",
"95 -21 OFFCURVE",
"50 16 OFFCURVE",
"35 90 CURVE"
);
}
);
width = 341;
}
);
unicode = 0053;
},
{
glyphname = T;
layers = (
{
layerId = "B2224B7D-3358-49DE-B033-78E3556D2134";
name = Regular;
paths = (
{
closed = 1;
nodes = (
"285 597 LINE",
"240 597 OFFCURVE",
"195 599 OFFCURVE",
"151 600 CURVE SMOOTH",
"107 601 OFFCURVE",
"61 603 OFFCURVE",
"16 603 CURVE",
"16 570 LINE",
"60.6531 570 OFFCURVE",
"105.306 569.015 OFFCURVE",
"148.982 568.023 CURVE",
"148.777 476.15 OFFCURVE",
"146.835 382.735 OFFCURVE",
"144 292 CURVE SMOOTH",
"141 197 OFFCURVE",
"138 97.9999 OFFCURVE",
"138 0 CURVE",
"171 0 LINE",
"171 96.9999 OFFCURVE",
"174 196 OFFCURVE",
"176 292 CURVE SMOOTH",
"178.824 381.424 OFFCURVE",
"181.647 474.391 OFFCURVE",
"181.969 566.733 CURVE",
"216.012 565.578 OFFCURVE",
"250.795 565 OFFCURVE",
"285 565 CURVE"
);
}
);
width = 318;
}
);
unicode = 0054;
},
{
glyphname = U;
layers = (
{
layerId = "B2224B7D-3358-49DE-B033-78E3556D2134";
name = Regular;
paths = (
{
closed = 1;
nodes = (
"160 -15 OFFCURVE",
"113 35 OFFCURVE",
"83 94 CURVE SMOOTH",
"63 132 OFFCURVE",
"47 178 OFFCURVE",
"37 229 CURVE SMOOTH",
"20 310 OFFCURVE",
"9 441 OFFCURVE",
"52 608 CURVE",
"84 600 LINE",
"42 439 OFFCURVE",
"52 313 OFFCURVE",
"69 235 CURVE SMOOTH",
"88 144 OFFCURVE",
"126 68 OFFCURVE",
"169 35 CURVE SMOOTH",
"194 17 OFFCURVE",
"216 12 OFFCURVE",
"236 25 CURVE SMOOTH",
"294 58 OFFCURVE",
"341 215 OFFCURVE",
"298 554 CURVE",
"331 558 LINE",
"351 397 OFFCURVE",
"353 264 OFFCURVE",
"337 166 CURVE SMOOTH",
"319 53 OFFCURVE",
"275 -15 OFFCURVE",
"212 -15 CURVE SMOOTH"
);
}
);
width = 381;
}
);
unicode = 0055;
},
{
glyphname = V;
layers = (
{
layerId = "B2224B7D-3358-49DE-B033-78E3556D2134";
name = Regular;
paths = (
{
closed = 1;
nodes = (
"133 -15 OFFCURVE",
"118 126 OFFCURVE",
"102 219 CURVE SMOOTH",
"79 348 OFFCURVE",
"51 509 OFFCURVE",
"16 571 CURVE",
"45 588 LINE",
"83 521 OFFCURVE",
"110 364 OFFCURVE",
"134 224 CURVE SMOOTH",
"143 171 OFFCURVE",
"165 30 OFFCURVE",
"173 33 CURVE",
"176 34 OFFCURVE",
"180 62 OFFCURVE",
"185 93 CURVE SMOOTH",
"209 244 OFFCURVE",
"251 459 OFFCURVE",
"294 610 CURVE",
"326 600 LINE",
"283 450 OFFCURVE",
"242 237 OFFCURVE",
"218 87 CURVE SMOOTH",
"212 47 OFFCURVE",
"202 -15 OFFCURVE",
"174 -15 CURVE SMOOTH",
"174 -15 OFFCURVE",
"174 -15 OFFCURVE",
"173 -15 CURVE SMOOTH"
);
}
);
width = 359;
}
);
unicode = 0056;
},
{
glyphname = W;
layers = (
{
layerId = "B2224B7D-3358-49DE-B033-78E3556D2134";
name = Regular;
paths = (
{
closed = 1;
nodes = (
"347 -15 OFFCURVE",
"333 16 OFFCURVE",
"327 40 CURVE SMOOTH",
"319 68 OFFCURVE",
"311 105 OFFCURVE",
"304 142 CURVE SMOOTH",
"297 175 OFFCURVE",
"278 261 OFFCURVE",
"274 261 CURVE",
"270 261 OFFCURVE",
"249 182 OFFCURVE",
"239 150 CURVE SMOOTH",
"228 114 OFFCURVE",
"217 78 OFFCURVE",
"207 49 CURVE SMOOTH",
"192 6 OFFCURVE",
"184 -7 OFFCURVE",
"170 -9 CURVE SMOOTH",
"165 -10 OFFCURVE",
"151 -10 OFFCURVE",
"144 6 CURVE SMOOTH",
"142 10 OFFCURVE",
"130 62 OFFCURVE",
"127 74 CURVE SMOOTH",
"125 81 OFFCURVE",
"110 140 OFFCURVE",
"101 171 CURVE SMOOTH",
"64 312 OFFCURVE",
"25 458 OFFCURVE",
"16 600 CURVE",
"48 602 LINE",
"57 463 OFFCURVE",
"95 319 OFFCURVE",
"133 179 CURVE",
"158 81 LINE",
"161 66 OFFCURVE",
"166 40 OFFCURVE",
"169 40 CURVE",
"173 40 OFFCURVE",
"197 125 OFFCURVE",
"207 159 CURVE SMOOTH",
"240 268 OFFCURVE",
"250 296 OFFCURVE",
"265 304 CURVE SMOOTH",
"270 306 OFFCURVE",
"275 307 OFFCURVE",
"281 305 CURVE SMOOTH",
"294 298 OFFCURVE",
"303 282 OFFCURVE",
"313 245 CURVE SMOOTH",
"321 218 OFFCURVE",
"328 182 OFFCURVE",
"335 149 CURVE SMOOTH",
"341 121 OFFCURVE",
"357 42 OFFCURVE",
"361 42 CURVE",
"365 42 OFFCURVE",
"381 136 OFFCURVE",
"392 192 CURVE SMOOTH",
"423 332 OFFCURVE",
"460 507 OFFCURVE",
"477 562 CURVE",
"507 553 LINE",
"491 499 OFFCURVE",
"455 325 OFFCURVE",
"425 186 CURVE SMOOTH",
"414 135 OFFCURVE",
"390 20 OFFCURVE",
"384 1 CURVE SMOOTH",
"381 -9 OFFCURVE",
"375 -15 OFFCURVE",
"366 -15 CURVE SMOOTH"
);
}
);
width = 540;
}
);
unicode = 0057;
},
{
glyphname = X;
layers = (
{
layerId = "B2224B7D-3358-49DE-B033-78E3556D2134";
name = Regular;
paths = (
{
closed = 1;
nodes = (
"230 606 LINE",
"209.944 507.391 OFFCURVE",
"175.223 407.386 OFFCURVE",
"139.843 309.486 CURVE",
"111.101 400.449 OFFCURVE",
"80.2306 492.422 OFFCURVE",
"46 584 CURVE",
"16 573 LINE",
"54.7692 468.425 OFFCURVE",
"89.6347 363.33 OFFCURVE",
"121.792 259.705 CURVE",
"120.86 257.135 OFFCURVE",
"119.929 254.566 OFFCURVE",
"119 252 CURVE SMOOTH",
"87 169 OFFCURVE",
"55 85 OFFCURVE",
"31 0 CURVE",
"62 -9 LINE",
"83.0471 64.6649 OFFCURVE",
"110.247 138.33 OFFCURVE",
"136.854 210.646 CURVE",
"161.985 127.939 OFFCURVE",
"185.495 46.3811 OFFCURVE",
"208 -33 CURVE",
"240 -24 LINE",
"212.923 68.1583 OFFCURVE",
"185.168 163.476 OFFCURVE",
"155.236 260.238 CURVE",
"196.967 371.239 OFFCURVE",
"239.313 485.62 OFFCURVE",
"262 600 CURVE"
);
}
);
width = 295;
}
);
unicode = 0058;
},
{
glyphname = Y;
layers = (
{
layerId = "B2224B7D-3358-49DE-B033-78E3556D2134";
name = Regular;
paths = (
{
closed = 1;
nodes = (
"270 616 LINE",
"209 513 OFFCURVE",
"184 435 OFFCURVE",
"169 394 CURVE SMOOTH",
"167 388 OFFCURVE",
"165 377 OFFCURVE",
"163 375 CURVE SMOOTH",
"161 373 OFFCURVE",
"152 395 OFFCURVE",
"145 406 CURVE",
"126 443 OFFCURVE",
"96 500 OFFCURVE",
"44 581 CURVE",
"16 562 LINE",
"67 484 OFFCURVE",
"97 428 OFFCURVE",
"116 391 CURVE SMOOTH",
"126 373 OFFCURVE",
"133 360 OFFCURVE",
"139 351 CURVE SMOOTH",
"140.353 348.97 OFFCURVE",
"142.279 346.139 OFFCURVE",
"144.738 343.281 CURVE",
"140.257 258.747 OFFCURVE",
"147.146 171.428 OFFCURVE",
"155 87 CURVE SMOOTH",
"157 57 OFFCURVE",
"160 27 OFFCURVE",
"162 -2 CURVE",
"195 0 LINE",
"193 30 OFFCURVE",
"190 60 OFFCURVE",
"188 89 CURVE SMOOTH",
"181.29 170.473 OFFCURVE",
"173.663 254.702 OFFCURVE",
"177.444 335.524 CURVE",
"190.313 344.334 OFFCURVE",
"195.328 367.606 OFFCURVE",
"201 383 CURVE SMOOTH",
"216 427 OFFCURVE",
"239 498 OFFCURVE",
"298 600 CURVE"
);
}
);
width = 331;
}
);
unicode = 0059;
},
{
glyphname = Z;
layers = (
{
layerId = "B2224B7D-3358-49DE-B033-78E3556D2134";
name = Regular;
paths = (
{
closed = 1;
nodes = (
"251 325 LINE",
"233.388 321.134 OFFCURVE",
"216.146 318.375 OFFCURVE",
"198.559 316.803 CURVE",
"213.31 346.128 OFFCURVE",
"224.041 367.31 OFFCURVE",
"227 373 CURVE SMOOTH",
"287 488 OFFCURVE",
"310 535 OFFCURVE",
"292 566 CURVE SMOOTH",
"273 600 OFFCURVE",
"207 598 OFFCURVE",
"155 600 CURVE SMOOTH",
"135 601 OFFCURVE",
"113 602 OFFCURVE",
"89 604 CURVE",
"87 571 LINE",
"112 569 OFFCURVE",
"134 568 OFFCURVE",
"153 567 CURVE SMOOTH",
"211 565 OFFCURVE",
"256 563 OFFCURVE",
"263 550 CURVE",
"267 546 OFFCURVE",
"267 535 OFFCURVE",
"255 506 CURVE",
"245 478 OFFCURVE",
"224 438 OFFCURVE",
"199 388 CURVE SMOOTH",
"195.425 380.849 OFFCURVE",
"181.153 352.828 OFFCURVE",
"162.449 315.264 CURVE",
"150.388 315.301 OFFCURVE",
"137.972 315.872 OFFCURVE",
"125 317 CURVE",
"123 284 LINE",
"130.589 283.416 OFFCURVE",
"138.519 282.832 OFFCURVE",
"146.194 282.448 CURVE",
"132.065 253.768 OFFCURVE",
"116.667 222.079 OFFCURVE",
"102 191 CURVE",
"76 141 OFFCURVE",
"56 100 OFFCURVE",
"42 70 CURVE SMOOTH",
"35 55 OFFCURVE",
"19 18 OFFCURVE",
"19 18 CURVE",
"17 13 LINE SMOOTH",
"11 -3 OFFCURVE",
"24 -10 OFFCURVE",
"39 -10 CURVE SMOOTH",
"47 -10 OFFCURVE",
"60 -8 OFFCURVE",
"81 -4 CURVE",
"107 0 OFFCURVE",
"138 7 OFFCURVE",
"169 14 CURVE SMOOTH",
"215 24 OFFCURVE",
"266 35 OFFCURVE",
"280 35 CURVE",
"280 68 LINE",
"263 68 OFFCURVE",
"224 60 OFFCURVE",
"162 46 CURVE SMOOTH",
"129 39 OFFCURVE",
"75 24 OFFCURVE",
"56 24 CURVE SMOOTH",
"52.5464 24 OFFCURVE",
"129.245 178.58 OFFCURVE",
"181.302 282.434 CURVE",
"207.667 283.621 OFFCURVE",
"232.183 287.159 OFFCURVE",
"258 292 CURVE"
);
}
);
width = 331;
}
);
unicode = 005A;
},
{
glyphname = a;
layers = (
{
layerId = "B2224B7D-3358-49DE-B033-78E3556D2134";
name = Regular;
paths = (
{
closed = 1;
nodes = (
"319 -1 OFFCURVE",
"293 47 OFFCURVE",
"275 83 CURVE SMOOTH",
"256 125 OFFCURVE",
"237 175 OFFCURVE",
"226 223 CURVE",
"221 206 OFFCURVE",
"217 190 OFFCURVE",
"212 174 CURVE SMOOTH",
"196 119 OFFCURVE",
"182 76 OFFCURVE",
"165 46 CURVE SMOOTH",
"145 2 OFFCURVE",
"127 -20 OFFCURVE",
"105 -23 CURVE SMOOTH",
"68 -30 OFFCURVE",
"49 15 OFFCURVE",
"40 48 CURVE SMOOTH",
"11 131 OFFCURVE",
"17 253 OFFCURVE",
"59 328 CURVE SMOOTH",
"85 380 OFFCURVE",
"129 414 OFFCURVE",
"185 429 CURVE",
"193 396 LINE",
"148 383 OFFCURVE",
"112 354 OFFCURVE",
"89 310 CURVE SMOOTH",
"53 244 OFFCURVE",
"45 145 OFFCURVE",
"73 58 CURVE SMOOTH",
"85 18 OFFCURVE",
"95 11 OFFCURVE",
"98 12 CURVE SMOOTH",
"100 12 OFFCURVE",
"130 17 OFFCURVE",
"181 196 CURVE SMOOTH",
"195 237 OFFCURVE",
"205 278 OFFCURVE",
"213 314 CURVE",
"214 349 OFFCURVE",
"218 385 OFFCURVE",
"235 409 CURVE SMOOTH",
"238 417 OFFCURVE",
"248 419 OFFCURVE",
"254 417 CURVE SMOOTH",
"257 415 OFFCURVE",
"267 411 OFFCURVE",
"266 396 CURVE",
"264 392 LINE",
"265 379 OFFCURVE",
"257 349 OFFCURVE",
"248 311 CURVE",
"249 292 OFFCURVE",
"252 268 OFFCURVE",
"257 247 CURVE SMOOTH",
"280 137 OFFCURVE",
"333 31 OFFCURVE",
"367 9 CURVE",
"348 -18 LINE"
);
}
);
width = 383;
}
);
unicode = 0061;
},
{
glyphname = b;
layers = (
{
layerId = "B2224B7D-3358-49DE-B033-78E3556D2134";
name = Regular;
paths = (
{
closed = 1;
nodes = (
"55 -15 OFFCURVE",
"45 -12 OFFCURVE",
"34 9 CURVE",
"30 12 OFFCURVE",
"29 16 OFFCURVE",
"28 20 CURVE",
"28 21 OFFCURVE",
"28 21 OFFCURVE",
"28 22 CURVE SMOOTH",
"24 31 OFFCURVE",
"19 41 OFFCURVE",
"13 52 CURVE",
"27 61 LINE",
"27 76 OFFCURVE",
"27 96 OFFCURVE",
"27 118 CURVE SMOOTH",
"27 166 OFFCURVE",
"30 207 OFFCURVE",
"38 244 CURVE",
"38 271 OFFCURVE",
"38 298 OFFCURVE",
"39 328 CURVE SMOOTH",
"40 514 OFFCURVE",
"36 650 OFFCURVE",
"28 700 CURVE",
"58 705 LINE",
"69 638 OFFCURVE",
"69 458 OFFCURVE",
"69 340 CURVE",
"94 388 OFFCURVE",
"126 403 OFFCURVE",
"149 407 CURVE SMOOTH",
"175 411 OFFCURVE",
"201 404 OFFCURVE",
"224 386 CURVE SMOOTH",
"247 368 OFFCURVE",
"266 343 OFFCURVE",
"276 314 CURVE SMOOTH",
"293 265 OFFCURVE",
"290 211 OFFCURVE",
"268 159 CURVE SMOOTH",
"255 131 OFFCURVE",
"236 104 OFFCURVE",
"211 78 CURVE SMOOTH",
"185 51 OFFCURVE",
"150 25 OFFCURVE",
"111 2 CURVE SMOOTH",
"92 -9 OFFCURVE",
"78 -15 OFFCURVE",
"66 -15 CURVE SMOOTH"
);
},
{
closed = 1;
nodes = (
"68 15 OFFCURVE",
"74 16 OFFCURVE",
"96 29 CURVE SMOOTH",
"166 68 OFFCURVE",
"215 117 OFFCURVE",
"239 172 CURVE SMOOTH",
"259 216 OFFCURVE",
"262 262 OFFCURVE",
"248 304 CURVE SMOOTH",
"229 352 OFFCURVE",
"191 383 OFFCURVE",
"153 377 CURVE SMOOTH",
"129 372 OFFCURVE",
"107 351 OFFCURVE",
"89 316 CURVE SMOOTH",
"80 294 OFFCURVE",
"73 270 OFFCURVE",
"67 241 CURVE",
"67 195 OFFCURVE",
"66 149 OFFCURVE",
"64 111 CURVE SMOOTH",
"64 79 OFFCURVE",
"62 36 OFFCURVE",
"60 26 CURVE SMOOTH",
"60 26 OFFCURVE",
"60 25 OFFCURVE",
"60 24 CURVE",
"62 21 OFFCURVE",
"64 16 OFFCURVE",
"66 15 CURVE"
);
}
);
width = 320;
}
);
unicode = 0062;
},
{
glyphname = c;
layers = (
{
layerId = "B2224B7D-3358-49DE-B033-78E3556D2134";
name = Regular;
paths = (
{
closed = 1;
nodes = (
"155 -16 OFFCURVE",
"119 -18 OFFCURVE",
"92 1 CURVE SMOOTH",
"55 26 OFFCURVE",
"28 81 OFFCURVE",
"19 153 CURVE SMOOTH",
"10 220 OFFCURVE",
"19 289 OFFCURVE",
"43 337 CURVE SMOOTH",
"58 366 OFFCURVE",
"78 387 OFFCURVE",
"101 398 CURVE SMOOTH",
"128 411 OFFCURVE",
"158 412 OFFCURVE",
"192 400 CURVE",
"180 366 LINE",
"133 383 OFFCURVE",
"99 368 OFFCURVE",
"75 321 CURVE SMOOTH",
"54 280 OFFCURVE",
"46 217 OFFCURVE",
"54 157 CURVE SMOOTH",
"61 96 OFFCURVE",
"83 49 OFFCURVE",
"112 30 CURVE SMOOTH",
"155 0 OFFCURVE",
"209 45 OFFCURVE",
"244 87 CURVE",
"272 65 LINE",
"238 26 OFFCURVE",
"205 1 OFFCURVE",
"175 -9 CURVE SMOOTH"
);
}
);
width = 294;
}
);
unicode = 0063;
},
{
glyphname = d;
layers = (
{
layerId = "B2224B7D-3358-49DE-B033-78E3556D2134";
name = Regular;
paths = (
{
closed = 1;
nodes = (
"191 410 LINE SMOOTH",
"191 406 OFFCURVE",
"191 400 OFFCURVE",
"191 394 CURVE",
"146 406 OFFCURVE",
"90 385 OFFCURVE",
"61 345 CURVE SMOOTH",
"34 308 OFFCURVE",
"17 252 OFFCURVE",
"14 191 CURVE SMOOTH",
"10 130 OFFCURVE",
"21 77 OFFCURVE",
"44 45 CURVE SMOOTH",
"60 22 OFFCURVE",
"75 6 OFFCURVE",
"90 -4 CURVE SMOOTH",
"101 -11 OFFCURVE",
"112 -15 OFFCURVE",
"123 -15 CURVE SMOOTH",
"128 -15 OFFCURVE",
"132 -14 OFFCURVE",
"137 -13 CURVE",
"170 -2 OFFCURVE",
"193 47 OFFCURVE",
"207 140 CURVE",
"213 105 OFFCURVE",
"220 70 OFFCURVE",
"230 35 CURVE",
"260 43 LINE",
"221 185 OFFCURVE",
"222 324 OFFCURVE",
"224 471 CURVE SMOOTH",
"224 527 OFFCURVE",
"225 584 OFFCURVE",
"223 642 CURVE SMOOTH",
"222 658 OFFCURVE",
"220 706 OFFCURVE",
"220 701 CURVE",
"218 713 OFFCURVE",
"208 716 OFFCURVE",
"203 716 CURVE SMOOTH",
"196 716 OFFCURVE",
"188 711 OFFCURVE",
"187 700 CURVE",
"187 700 OFFCURVE",
"188 605 OFFCURVE",
"189 566 CURVE SMOOTH",
"190 503 OFFCURVE",
"191 439 OFFCURVE",
"191 412 CURVE SMOOTH"
);
},
{
closed = 1;
nodes = (
"114 14 OFFCURVE",
"93 30 OFFCURVE",
"70 63 CURVE SMOOTH",
"52 89 OFFCURVE",
"43 136 OFFCURVE",
"46 190 CURVE SMOOTH",
"49 244 OFFCURVE",
"64 295 OFFCURVE",
"87 326 CURVE SMOOTH",
"108 355 OFFCURVE",
"151 370 OFFCURVE",
"190 359 CURVE",
"190 315 OFFCURVE",
"188 253 OFFCURVE",
"182 193 CURVE SMOOTH",
"166 41 OFFCURVE",
"136 21 OFFCURVE",
"127 18 CURVE SMOOTH"
);
}
);
width = 293;
}
);
unicode = 0064;
},
{
glyphname = e;
layers = (
{
layerId = "B2224B7D-3358-49DE-B033-78E3556D2134";
name = Regular;
paths = (
{
closed = 1;
nodes = (
"99 -15 OFFCURVE",
"68 -3 OFFCURVE",
"43 36 CURVE SMOOTH",
"9 93 OFFCURVE",
"2 178 OFFCURVE",
"33 260 CURVE SMOOTH",
"53 313 OFFCURVE",
"86 356 OFFCURVE",
"129 386 CURVE SMOOTH",
"184 424 OFFCURVE",
"219 411 OFFCURVE",
"234 400 CURVE SMOOTH",
"260 383 OFFCURVE",
"269 347 OFFCURVE",
"260 307 CURVE SMOOTH",
"251 269 OFFCURVE",
"226 232 OFFCURVE",
"190 203 CURVE SMOOTH",
"152 172 OFFCURVE",
"103 151 OFFCURVE",
"47 139 CURVE",
"47 105 OFFCURVE",
"64 36 OFFCURVE",
"110 21 CURVE SMOOTH",
"126 16 OFFCURVE",
"145 17 OFFCURVE",
"166 26 CURVE SMOOTH",
"191 36 OFFCURVE",
"219 56 OFFCURVE",
"248 85 CURVE",
"271 63 LINE",
"212 2 OFFCURVE",
"165 -15 OFFCURVE",
"130 -15 CURVE SMOOTH"
);
},
{
closed = 1;
nodes = (
"200 384 OFFCURVE",
"179 381 OFFCURVE",
"147 358 CURVE SMOOTH",
"83 314 OFFCURVE",
"52 240 OFFCURVE",
"47 172 CURVE",
"162 197 OFFCURVE",
"216 263 OFFCURVE",
"228 315 CURVE SMOOTH",
"234 341 OFFCURVE",
"229 364 OFFCURVE",
"216 374 CURVE SMOOTH"
);
}
);
width = 304;
}
);
unicode = 0065;
},
{
glyphname = f;
layers = (
{
layerId = "B2224B7D-3358-49DE-B033-78E3556D2134";
name = Regular;
paths = (
{
closed = 1;
nodes = (
"13 407 LINE",
"11 374 LINE",
"13 374 LINE",
"32 373 OFFCURVE",
"50 372 OFFCURVE",
"69 371 CURVE",
"76 249 OFFCURVE",
"90 126 OFFCURVE",
"103 6 CURVE",
"105 -4 LINE",
"137 0 LINE",
"136 9 LINE SMOOTH",
"123 128 OFFCURVE",
"109 249 OFFCURVE",
"102 370 CURVE",
"103 370 OFFCURVE",
"104 370 OFFCURVE",
"105 370 CURVE SMOOTH",
"140 370 OFFCURVE",
"176 373 OFFCURVE",
"212 381 CURVE",
"204 414 LINE",
"169 406 OFFCURVE",
"135 403 OFFCURVE",
"100 403 CURVE",
"98 447 OFFCURVE",
"97 490 OFFCURVE",
"97 533 CURVE SMOOTH",
"97 630 OFFCURVE",
"136 678 OFFCURVE",
"171 682 CURVE SMOOTH",
"189 684 OFFCURVE",
"207 675 OFFCURVE",
"223 658 CURVE SMOOTH",
"243 636 OFFCURVE",
"258 602 OFFCURVE",
"267 560 CURVE",
"301 567 LINE",
"289 615 OFFCURVE",
"272 655 OFFCURVE",
"248 680 CURVE",
"225 706 OFFCURVE",
"195 717 OFFCURVE",
"167 714 CURVE SMOOTH",
"138 711 OFFCURVE",
"112 692 OFFCURVE",
"93 661 CURVE SMOOTH",
"74 628 OFFCURVE",
"64 585 OFFCURVE",
"64 533 CURVE SMOOTH",
"64 490 OFFCURVE",
"65 447 OFFCURVE",
"67 404 CURVE",
"50 405 OFFCURVE",
"33 406 OFFCURVE",
"15 407 CURVE"
);
}
);
width = 251;
}
);
unicode = 0066;
},
{
glyphname = g;
layers = (
{
layerId = "B2224B7D-3358-49DE-B033-78E3556D2134";
name = Regular;
paths = (
{
closed = 1;
nodes = (
"40 -288 OFFCURVE",
"2 -264 OFFCURVE",
"-9 -227 CURVE SMOOTH",
"-21 -192 OFFCURVE",
"-3 -156 OFFCURVE",
"38 -132 CURVE",
"54 -160 LINE",
"28 -176 OFFCURVE",
"17 -197 OFFCURVE",
"23 -218 CURVE SMOOTH",
"29 -236 OFFCURVE",
"53 -256 OFFCURVE",
"87 -254 CURVE SMOOTH",
"111 -253 OFFCURVE",
"190 -233 OFFCURVE",
"221 -47 CURVE SMOOTH",
"231 10 OFFCURVE",
"229 60 OFFCURVE",
"225 107 CURVE",
"210 69 OFFCURVE",
"191 32 OFFCURVE",
"167 9 CURVE SMOOTH",
"134 -22 OFFCURVE",
"102 -17 OFFCURVE",
"82 -7 CURVE SMOOTH",
"42 12 OFFCURVE",
"19 49 OFFCURVE",
"13 100 CURVE SMOOTH",
"8 143 OFFCURVE",
"16 194 OFFCURVE",
"36 244 CURVE SMOOTH",
"55 296 OFFCURVE",
"85 342 OFFCURVE",
"118 373 CURVE SMOOTH",
"158 410 OFFCURVE",
"200 424 OFFCURVE",
"239 412 CURVE",
"230 381 LINE",
"167 399 OFFCURVE",
"99 317 OFFCURVE",
"67 231 CURVE SMOOTH",
"36 150 OFFCURVE",
"32 54 OFFCURVE",
"96 24 CURVE SMOOTH",
"111 15 OFFCURVE",
"124 17 OFFCURVE",
"138 28 CURVE SMOOTH",
"167 51 OFFCURVE",
"195 110 OFFCURVE",
"216 197 CURVE",
"213 246 OFFCURVE",
"215 296 OFFCURVE",
"233 353 CURVE SMOOTH",
"236 362 OFFCURVE",
"240 377 OFFCURVE",
"254 377 CURVE SMOOTH",
"261 378 OFFCURVE",
"268 373 OFFCURVE",
"272 366 CURVE SMOOTH",
"273 362 OFFCURVE",
"276 355 OFFCURVE",
"271 307 CURVE SMOOTH",
"267 276 OFFCURVE",
"261 241 OFFCURVE",
"253 207 CURVE SMOOTH",
"252 202 OFFCURVE",
"251 198 OFFCURVE",
"250 194 CURVE",
"251 176 OFFCURVE",
"253 158 OFFCURVE",
"255 141 CURVE SMOOTH",
"260 82 OFFCURVE",
"266 20 OFFCURVE",
"254 -53 CURVE SMOOTH",
"241 -130 OFFCURVE",
"218 -189 OFFCURVE",
"187 -230 CURVE SMOOTH",
"148 -279 OFFCURVE",
"104 -288 OFFCURVE",
"82 -288 CURVE SMOOTH"
);
}
);
width = 307;
}
);
unicode = 0067;
},
{
glyphname = h;
layers = (
{
anchors = (
{
name = top;
position = "{227, 400}";
},
{
name = center;
position = "{227, 200}";
}
);
layerId = "B2224B7D-3358-49DE-B033-78E3556D2134";
name = Regular;
paths = (
{
closed = 1;
nodes = (
"337 -35 CURVE SMOOTH",
"316 -19 OFFCURVE",
"297 -7 OFFCURVE",
"290 42 CURVE SMOOTH",
"280 98 OFFCURVE",
"275 246 OFFCURVE",
"262 307 CURVE SMOOTH",
"253 362 OFFCURVE",
"242 366 OFFCURVE",
"242 366 CURVE SMOOTH",
"216 374 OFFCURVE",
"191 370 OFFCURVE",
"169 357 CURVE SMOOTH",
"137 338 OFFCURVE",
"111 302 OFFCURVE",
"96 267 CURVE",
"96 215 OFFCURVE",
"96 170 OFFCURVE",
"94 130 CURVE SMOOTH",
"89 37 OFFCURVE",
"79 10 OFFCURVE",
"72 0 CURVE SMOOTH",
"66 -9 OFFCURVE",
"56 -12 OFFCURVE",
"49 -9 CURVE SMOOTH",
"35 -4 OFFCURVE",
"35 10 OFFCURVE",
"34 18 CURVE SMOOTH",
"34 41 OFFCURVE",
"37 119 OFFCURVE",
"37 111 CURVE SMOOTH",
"37 112 OFFCURVE",
"45 218 OFFCURVE",
"50 241 CURVE SMOOTH",
"54 251 OFFCURVE",
"57 262 OFFCURVE",
"62 273 CURVE",
"62 297 OFFCURVE",
"60 322 OFFCURVE",
"60 347 CURVE SMOOTH",
"56 496 OFFCURVE",
"44 644 OFFCURVE",
"33 700 CURVE",
"67 706 LINE",
"77 648 OFFCURVE",
"89 500 OFFCURVE",
"95 349 CURVE SMOOTH",
"95 343 OFFCURVE",
"95 339 OFFCURVE",
"95 334 CURVE",
"110 355 OFFCURVE",
"130 374 OFFCURVE",
"152 386 CURVE SMOOTH",
"183 405 OFFCURVE",
"216 409 OFFCURVE",
"250 400 CURVE SMOOTH",
"280 390 OFFCURVE",
"291 349 OFFCURVE",
"297 312 CURVE SMOOTH",
"308 251 OFFCURVE",
"314 114 OFFCURVE",
"323 53 CURVE SMOOTH",
"328 14 OFFCURVE",
"352 -4 OFFCURVE",
"355 -4 CURVE",
"355 -4 OFFCURVE",
"337 -35 OFFCURVE"
);
}
);
width = 377;
}
);
unicode = 0068;
},
{
glyphname = i;
layers = (
{
guideLines = (
{
angle = 0;
position = "{37, 500}";
},
{
angle = 0;
position = "{37, 484}";
}
);
layerId = "B2224B7D-3358-49DE-B033-78E3556D2134";
name = Regular;
paths = (
{
closed = 1;
nodes = (
"102 534 LINE",
"97 516 OFFCURVE",
"95 486 OFFCURVE",
"76 484 CURVE",
"56 481 OFFCURVE",
"57 510 OFFCURVE",
"53 543 CURVE",
"88 548 LINE",
"89 544 OFFCURVE",
"89 540 OFFCURVE",
"89 536 CURVE"
);
},
{
closed = 1;
nodes = (
"91 401 LINE",
"86 320 OFFCURVE",
"85 250 OFFCURVE",
"86 190 CURVE SMOOTH",
"90 55 OFFCURVE",
"106 28 OFFCURVE",
"111 22 CURVE",
"112 24 OFFCURVE",
"116 26 OFFCURVE",
"120 30 CURVE",
"147 7 LINE",
"132 -9 OFFCURVE",
"120 -14 OFFCURVE",
"110 -14 CURVE SMOOTH",
"105 -14 OFFCURVE",
"101 -13 OFFCURVE",
"97 -11 CURVE",
"77 -4 OFFCURVE",
"54 27 OFFCURVE",
"51 184 CURVE SMOOTH",
"49 245 OFFCURVE",
"50 319 OFFCURVE",
"54 401 CURVE"
);
}
);
width = 197;
}
);
unicode = 0069;
},
{
glyphname = j;
layers = (
{
guideLines = (
{
angle = 0;
position = "{-54, 500}";
},
{
angle = 0;
position = "{-54, 484}";
}
);
layerId = "B2224B7D-3358-49DE-B033-78E3556D2134";
name = Regular;
paths = (
{
closed = 1;
nodes = (
"-36 -297 OFFCURVE",
"-43 -295 OFFCURVE",
"-49 -290 CURVE SMOOTH",
"-59 -282 OFFCURVE",
"-75 -263 OFFCURVE",
"-59 -217 CURVE",
"-26 -228 LINE",
"-34 -251 OFFCURVE",
"-29 -261 OFFCURVE",
"-28 -262 CURVE",
"-27 -262 OFFCURVE",
"-20 -263 OFFCURVE",
"-4 -251 CURVE SMOOTH",
"28 -227 OFFCURVE",
"71 -163 OFFCURVE",
"92 -57 CURVE SMOOTH",
"118 70 OFFCURVE",
"108 228 OFFCURVE",
"63 400 CURVE",
"97 409 LINE",
"123 312 OFFCURVE",
"137 219 OFFCURVE",
"142 134 CURVE SMOOTH",
"144 60 OFFCURVE",
"139 -9 OFFCURVE",
"125 -71 CURVE SMOOTH",
"114 -124 OFFCURVE",
"97 -171 OFFCURVE",
"74 -209 CURVE SMOOTH",
"56 -243 OFFCURVE",
"33 -269 OFFCURVE",
"11 -283 CURVE SMOOTH",
"-2 -293 OFFCURVE",
"-15 -297 OFFCURVE",
"-27 -297 CURVE SMOOTH"
);
},
{
closed = 1;
nodes = (
"69 543 OFFCURVE",
"70 541 OFFCURVE",
"71 539 CURVE",
"80 541 LINE",
"82 531 OFFCURVE",
"85 512 OFFCURVE",
"86 503 CURVE SMOOTH",
"86 492 OFFCURVE",
"79 486 OFFCURVE",
"73 486 CURVE SMOOTH",
"66 484 OFFCURVE",
"56 486 OFFCURVE",
"52 494 CURVE SMOOTH",
"52 494 OFFCURVE",
"45 511 OFFCURVE",
"36 530 CURVE",
"46 534 LINE",
"46 534 OFFCURVE",
"45 536 OFFCURVE",
"45 536 CURVE",
"48 537 LINE",
"69 544 LINE"
);
}
);
width = 186;
}
);
unicode = 006A;
},
{
glyphname = k;
layers = (
{
anchors = (
{
name = bottom;
position = "{196, 0}";
}
);
layerId = "B2224B7D-3358-49DE-B033-78E3556D2134";
name = Regular;
paths = (
{
closed = 1;
nodes = (
"305 -39 OFFCURVE",
"312 -20 OFFCURVE",
"316 -8 CURVE",
"312 -8 OFFCURVE",
"307 -5 OFFCURVE",
"305 -3 CURVE",
"295 7 OFFCURVE",
"276 44 OFFCURVE",
"262 70 CURVE SMOOTH",
"228 137 OFFCURVE",
"182 227 OFFCURVE",
"111 266 CURVE",
"113 269 OFFCURVE",
"151 294 OFFCURVE",
"169 307 CURVE SMOOTH",
"229 347 OFFCURVE",
"271 375 OFFCURVE",
"282 401 CURVE",
"249 415 LINE",
"247 411 OFFCURVE",
"240 401 OFFCURVE",
"215 381 CURVE",
"196 367 OFFCURVE",
"172 351 OFFCURVE",
"150 337 CURVE SMOOTH",
"120 317 OFFCURVE",
"98 303 OFFCURVE",
"85 291 CURVE",
"81 363 OFFCURVE",
"76 435 OFFCURVE",
"71 505 CURVE SMOOTH",
"67 581 OFFCURVE",
"61 624 OFFCURVE",
"58 702 CURVE",
"22 700 LINE",
"25 623 OFFCURVE",
"31 579 OFFCURVE",
"35 502 CURVE SMOOTH",
"48 338 OFFCURVE",
"59 167 OFFCURVE",
"49 0 CURVE",
"84 -2 LINE",
"90 78 OFFCURVE",
"90 158 OFFCURVE",
"87 238 CURVE",
"152 207 OFFCURVE",
"197 118 OFFCURVE",
"230 54 CURVE SMOOTH",
"258 -2 OFFCURVE",
"277 -39 OFFCURVE",
"305 -39 CURVE"
);
}
);
width = 338;
}
);
unicode = 006B;
},
{
glyphname = l;
layers = (
{
anchors = (
{
name = top;
position = "{96, 400}";
},
{
name = bottom;
position = "{96, 0}";
},
{
name = topright;
position = "{172, 400}";
}
);
layerId = "B2224B7D-3358-49DE-B033-78E3556D2134";
name = Regular;
paths = (
{
closed = 1;
nodes = (
"83 -16 OFFCURVE",
"74 5 OFFCURVE",
"68 32 CURVE SMOOTH",
"56 94 OFFCURVE",
"61 223 OFFCURVE",
"65 334 CURVE SMOOTH",
"67 417 OFFCURVE",
"70 501 OFFCURVE",
"68 568 CURVE SMOOTH",
"66 610 OFFCURVE",
"62 670 OFFCURVE",
"50 680 CURVE",
"49 679 OFFCURVE",
"41 675 OFFCURVE",
"27 655 CURVE",
"0 673 LINE",
"15 694 OFFCURVE",
"36 720 OFFCURVE",
"60 712 CURVE SMOOTH",
"86 704 OFFCURVE",
"98 665 OFFCURVE",
"101 576 CURVE SMOOTH",
"103 507 OFFCURVE",
"99 418 OFFCURVE",
"97 333 CURVE SMOOTH",
"93 227 OFFCURVE",
"89 111 OFFCURVE",
"98 47 CURVE SMOOTH",
"100 31 OFFCURVE",
"104 23 OFFCURVE",
"106 19 CURVE",
"109 22 OFFCURVE",
"118 32 OFFCURVE",
"131 55 CURVE",
"159 39 LINE",
"144 13 OFFCURVE",
"127 -13 OFFCURVE",
"106 -14 CURVE SMOOTH"
);
}
);
width = 192;
}
);
unicode = 006C;
},
{
glyphname = m;
layers = (
{
layerId = "B2224B7D-3358-49DE-B033-78E3556D2134";
name = Regular;
paths = (
{
closed = 1;
nodes = (
"513 -2 OFFCURVE",
"502 -19 OFFCURVE",
"480 -19 CURVE SMOOTH",
"452 -16 OFFCURVE",
"445 32 OFFCURVE",
"439 72 CURVE SMOOTH",
"431 118 OFFCURVE",
"424 175 OFFCURVE",
"419 231 CURVE SMOOTH",
"415 269 OFFCURVE",
"412 305 OFFCURVE",
"408 334 CURVE SMOOTH",
"404 363 OFFCURVE",
"403 380 OFFCURVE",
"399 381 CURVE",
"387 383 OFFCURVE",
"376 380 OFFCURVE",
"365 373 CURVE SMOOTH",
"338 356 OFFCURVE",
"314 315 OFFCURVE",
"294 255 CURVE SMOOTH",
"281 216 OFFCURVE",
"263 132 OFFCURVE",
"262 129 CURVE SMOOTH",
"259 120 OFFCURVE",
"251 114 OFFCURVE",
"244 115 CURVE SMOOTH",
"237 117 OFFCURVE",
"230 123 OFFCURVE",
"231 134 CURVE SMOOTH",
"231 134 OFFCURVE",
"237 212 OFFCURVE",
"237 230 CURVE SMOOTH",
"237 268 OFFCURVE",
"234 328 OFFCURVE",
"229 346 CURVE SMOOTH",
"219 376 OFFCURVE",
"210 377 OFFCURVE",
"210 377 CURVE",
"210 377 OFFCURVE",
"201 378 OFFCURVE",
"181 348 CURVE SMOOTH",
"163 318 OFFCURVE",
"143 270 OFFCURVE",
"126 215 CURVE",
"124 171 OFFCURVE",
"117 76 OFFCURVE",
"111 38 CURVE SMOOTH",
"107 -4 OFFCURVE",
"104 -15 OFFCURVE",
"85 -15 CURVE SMOOTH",
"66 -12 OFFCURVE",
"60 8 OFFCURVE",
"60 38 CURVE SMOOTH",
"60 79 OFFCURVE",
"73 151 OFFCURVE",
"94 220 CURVE",
"94 232 OFFCURVE",
"95 240 OFFCURVE",
"95 243 CURVE SMOOTH",
"95 244 LINE SMOOTH",
"95 267 OFFCURVE",
"96 294 OFFCURVE",
"93 316 CURVE SMOOTH",
"90 348 OFFCURVE",
"82 355 OFFCURVE",
"78 356 CURVE SMOOTH",
"71 360 OFFCURVE",
"56 353 OFFCURVE",
"36 338 CURVE",
"16 363 LINE",
"48 388 OFFCURVE",
"72 395 OFFCURVE",
"93 385 CURVE SMOOTH",
"115 374 OFFCURVE",
"124 345 OFFCURVE",
"127 311 CURVE",
"134 329 OFFCURVE",
"141 343 OFFCURVE",
"148 356 CURVE SMOOTH",
"167 389 OFFCURVE",
"185 407 OFFCURVE",
"205 410 CURVE SMOOTH",
"213 411 OFFCURVE",
"226 410 OFFCURVE",
"239 396 CURVE SMOOTH",
"261 371 OFFCURVE",
"266 322 OFFCURVE",
"268 280 CURVE",
"290 341 OFFCURVE",
"317 381 OFFCURVE",
"346 400 CURVE SMOOTH",
"368 414 OFFCURVE",
"389 417 OFFCURVE",
"412 412 CURVE SMOOTH",
"432 406 OFFCURVE",
"436 370 OFFCURVE",
"439 347 CURVE SMOOTH",
"448 294 OFFCURVE",
"458 159 OFFCURVE",
"468 88 CURVE SMOOTH",
"474 49 OFFCURVE",
"478 30 OFFCURVE",
"481 19 CURVE",
"484 12 OFFCURVE",
"490 33 OFFCURVE",
"494 46 CURVE",
"525 35 LINE"
);
}
);
width = 547;
}
);
unicode = 006D;
},
{
glyphname = n;
layers = (
{
anchors = (
{
name = top;
position = "{129, 400}";
},
{
name = bottom;
position = "{129, 0}";
}
);
layerId = "B2224B7D-3358-49DE-B033-78E3556D2134";
name = Regular;
paths = (
{
closed = 1;
nodes = (
"244 -8 OFFCURVE",
"237 6 OFFCURVE",
"233 31 CURVE SMOOTH",
"230 48 OFFCURVE",
"229 71 OFFCURVE",
"229 100 CURVE SMOOTH",
"229 150 OFFCURVE",
"234 204 OFFCURVE",
"236 233 CURVE SMOOTH",
"237 239 OFFCURVE",
"237 243 OFFCURVE",
"237 247 CURVE SMOOTH",
"240 293 OFFCURVE",
"238 328 OFFCURVE",
"230 352 CURVE SMOOTH",
"224 369 OFFCURVE",
"216 378 OFFCURVE",
"205 380 CURVE SMOOTH",
"187 383 OFFCURVE",
"161 365 OFFCURVE",
"135 334 CURVE SMOOTH",
"107 299 OFFCURVE",
"85 251 OFFCURVE",
"75 204 CURVE SMOOTH",
"73 196 OFFCURVE",
"70 178 OFFCURVE",
"67 159 CURVE",
"62 84 OFFCURVE",
"54 16 OFFCURVE",
"50 6 CURVE SMOOTH",
"47 -4 OFFCURVE",
"39 -7 OFFCURVE",
"32 -6 CURVE SMOOTH",
"26 -5 OFFCURVE",
"20 0 OFFCURVE",
"19 10 CURVE SMOOTH",
"19 10 OFFCURVE",
"19 12 OFFCURVE",
"19 14 CURVE SMOOTH",
"19 18 OFFCURVE",
"19 23 OFFCURVE",
"20 29 CURVE SMOOTH",
"21 44 OFFCURVE",
"22 65 OFFCURVE",
"25 91 CURVE SMOOTH",
"25 95 OFFCURVE",
"30 131 OFFCURVE",
"36 163 CURVE",
"37 175 OFFCURVE",
"37 189 OFFCURVE",
"38 202 CURVE SMOOTH",
"42 365 OFFCURVE",
"17 378 OFFCURVE",
"16 379 CURVE",
"16 379 OFFCURVE",
"41 399 OFFCURVE",
"41 399 CURVE",
"53 385 OFFCURVE",
"65 356 OFFCURVE",
"69 284 CURVE",
"80 309 OFFCURVE",
"94 333 OFFCURVE",
"112 354 CURVE SMOOTH",
"127 373 OFFCURVE",
"143 388 OFFCURVE",
"158 397 CURVE SMOOTH",
"176 409 OFFCURVE",
"194 413 OFFCURVE",
"210 412 CURVE SMOOTH",
"225 409 OFFCURVE",
"247 398 OFFCURVE",
"259 362 CURVE SMOOTH",
"269 334 OFFCURVE",
"272 295 OFFCURVE",
"268 244 CURVE SMOOTH",
"268 241 OFFCURVE",
"267 236 OFFCURVE",
"267 231 CURVE SMOOTH",
"265 204 OFFCURVE",
"260 153 OFFCURVE",
"260 106 CURVE SMOOTH",
"259 28 OFFCURVE",
"269 15 OFFCURVE",
"270 14 CURVE",
"270 14 OFFCURVE",
"270 14 OFFCURVE",
"269 15 CURVE",
"257 -14 LINE"
);
}
);
width = 320;
}
);
unicode = 006E;
},
{
glyphname = o;
layers = (
{
layerId = "B2224B7D-3358-49DE-B033-78E3556D2134";
name = Regular;
paths = (
{
closed = 1;
nodes = (
"72 -12 OFFCURVE",
"59 -7 OFFCURVE",
"48 4 CURVE SMOOTH",
"9 44 OFFCURVE",
"14 150 OFFCURVE",
"20 209 CURVE SMOOTH",
"26 260 OFFCURVE",
"38 318 OFFCURVE",
"52 360 CURVE",
"38 372 LINE",
"54 390 OFFCURVE",
"70 402 OFFCURVE",
"86 408 CURVE SMOOTH",
"102 415 OFFCURVE",
"118 416 OFFCURVE",
"133 412 CURVE SMOOTH",
"172 400 OFFCURVE",
"200 353 OFFCURVE",
"212 282 CURVE SMOOTH",
"228 184 OFFCURVE",
"210 59 OFFCURVE",
"141 10 CURVE SMOOTH",
"118 -8 OFFCURVE",
"102 -12 OFFCURVE",
"86 -12 CURVE SMOOTH"
);
},
{
closed = 1;
nodes = (
"80 352 OFFCURVE",
"62 285 OFFCURVE",
"53 205 CURVE SMOOTH",
"44 116 OFFCURVE",
"51 48 OFFCURVE",
"71 26 CURVE SMOOTH",
"75 22 OFFCURVE",
"87 10 OFFCURVE",
"123 35 CURVE SMOOTH",
"149 55 OFFCURVE",
"168 89 OFFCURVE",
"178 136 CURVE SMOOTH",
"187 180 OFFCURVE",
"188 231 OFFCURVE",
"180 277 CURVE SMOOTH",
"171 333 OFFCURVE",
"150 374 OFFCURVE",
"124 381 CURVE SMOOTH",
"114 384 OFFCURVE",
"104 382 OFFCURVE",
"94 376 CURVE"
);
}
);
width = 250;
}
);
unicode = 006F;
},
{
glyphname = p;
layers = (
{
layerId = "B2224B7D-3358-49DE-B033-78E3556D2134";
name = Regular;
paths = (
{
closed = 1;
nodes = (
"44 -325 OFFCURVE",
"45 -285 OFFCURVE",
"46 -251 CURVE SMOOTH",
"45 -215 OFFCURVE",
"46 -167 OFFCURVE",
"46 -110 CURVE SMOOTH",
"45 54 OFFCURVE",
"46 280 OFFCURVE",
"33 343 CURVE",
"64 350 LINE",
"68 329 OFFCURVE",
"71 295 OFFCURVE",
"73 252 CURVE",
"81 286 OFFCURVE",
"94 319 OFFCURVE",
"110 347 CURVE SMOOTH",
"122 369 OFFCURVE",
"136 387 OFFCURVE",
"150 400 CURVE SMOOTH",
"165 415 OFFCURVE",
"182 421 OFFCURVE",
"197 421 CURVE SMOOTH",
"213 419 OFFCURVE",
"235 409 OFFCURVE",
"247 365 CURVE SMOOTH",
"256 332 OFFCURVE",
"259 283 OFFCURVE",
"255 220 CURVE SMOOTH",
"252 184 OFFCURVE",
"233 135 OFFCURVE",
"203 88 CURVE SMOOTH",
"173 41 OFFCURVE",
"140 7 OFFCURVE",
"113 -6 CURVE SMOOTH",
"104 -10 OFFCURVE",
"97 -12 OFFCURVE",
"91 -11 CURVE",
"90 -14 OFFCURVE",
"92 -207 OFFCURVE",
"87 -270 CURVE SMOOTH",
"83 -295 OFFCURVE",
"85 -322 OFFCURVE",
"66 -323 CURVE SMOOTH"
);
},
{
closed = 1;
nodes = (
"92 20 OFFCURVE",
"96 21 OFFCURVE",
"99 23 CURVE SMOOTH",
"120 33 OFFCURVE",
"150 65 OFFCURVE",
"175 105 CURVE SMOOTH",
"203 147 OFFCURVE",
"220 191 OFFCURVE",
"222 222 CURVE SMOOTH",
"226 281 OFFCURVE",
"224 327 OFFCURVE",
"217 356 CURVE SMOOTH",
"211 377 OFFCURVE",
"203 388 OFFCURVE",
"195 388 CURVE SMOOTH",
"183 389 OFFCURVE",
"160 372 OFFCURVE",
"137 331 CURVE SMOOTH",
"114 289 OFFCURVE",
"98 233 OFFCURVE",
"93 181 CURVE SMOOTH",
"90 146 OFFCURVE",
"91 86 OFFCURVE",
"90 21 CURVE"
);
}
);
width = 301;
}
);
unicode = 0070;
},
{
glyphname = q;
layers = (
{
layerId = "B2224B7D-3358-49DE-B033-78E3556D2134";
name = Regular;
paths = (
{
closed = 1;
nodes = (
"192 -284 OFFCURVE",
"181 -227 OFFCURVE",
"176 -171 CURVE SMOOTH",
"171 -127 OFFCURVE",
"171 -72 OFFCURVE",
"173 -8 CURVE SMOOTH",
"175 48 OFFCURVE",
"180 104 OFFCURVE",
"185 155 CURVE",
"177 134 OFFCURVE",
"165 113 OFFCURVE",
"155 92 CURVE SMOOTH",
"139 62 OFFCURVE",
"124 38 OFFCURVE",
"110 21 CURVE SMOOTH",
"90 -3 OFFCURVE",
"73 -13 OFFCURVE",
"56 -12 CURVE SMOOTH",
"46 -11 OFFCURVE",
"31 -4 OFFCURVE",
"23 22 CURVE SMOOTH",
"17 38 OFFCURVE",
"14 63 OFFCURVE",
"13 96 CURVE SMOOTH",
"12 133 OFFCURVE",
"16 196 OFFCURVE",
"28 252 CURVE SMOOTH",
"45 328 OFFCURVE",
"72 378 OFFCURVE",
"107 399 CURVE SMOOTH",
"135 416 OFFCURVE",
"167 415 OFFCURVE",
"204 394 CURVE",
"187 365 LINE",
"162 380 OFFCURVE",
"142 382 OFFCURVE",
"123 371 CURVE SMOOTH",
"64 335 OFFCURVE",
"44 175 OFFCURVE",
"46 97 CURVE SMOOTH",
"47 32 OFFCURVE",
"58 22 OFFCURVE",
"60 21 CURVE",
"61 21 OFFCURVE",
"69 23 OFFCURVE",
"85 43 CURVE SMOOTH",
"97 58 OFFCURVE",
"112 81 OFFCURVE",
"126 109 CURVE SMOOTH",
"153 159 OFFCURVE",
"176 217 OFFCURVE",
"182 242 CURVE SMOOTH",
"196 303 OFFCURVE",
"200 354 OFFCURVE",
"225 350 CURVE SMOOTH",
"242 348 OFFCURVE",
"239 330 OFFCURVE",
"239 318 CURVE SMOOTH",
"238 310 OFFCURVE",
"235 296 OFFCURVE",
"233 281 CURVE SMOOTH",
"225 218 OFFCURVE",
"211 102 OFFCURVE",
"206 -9 CURVE SMOOTH",
"200 -143 OFFCURVE",
"211 -251 OFFCURVE",
"237 -295 CURVE",
"209 -312 LINE"
);
}
);
width = 272;
}
);
unicode = 0071;
},
{
glyphname = r;
layers = (
{
layerId = "B2224B7D-3358-49DE-B033-78E3556D2134";
name = Regular;
paths = (
{
closed = 1;
nodes = (
"28 404 LINE",
"18 316 OFFCURVE",
"22 230 OFFCURVE",
"26 142 CURVE SMOOTH",
"29 94 OFFCURVE",
"31 47 OFFCURVE",
"31 0 CURVE",
"66 0 LINE",
"66 48 OFFCURVE",
"65 95 OFFCURVE",
"61 144 CURVE SMOOTH",
"60 187 OFFCURVE",
"58 230 OFFCURVE",
"57 275 CURVE",
"57 318 OFFCURVE",
"86 342 OFFCURVE",
"111 346 CURVE",
"128 351 OFFCURVE",
"156 352 OFFCURVE",
"175 332 CURVE SMOOTH",
"187 319 OFFCURVE",
"194 296 OFFCURVE",
"196 271 CURVE",
"228 271 LINE",
"228 305 OFFCURVE",
"210 345 OFFCURVE",
"191 362 CURVE SMOOTH",
"164 386 OFFCURVE",
"129 389 OFFCURVE",
"104 383 CURVE SMOOTH",
"90 379 OFFCURVE",
"74 371 OFFCURVE",
"59 355 CURVE",
"60 372 OFFCURVE",
"61 384 OFFCURVE",
"63 400 CURVE"
);
}
);
width = 250;
}
);
unicode = 0072;
},
{
glyphname = s;
layers = (
{
layerId = "B2224B7D-3358-49DE-B033-78E3556D2134";
name = Regular;
paths = (
{
closed = 1;
nodes = (
"108 -14 OFFCURVE",
"88 -8 OFFCURVE",
"70 3 CURVE SMOOTH",
"42 21 OFFCURVE",
"28 47 OFFCURVE",
"29 74 CURVE",
"62 73 LINE",
"61 57 OFFCURVE",
"72 42 OFFCURVE",
"88 32 CURVE SMOOTH",
"109 18 OFFCURVE",
"134 15 OFFCURVE",
"151 25 CURVE SMOOTH",
"172 35 OFFCURVE",
"182 58 OFFCURVE",
"184 94 CURVE SMOOTH",
"186 150 OFFCURVE",
"142 174 OFFCURVE",
"96 196 CURVE SMOOTH",
"75 207 OFFCURVE",
"53 219 OFFCURVE",
"37 234 CURVE SMOOTH",
"18 252 OFFCURVE",
"10 276 OFFCURVE",
"14 301 CURVE SMOOTH",
"20 331 OFFCURVE",
"29 355 OFFCURVE",
"43 376 CURVE SMOOTH",
"59 396 OFFCURVE",
"78 409 OFFCURVE",
"97 413 CURVE SMOOTH",
"119 419 OFFCURVE",
"159 418 OFFCURVE",
"196 360 CURVE",
"169 343 LINE",
"148 373 OFFCURVE",
"127 386 OFFCURVE",
"105 382 CURVE SMOOTH",
"92 380 OFFCURVE",
"81 370 OFFCURVE",
"71 356 CURVE SMOOTH",
"59 341 OFFCURVE",
"51 320 OFFCURVE",
"47 295 CURVE SMOOTH",
"42 264 OFFCURVE",
"68 249 OFFCURVE",
"112 227 CURVE SMOOTH",
"160 201 OFFCURVE",
"221 170 OFFCURVE",
"218 92 CURVE SMOOTH",
"214 32 OFFCURVE",
"188 5 OFFCURVE",
"168 -5 CURVE SMOOTH",
"155 -11 OFFCURVE",
"141 -14 OFFCURVE",
"128 -14 CURVE SMOOTH"
);
}
);
width = 251;
}
);
unicode = 0073;
},
{
glyphname = t;
layers = (
{
anchors = (
{
name = center;
position = "{101, 200}";
}
);
layerId = "B2224B7D-3358-49DE-B033-78E3556D2134";
name = Regular;
paths = (
{
closed = 1;
nodes = (
"151 381 OFFCURVE",
"133 379 OFFCURVE",
"115 378 CURVE SMOOTH",
"112 378 OFFCURVE",
"108 378 OFFCURVE",
"104 377 CURVE",
"104 369 OFFCURVE",
"104 361 OFFCURVE",
"104 353 CURVE SMOOTH",
"103 287 OFFCURVE",
"101 152 OFFCURVE",
"103 105 CURVE SMOOTH",
"105 53 OFFCURVE",
"115 27 OFFCURVE",
"129 11 CURVE",
"111 -12 LINE",
"75 0 OFFCURVE",
"67 115 OFFCURVE",
"70 354 CURVE SMOOTH",
"70 361 OFFCURVE",
"71 368 OFFCURVE",
"71 375 CURVE",
"55 375 OFFCURVE",
"39 374 OFFCURVE",
"22 374 CURVE SMOOTH",
"15 374 OFFCURVE",
"6 374 OFFCURVE",
"0 374 CURVE",
"0 407 LINE",
"24 406 OFFCURVE",
"48 407 OFFCURVE",
"72 408 CURVE",
"73 458 OFFCURVE",
"73 545 OFFCURVE",
"72 588 CURVE SMOOTH",
"69 651 OFFCURVE",
"66 683 OFFCURVE",
"57 700 CURVE",
"86 716 LINE",
"101 674 OFFCURVE",
"107 535 OFFCURVE",
"105 410 CURVE",
"107 411 OFFCURVE",
"110 411 OFFCURVE",
"112 411 CURVE SMOOTH",
"131 412 OFFCURVE",
"149 414 OFFCURVE",
"169 414 CURVE",
"169 381 LINE"
);
}
);
width = 202;
}
);
unicode = 0074;
},
{
glyphname = u;
layers = (
{
layerId = "B2224B7D-3358-49DE-B033-78E3556D2134";
name = Regular;
paths = (
{
closed = 1;
nodes = (
"125 -12 OFFCURVE",
"92 1 OFFCURVE",
"68 41 CURVE SMOOTH",
"54 65 OFFCURVE",
"44 97 OFFCURVE",
"39 137 CURVE SMOOTH",
"29 207 OFFCURVE",
"34 289 OFFCURVE",
"37 348 CURVE SMOOTH",
"38 369 OFFCURVE",
"39 388 OFFCURVE",
"39 400 CURVE",
"73 400 LINE",
"73 387 OFFCURVE",
"72 368 OFFCURVE",
"71 347 CURVE SMOOTH",
"68 289 OFFCURVE",
"64 208 OFFCURVE",
"73 141 CURVE SMOOTH",
"83 67 OFFCURVE",
"106 26 OFFCURVE",
"193 22 CURVE SMOOTH",
"265 19 OFFCURVE",
"246 150 OFFCURVE",
"235 259 CURVE SMOOTH",
"226 345 OFFCURVE",
"224 403 OFFCURVE",
"255 393 CURVE SMOOTH",
"277 388 OFFCURVE",
"290 212 OFFCURVE",
"290 192 CURVE SMOOTH",
"295 134 OFFCURVE",
"300 77 OFFCURVE",
"327 25 CURVE",
"296 11 LINE",
"287 30 OFFCURVE",
"280 50 OFFCURVE",
"274 70 CURVE",
"269 40 OFFCURVE",
"260 19 OFFCURVE",
"246 4 CURVE SMOOTH",
"234 -7 OFFCURVE",
"219 -12 OFFCURVE",
"202 -12 CURVE SMOOTH"
);
}
);
width = 359;
}
);
unicode = 0075;
},
{
glyphname = v;
layers = (
{
layerId = "B2224B7D-3358-49DE-B033-78E3556D2134";
name = Regular;
paths = (
{
closed = 1;
nodes = (
"138 -13 OFFCURVE",
"137 -13 OFFCURVE",
"137 -13 CURVE SMOOTH",
"123 -13 OFFCURVE",
"117 0 OFFCURVE",
"114 13 CURVE SMOOTH",
"101 60 OFFCURVE",
"77 206 OFFCURVE",
"11 400 CURVE",
"43 411 LINE",
"100 243 OFFCURVE",
"124 127 OFFCURVE",
"138 64 CURVE SMOOTH",
"138 61 OFFCURVE",
"139 58 OFFCURVE",
"139 56 CURVE",
"140 59 OFFCURVE",
"141 63 OFFCURVE",
"143 68 CURVE SMOOTH",
"160 129 OFFCURVE",
"193 245 OFFCURVE",
"259 410 CURVE",
"291 397 LINE",
"218 217 OFFCURVE",
"176 65 OFFCURVE",
"162 12 CURVE SMOOTH",
"158 3 OFFCURVE",
"153 -13 OFFCURVE",
"138 -13 CURVE SMOOTH"
);
}
);
width = 324;
}
);
unicode = 0076;
},
{
glyphname = w;
layers = (
{
layerId = "B2224B7D-3358-49DE-B033-78E3556D2134";
name = Regular;
paths = (
{
closed = 1;
nodes = (
"304 -22 OFFCURVE",
"286 3 OFFCURVE",
"268 37 CURVE SMOOTH",
"254 66 OFFCURVE",
"241 105 OFFCURVE",
"230 139 CURVE SMOOTH",
"209 201 OFFCURVE",
"200 241 OFFCURVE",
"180 184 CURVE SMOOTH",
"174 167 OFFCURVE",
"169 145 OFFCURVE",
"165 126 CURVE SMOOTH",
"159 107 OFFCURVE",
"154 65 OFFCURVE",
"132 65 CURVE SMOOTH",
"113 65 OFFCURVE",
"107 84 OFFCURVE",
"101 105 CURVE SMOOTH",
"89 145 OFFCURVE",
"75 185 OFFCURVE",
"60 224 CURVE SMOOTH",
"52 247 OFFCURVE",
"27 318 OFFCURVE",
"24 326 CURVE SMOOTH",
"14 355 OFFCURVE",
"1 403 OFFCURVE",
"0 406 CURVE",
"31 414 LINE",
"40 384 OFFCURVE",
"39 381 OFFCURVE",
"55 337 CURVE SMOOTH",
"59 321 OFFCURVE",
"78 270 OFFCURVE",
"90 235 CURVE SMOOTH",
"104 197 OFFCURVE",
"118 159 OFFCURVE",
"130 119 CURVE",
"133 134 OFFCURVE",
"147 226 OFFCURVE",
"184 241 CURVE SMOOTH",
"192 244 OFFCURVE",
"205 246 OFFCURVE",
"220 237 CURVE SMOOTH",
"234 228 OFFCURVE",
"243 202 OFFCURVE",
"260 149 CURVE SMOOTH",
"271 116 OFFCURVE",
"284 79 OFFCURVE",
"297 52 CURVE SMOOTH",
"310 25 OFFCURVE",
"320 18 OFFCURVE",
"324 19 CURVE",
"325 20 OFFCURVE",
"333 28 OFFCURVE",
"342 64 CURVE SMOOTH",
"349 90 OFFCURVE",
"356 124 OFFCURVE",
"362 167 CURVE SMOOTH",
"373 245 OFFCURVE",
"380 330 OFFCURVE",
"384 376 CURVE SMOOTH",
"385 389 OFFCURVE",
"385 399 OFFCURVE",
"386 404 CURVE",
"418 401 LINE",
"417 396 OFFCURVE",
"417 386 OFFCURVE",
"415 374 CURVE SMOOTH",
"412 326 OFFCURVE",
"404 236 OFFCURVE",
"392 156 CURVE SMOOTH",
"372 18 OFFCURVE",
"352 -6 OFFCURVE",
"333 -12 CURVE SMOOTH"
);
}
);
width = 462;
}
);
unicode = 0077;
},
{
glyphname = x;
layers = (
{
layerId = "B2224B7D-3358-49DE-B033-78E3556D2134";
name = Regular;
paths = (
{
closed = 1;
nodes = (
"219 419 LINE",
"187 369 OFFCURVE",
"154 316 OFFCURVE",
"124 260 CURVE",
"106 307 OFFCURVE",
"87 355 OFFCURVE",
"72 404 CURVE",
"37 393 LINE",
"56 333 OFFCURVE",
"79 275 OFFCURVE",
"102 218 CURVE",
"68 149 OFFCURVE",
"39 76 OFFCURVE",
"22 0 CURVE",
"57 -8 LINE",
"71 54 OFFCURVE",
"93 115 OFFCURVE",
"121 173 CURVE",
"144 112 OFFCURVE",
"167 50 OFFCURVE",
"187 -11 CURVE",
"221 0 LINE",
"199 69 OFFCURVE",
"171 140 OFFCURVE",
"144 207 CURVE SMOOTH",
"143 209 OFFCURVE",
"142 212 OFFCURVE",
"141 214 CURVE",
"175 280 OFFCURVE",
"214 343 OFFCURVE",
"251 400 CURVE"
);
}
);
width = 284;
}
);
unicode = 0078;
},
{
glyphname = y;
layers = (
{
layerId = "B2224B7D-3358-49DE-B033-78E3556D2134";
name = Regular;
paths = (
{
closed = 1;
nodes = (
"74 -284 OFFCURVE",
"60 -283 OFFCURVE",
"48 -274 CURVE SMOOTH",
"32 -260 OFFCURVE",
"30 -232 OFFCURVE",
"42 -189 CURVE",
"73 -198 LINE",
"61 -241 OFFCURVE",
"69 -250 OFFCURVE",
"69 -250 CURVE SMOOTH",
"70 -250 OFFCURVE",
"73 -251 OFFCURVE",
"79 -248 CURVE SMOOTH",
"95 -242 OFFCURVE",
"123 -220 OFFCURVE",
"150 -178 CURVE SMOOTH",
"177 -135 OFFCURVE",
"195 -85 OFFCURVE",
"199 -38 CURVE SMOOTH",
"201 -13 OFFCURVE",
"201 25 OFFCURVE",
"200 68 CURVE",
"190 24 OFFCURVE",
"176 -2 OFFCURVE",
"157 -11 CURVE SMOOTH",
"149 -15 OFFCURVE",
"132 -19 OFFCURVE",
"112 -4 CURVE SMOOTH",
"82 20 OFFCURVE",
"52 85 OFFCURVE",
"33 171 CURVE SMOOTH",
"13 261 OFFCURVE",
"10 352 OFFCURVE",
"25 421 CURVE",
"56 414 LINE",
"43 350 OFFCURVE",
"46 263 OFFCURVE",
"65 177 CURVE SMOOTH",
"84 91 OFFCURVE",
"112 36 OFFCURVE",
"132 21 CURVE SMOOTH",
"145 12 OFFCURVE",
"160 23 OFFCURVE",
"172 89 CURVE SMOOTH",
"182 142 OFFCURVE",
"187 218 OFFCURVE",
"187 315 CURVE SMOOTH",
"187 340 OFFCURVE",
"203 341 OFFCURVE",
"212 331 CURVE SMOOTH",
"223 319 OFFCURVE",
"222 291 OFFCURVE",
"223 275 CURVE SMOOTH",
"224 257 OFFCURVE",
"227 220 OFFCURVE",
"229 173 CURVE SMOOTH",
"232 102 OFFCURVE",
"235 8 OFFCURVE",
"231 -41 CURVE SMOOTH",
"221 -158 OFFCURVE",
"142 -258 OFFCURVE",
"91 -278 CURVE SMOOTH"
);
}
);
width = 277;
}
);
unicode = 0079;
},
{
glyphname = z;
layers = (
{
layerId = "B2224B7D-3358-49DE-B033-78E3556D2134";
name = Regular;
paths = (
{
closed = 1;
nodes = (
"257 218 LINE",
"244 217 OFFCURVE",
"231 216 OFFCURVE",
"217 214 CURVE",
"216 214 OFFCURVE",
"215 214 OFFCURVE",
"213 214 CURVE",
"240 241 OFFCURVE",
"265 268 OFFCURVE",
"286 291 CURVE SMOOTH",
"337 345 OFFCURVE",
"346 365 OFFCURVE",
"345 378 CURVE",
"345 384 OFFCURVE",
"342 391 OFFCURVE",
"337 394 CURVE",
"292 427 OFFCURVE",
"187 411 OFFCURVE",
"75 391 CURVE SMOOTH",
"54 387 OFFCURVE",
"37 383 OFFCURVE",
"25 381 CURVE",
"29 349 LINE",
"42 350 OFFCURVE",
"61 355 OFFCURVE",
"81 358 CURVE SMOOTH",
"121 365 OFFCURVE",
"172 374 OFFCURVE",
"218 378 CURVE SMOOTH",
"270 382 OFFCURVE",
"295 377 OFFCURVE",
"310 372 CURVE",
"305 364 OFFCURVE",
"292 345 OFFCURVE",
"258 308 CURVE SMOOTH",
"230 278 OFFCURVE",
"197 243 OFFCURVE",
"163 209 CURVE",
"142 207 OFFCURVE",
"122 206 OFFCURVE",
"101 204 CURVE",
"104 171 LINE",
"112 172 OFFCURVE",
"119 172 OFFCURVE",
"127 173 CURVE",
"79 124 OFFCURVE",
"39 83 OFFCURVE",
"27 63 CURVE",
"12 41 OFFCURVE",
"15 24 OFFCURVE",
"21 15 CURVE SMOOTH",
"41 -16 OFFCURVE",
"105 -11 OFFCURVE",
"135 -11 CURVE",
"184 -9 OFFCURVE",
"243 -1 OFFCURVE",
"294 7 CURVE",
"336 12 OFFCURVE",
"372 17 OFFCURVE",
"390 17 CURVE",
"390 50 LINE",
"370 50 OFFCURVE",
"332 45 OFFCURVE",
"290 38 CURVE",
"239 32 OFFCURVE",
"181 24 OFFCURVE",
"133 22 CURVE SMOOTH",
"61 19 OFFCURVE",
"50 31 OFFCURVE",
"49 32 CURVE",
"49 33 OFFCURVE",
"49 37 OFFCURVE",
"54 46 CURVE",
"67 65 OFFCURVE",
"117 116 OFFCURVE",
"170 169 CURVE SMOOTH",
"173 172 OFFCURVE",
"175 174 OFFCURVE",
"178 177 CURVE",
"192 179 OFFCURVE",
"206 180 OFFCURVE",
"220 182 CURVE",
"234 183 OFFCURVE",
"247 184 OFFCURVE",
"260 185 CURVE"
);
}
);
width = 422;
}
);
unicode = 007A;
},
{
glyphname = fi;
layers = (
{
layerId = "B2224B7D-3358-49DE-B033-78E3556D2134";
name = Regular;
paths = (
{
closed = 1;
nodes = (
"11 364 LINE",
"23 364 OFFCURVE",
"34 364 OFFCURVE",
"44 364 CURVE",
"44 364 OFFCURVE",
"44 364 OFFCURVE",
"44 364 CURVE SMOOTH",
"58 241 OFFCURVE",
"71 124 OFFCURVE",
"58 -1 CURVE",
"93 -5 LINE",
"106 124 OFFCURVE",
"93 241 OFFCURVE",
"79 366 CURVE",
"110 367 OFFCURVE",
"135 370 OFFCURVE",
"155 372 CURVE SMOOTH",
"183 375 OFFCURVE",
"210 377 OFFCURVE",
"215 373 CURVE",
"222 365 OFFCURVE",
"219 326 OFFCURVE",
"215 275 CURVE SMOOTH",
"211 214 OFFCURVE",
"204 121 OFFCURVE",
"204 -15 CURVE",
"238 -15 LINE",
"238 120 OFFCURVE",
"246 212 OFFCURVE",
"250 272 CURVE SMOOTH",
"256 348 OFFCURVE",
"259 379 OFFCURVE",
"240 398 CURVE SMOOTH",
"223 414 OFFCURVE",
"197 411 OFFCURVE",
"152 406 CURVE SMOOTH",
"131 404 OFFCURVE",
"106 402 OFFCURVE",
"76 400 CURVE",
"70 458 OFFCURVE",
"79 661 OFFCURVE",
"156 677 CURVE SMOOTH",
"181 682 OFFCURVE",
"209 643 OFFCURVE",
"233 571 CURVE",
"231 572 OFFCURVE",
"228 572 OFFCURVE",
"227 572 CURVE",
"208 542 LINE",
"216 537 OFFCURVE",
"250 530 OFFCURVE",
"265 540 CURVE",
"271 546 OFFCURVE",
"275 554 OFFCURVE",
"272 562 CURVE",
"240 671 OFFCURVE",
"199 721 OFFCURVE",
"149 711 CURVE SMOOTH",
"43 691 OFFCURVE",
"34 464 OFFCURVE",
"41 398 CURVE",
"31 398 OFFCURVE",
"21 398 OFFCURVE",
"11 398 CURVE"
);
}
);
width = 306;
}
);
unicode = FB01;
},
{
glyphname = fl;
layers = (
{
layerId = "B2224B7D-3358-49DE-B033-78E3556D2134";
name = Regular;
paths = (
{
closed = 1;
nodes = (
"324 609 LINE",
"289 687 OFFCURVE",
"252 720 OFFCURVE",
"211 712 CURVE SMOOTH",
"131 696 OFFCURVE",
"85 513 OFFCURVE",
"78 426 CURVE",
"55 426 OFFCURVE",
"56 426 OFFCURVE",
"16 428 CURVE",
"16 392 LINE",
"33 392 LINE",
"60 392 OFFCURVE",
"68 392 OFFCURVE",
"77 392 CURVE",
"76 327 OFFCURVE",
"85 264 OFFCURVE",
"94 201 CURVE SMOOTH",
"104 135 OFFCURVE",
"114 67 OFFCURVE",
"112 0 CURVE",
"147 -2 LINE",
"149 70 OFFCURVE",
"139 139 OFFCURVE",
"130 207 CURVE SMOOTH",
"120 268 OFFCURVE",
"111 330 OFFCURVE",
"112 393 CURVE",
"143 395 OFFCURVE",
"174 398 OFFCURVE",
"206 405 CURVE",
"198 439 LINE",
"170 432 OFFCURVE",
"142 429 OFFCURVE",
"113 427 CURVE",
"122 523 OFFCURVE",
"169 668 OFFCURVE",
"218 678 CURVE SMOOTH",
"239 682 OFFCURVE",
"266 653 OFFCURVE",
"293 595 CURVE"
);
},
{
closed = 1;
nodes = (
"360 22 LINE",
"353 19 OFFCURVE",
"341 13 OFFCURVE",
"336 17 CURVE",
"306 36 OFFCURVE",
"323 184 OFFCURVE",
"333 281 CURVE SMOOTH",
"350 425 OFFCURVE",
"358 508 OFFCURVE",
"325 534 CURVE",
"316 542 OFFCURVE",
"303 544 OFFCURVE",
"289 540 CURVE",
"300 506 LINE",
"303 507 OFFCURVE",
"303 507 OFFCURVE",
"303 507 CURVE",
"323 495 OFFCURVE",
"307 364 OFFCURVE",
"299 285 CURVE SMOOTH",
"280 120 OFFCURVE",
"272 17 OFFCURVE",
"316 -12 CURVE",
"323 -18 OFFCURVE",
"331 -20 OFFCURVE",
"340 -20 CURVE SMOOTH",
"352 -20 OFFCURVE",
"364 -15 OFFCURVE",
"378 -8 CURVE"
);
}
);
width = 411;
}
);
unicode = FB02;
},
{
glyphname = T_h;
layers = (
{
anchors = (
{
name = bottom;
position = "{423, 0}";
},
{
name = center;
position = "{423, 200}";
}
);
layerId = "B2224B7D-3358-49DE-B033-78E3556D2134";
name = Regular;
paths = (
{
closed = 1;
nodes = (
"606 10 LINE",
"589 20 OFFCURVE",
"587 127 OFFCURVE",
"586 185 CURVE SMOOTH",
"584 283 OFFCURVE",
"581 344 OFFCURVE",
"560 368 CURVE SMOOTH",
"534 398 OFFCURVE",
"500 407 OFFCURVE",
"464 392 CURVE",
"430 376 OFFCURVE",
"398 328 OFFCURVE",
"374 280 CURVE",
"374 283 OFFCURVE",
"374 284 OFFCURVE",
"374 286 CURVE",
"376.485 354.962 OFFCURVE",
"379.742 471.785 OFFCURVE",
"378.975 567.887 CURVE",
"387.674 567.96 OFFCURVE",
"466 568 OFFCURVE",
"475 568 CURVE",
"475 602 LINE",
"466 602 OFFCURVE",
"387.304 601.959 OFFCURVE",
"378.509 601.886 CURVE",
"377.622 645.836 OFFCURVE",
"375.639 682.865 OFFCURVE",
"372 705 CURVE",
"339 700 LINE",
"342.15 678.998 OFFCURVE",
"343.922 644.282 OFFCURVE",
"344.659 601.46 CURVE",
"321.335 601.077 OFFCURVE",
"298.168 600.539 OFFCURVE",
"275 600 CURVE SMOOTH",
"191 597 OFFCURVE",
"103 595 OFFCURVE",
"18 602 CURVE",
"16 568 LINE",
"59 564 OFFCURVE",
"103 563 OFFCURVE",
"146 563 CURVE SMOOTH",
"159.513 563 OFFCURVE",
"173.224 563.099 OFFCURVE",
"186.977 563.296 CURVE",
"186.652 506.688 OFFCURVE",
"182.826 448.132 OFFCURVE",
"179 385 CURVE SMOOTH",
"170 252 OFFCURVE",
"161 113 OFFCURVE",
"187 -8 CURVE",
"221 0 LINE",
"195 116 OFFCURVE",
"204 252 OFFCURVE",
"212 383 CURVE SMOOTH",
"216.805 446.432 OFFCURVE",
"220.686 506.168 OFFCURVE",
"220.981 563.986 CURVE",
"239.608 564.475 OFFCURVE",
"258.077 565.146 OFFCURVE",
"276 566 CURVE SMOOTH",
"298.586 566.538 OFFCURVE",
"321.75 567.075 OFFCURVE",
"345.026 567.457 CURVE",
"345.628 448.431 OFFCURVE",
"340.039 285.727 OFFCURVE",
"334 173 CURVE",
"320 116 OFFCURVE",
"316 53.9998 OFFCURVE",
"322 -1 CURVE",
"334 -16 LINE",
"351 -14 LINE",
"355 -10 OFFCURVE",
"361 -6 OFFCURVE",
"369 170 CURVE",
"392 258 OFFCURVE",
"436 340 OFFCURVE",
"479 360 CURVE SMOOTH",
"500 370 OFFCURVE",
"518 365 OFFCURVE",
"535 345 CURVE SMOOTH",
"548 330 OFFCURVE",
"551 245 OFFCURVE",
"552 184 CURVE SMOOTH",
"554 75.9998 OFFCURVE",
"558 8.99982 OFFCURVE",
"584 -15 CURVE",
"589 -21 OFFCURVE",
"597 -24 OFFCURVE",
"605 -24 CURVE SMOOTH",
"606 -24 OFFCURVE",
"608 -24 OFFCURVE",
"608 -24 CURVE"
);
}
);
width = 641;
}
);
},
{
glyphname = f_b;
layers = (
{
layerId = "B2224B7D-3358-49DE-B033-78E3556D2134";
name = Regular;
paths = (
{
closed = 1;
nodes = (
"313 594 LINE",
"313 674 OFFCURVE",
"270 708 OFFCURVE",
"230 713 CURVE SMOOTH",
"183 719 OFFCURVE",
"123 686 OFFCURVE",
"104 611 CURVE SMOOTH",
"84.9375 536.868 OFFCURVE",
"79.3338 465.54 OFFCURVE",
"79.9133 394.641 CURVE",
"58.9955 392.266 OFFCURVE",
"38.1309 391 OFFCURVE",
"16 391 CURVE",
"16 358 LINE",
"38.6385 358 OFFCURVE",
"59.7275 359.162 OFFCURVE",
"80.6126 361.347 CURVE",
"82.3239 309.512 OFFCURVE",
"86.737 257.706 OFFCURVE",
"91 205 CURVE SMOOTH",
"97 138 OFFCURVE",
"103 70 OFFCURVE",
"103 0 CURVE",
"136 0 LINE",
"136 71 OFFCURVE",
"130 140 OFFCURVE",
"124 208 CURVE SMOOTH",
"119.201 261.192 OFFCURVE",
"114.562 313.423 OFFCURVE",
"112.961 365.527 CURVE",
"139.608 369.586 OFFCURVE",
"167.042 375.171 OFFCURVE",
"198 382 CURVE",
"191 415 LINE",
"162.477 408.517 OFFCURVE",
"136.943 403.156 OFFCURVE",
"112.378 399.157 CURVE",
"112.173 466.099 OFFCURVE",
"118.01 533.125 OFFCURVE",
"136 602 CURVE SMOOTH",
"150 658 OFFCURVE",
"194 685 OFFCURVE",
"227 680 CURVE SMOOTH",
"260 676 OFFCURVE",
"280 643 OFFCURVE",
"280 594 CURVE"
);
},
{
closed = 1;
nodes = (
"305 266 LINE",
"303 353 OFFCURVE",
"304 454 OFFCURVE",
"307 530 CURVE",
"274 530 LINE",
"271 455 OFFCURVE",
"270 353 OFFCURVE",
"272 266 CURVE SMOOTH",
"279 95.9999 OFFCURVE",
"281 67.9999 OFFCURVE",
"283 41.9999 CURVE",
"283 24.9999 LINE SMOOTH",
"283 2.99994 OFFCURVE",
"282 -10 OFFCURVE",
"297 -12 CURVE",
"298 -12 OFFCURVE",
"299 -12 OFFCURVE",
"300 -12 CURVE SMOOTH",
"304 -12 OFFCURVE",
"313 -11 OFFCURVE",
"317 0.999939 CURVE",
"319 4.99994 OFFCURVE",
"320 9.99994 OFFCURVE",
"321 13.9999 CURVE",
"330 0.999939 OFFCURVE",
"342 -4 OFFCURVE",
"352 -6 CURVE SMOOTH",
"408 -17 OFFCURVE",
"479 61.9999 OFFCURVE",
"499 158 CURVE SMOOTH",
"520 260 OFFCURVE",
"484 364 OFFCURVE",
"422 378 CURVE SMOOTH",
"398 384 OFFCURVE",
"344 381 OFFCURVE",
"305 261 CURVE"
);
},
{
closed = 1;
nodes = (
"322 154 LINE",
"321 175 OFFCURVE",
"322 195 OFFCURVE",
"326 213 CURVE SMOOTH",
"352 322 OFFCURVE",
"389 352 OFFCURVE",
"414 347 CURVE SMOOTH",
"450 339 OFFCURVE",
"487 263 OFFCURVE",
"467 165 CURVE SMOOTH",
"448 76.9999 OFFCURVE",
"388 19.9999 OFFCURVE",
"359 25.9999 CURVE SMOOTH",
"341 29.9999 OFFCURVE",
"327 64.9999 OFFCURVE",
"344 150 CURVE"
);
}
);
width = 538;
}
);
},
{
glyphname = f_f;
layers = (
{
layerId = "B2224B7D-3358-49DE-B033-78E3556D2134";
name = Regular;
paths = (
{
closed = 1;
nodes = (
"381 523 LINE",
"375 649 OFFCURVE",
"321 659 OFFCURVE",
"303 659 CURVE SMOOTH",
"294 659 OFFCURVE",
"285 656 OFFCURVE",
"276 652 CURVE",
"258 703 OFFCURVE",
"224 714 OFFCURVE",
"207 715 CURVE SMOOTH",
"159 720 OFFCURVE",
"106 676 OFFCURVE",
"94 617 CURVE SMOOTH",
"79 548 OFFCURVE",
"75 471 OFFCURVE",
"77 394 CURVE",
"57 394 OFFCURVE",
"37 395 OFFCURVE",
"18 396 CURVE",
"16 364 LINE",
"36 363 OFFCURVE",
"57 362 OFFCURVE",
"78 361 CURVE",
"82 282 OFFCURVE",
"91 202 OFFCURVE",
"100 126 CURVE SMOOTH",
"106 81 OFFCURVE",
"111 37 OFFCURVE",
"115 -6 CURVE",
"147 -3 LINE",
"143 40 OFFCURVE",
"137 84 OFFCURVE",
"132 130 CURVE SMOOTH",
"123 204 OFFCURVE",
"114 283 OFFCURVE",
"110 361 CURVE",
"143 361 OFFCURVE",
"176 362 OFFCURVE",
"209 363 CURVE",
"212 224 OFFCURVE",
"222 68 OFFCURVE",
"239 -7 CURVE",
"270 0 LINE",
"254 73 OFFCURVE",
"243 226 OFFCURVE",
"241 364 CURVE",
"270 364 OFFCURVE",
"298 365 OFFCURVE",
"325 365 CURVE",
"325 397 LINE",
"297 397 OFFCURVE",
"269 396 OFFCURVE",
"240 396 CURVE",
"240 437 OFFCURVE",
"240 476 OFFCURVE",
"241 510 CURVE SMOOTH",
"242 539 OFFCURVE",
"248 563 OFFCURVE",
"257 581 CURVE",
"257 578 OFFCURVE",
"257 575 OFFCURVE",
"257 572 CURVE",
"289 572 LINE",
"289 590 OFFCURVE",
"287 606 OFFCURVE",
"285 619 CURVE",
"291 624 OFFCURVE",
"297 627 OFFCURVE",
"303 627 CURVE",
"324 627 OFFCURVE",
"346 594 OFFCURVE",
"349 521 CURVE"
);
},
{
closed = 1;
nodes = (
"208 476 OFFCURVE",
"208 437 OFFCURVE",
"208 395 CURVE",
"175 394 OFFCURVE",
"142 394 OFFCURVE",
"109 394 CURVE",
"107 469 OFFCURVE",
"110 544 OFFCURVE",
"125 611 CURVE SMOOTH",
"133 652 OFFCURVE",
"171 686 OFFCURVE",
"204 683 CURVE SMOOTH",
"225 681 OFFCURVE",
"241 662 OFFCURVE",
"250 630 CURVE",
"228 605 OFFCURVE",
"211 564 OFFCURVE",
"209 511 CURVE SMOOTH"
);
}
);
width = 414;
}
);
},
{
glyphname = f_f_b;
layers = (
{
layerId = "B2224B7D-3358-49DE-B033-78E3556D2134";
name = Regular;
paths = (
{
closed = 1;
nodes = (
"399 600 LINE",
"388 669 OFFCURVE",
"360 710 OFFCURVE",
"321 711 CURVE SMOOTH",
"290.658 711.706 OFFCURVE",
"264.3 688.014 OFFCURVE",
"246.141 646.952 CURVE",
"235.004 679.108 OFFCURVE",
"217.387 701.124 OFFCURVE",
"195 711 CURVE SMOOTH",
"174 720 OFFCURVE",
"150 717 OFFCURVE",
"129 701 CURVE SMOOTH",
"92 673 OFFCURVE",
"58 602 OFFCURVE",
"74 487 CURVE SMOOTH",
"78.7221 448.549 OFFCURVE",
"81.7376 406.229 OFFCURVE",
"83.5839 362.037 CURVE",
"59.8094 360.18 OFFCURVE",
"36.9491 357.291 OFFCURVE",
"16 353 CURVE",
"22 324 LINE",
"41.5259 327.661 OFFCURVE",
"62.6604 330.19 OFFCURVE",
"84.6617 331.849 CURVE",
"87.0022 253.703 OFFCURVE",
"86.1732 171.255 OFFCURVE",
"85 95 CURVE SMOOTH",
"85 62 OFFCURVE",
"85 30 OFFCURVE",
"85 0 CURVE",
"116 0 LINE",
"116 30 OFFCURVE",
"116 62 OFFCURVE",
"116 95 CURVE SMOOTH",
"117.172 171.776 OFFCURVE",
"118 254.736 OFFCURVE",
"115.466 333.611 CURVE",
"146.881 334.88 OFFCURVE",
"179.309 334.705 OFFCURVE",
"210.769 333.786 CURVE",
"211.959 282.609 OFFCURVE",
"214.98 231.591 OFFCURVE",
"218 181 CURVE SMOOTH",
"221 118 OFFCURVE",
"225 53 OFFCURVE",
"225 -11 CURVE",
"256 -11 LINE",
"256 54 OFFCURVE",
"252 119 OFFCURVE",
"248 183 CURVE SMOOTH",
"245.362 232.36 OFFCURVE",
"242.441 282.43 OFFCURVE",
"241.161 332.674 CURVE",
"258.767 331.909 OFFCURVE",
"275.838 330.974 OFFCURVE",
"292 330 CURVE",
"297 330 LINE",
"297 361 LINE",
"293 361 LINE",
"276.665 361.807 OFFCURVE",
"259.029 362.654 OFFCURVE",
"240.6 363.353 CURVE",
"239.829 436.307 OFFCURVE",
"243.336 509.401 OFFCURVE",
"257 581 CURVE SMOOTH",
"271 650 OFFCURVE",
"300 681 OFFCURVE",
"320 681 CURVE SMOOTH",
"337 681 OFFCURVE",
"360 658 OFFCURVE",
"369 595 CURVE"
);
},
{
closed = 1;
nodes = (
"112.32 408.712 OFFCURVE",
"109.076 451.745 OFFCURVE",
"104 491 CURVE SMOOTH",
"91 588 OFFCURVE",
"117 654 OFFCURVE",
"147 677 CURVE SMOOTH",
"156 684 OFFCURVE",
"169 689 OFFCURVE",
"183 684 CURVE",
"205 673 OFFCURVE",
"222 637 OFFCURVE",
"228 587 CURVE",
"213.767 513.1 OFFCURVE",
"209.723 438.601 OFFCURVE",
"210.29 364.323 CURVE",
"178.947 365.119 OFFCURVE",
"146.21 365.246 OFFCURVE",
"114.312 363.875 CURVE"
);
},
{
closed = 1;
nodes = (
"384 240 LINE",
"382 315 OFFCURVE",
"392 465 OFFCURVE",
"395 538 CURVE",
"365 538 LINE",
"361 466 OFFCURVE",
"351 315 OFFCURVE",
"353 239 CURVE",
"354 228 LINE",
"355 193 OFFCURVE",
"356 157 OFFCURVE",
"358 121 CURVE",
"358 110 OFFCURVE",
"359 99 OFFCURVE",
"360 88 CURVE",
"360 59 LINE",
"362 50 OFFCURVE",
"363 40 OFFCURVE",
"363 29 CURVE",
"364 26 OFFCURVE",
"363 20 OFFCURVE",
"363 15 CURVE SMOOTH",
"363 -7 OFFCURVE",
"363 -18 OFFCURVE",
"377 -20 CURVE",
"377 -20 OFFCURVE",
"378 -20 OFFCURVE",
"379 -20 CURVE SMOOTH",
"384 -20 OFFCURVE",
"392 -19 OFFCURVE",
"396 -8 CURVE",
"397 -4 OFFCURVE",
"397 0 OFFCURVE",
"398 5 CURVE",
"408 -7 OFFCURVE",
"419 -13 OFFCURVE",
"428 -15 CURVE SMOOTH",
"480 -25 OFFCURVE",
"545 48 OFFCURVE",
"564 138 CURVE SMOOTH",
"585 233 OFFCURVE",
"551 331 OFFCURVE",
"492 345 CURVE",
"471 349 OFFCURVE",
"420 347 OFFCURVE",
"385 234 CURVE"
);
},
{
closed = 1;
nodes = (
"399 135 LINE",
"398 154 OFFCURVE",
"399 172 OFFCURVE",
"404 190 CURVE",
"427 290 OFFCURVE",
"463 320 OFFCURVE",
"486 314 CURVE",
"518 307 OFFCURVE",
"554 236 OFFCURVE",
"535 145 CURVE SMOOTH",
"517 63 OFFCURVE",
"461 10 OFFCURVE",
"433 16 CURVE",
"418 18 OFFCURVE",
"404 51 OFFCURVE",
"420 131 CURVE"
);
}
);
width = 603;
}
);
},
{
glyphname = f_f_h;
layers = (
{
layerId = "B2224B7D-3358-49DE-B033-78E3556D2134";
name = Regular;
paths = (
{
closed = 1;
nodes = (
"16 338 LINE",
"33.206 341.226 OFFCURVE",
"52.0774 343.573 OFFCURVE",
"71.9274 345.221 CURVE",
"75.1072 263.07 OFFCURVE",
"74.2485 175.528 OFFCURVE",
"73 95 CURVE SMOOTH",
"73 61 OFFCURVE",
"73 29 OFFCURVE",
"73 0 CURVE",
"103 0 LINE",
"103 29 OFFCURVE",
"103 61 OFFCURVE",
"103 94 CURVE SMOOTH",
"104.249 175.823 OFFCURVE",
"105.108 264.277 OFFCURVE",
"102.166 347.18 CURVE",
"139.052 348.959 OFFCURVE",
"177.972 348.79 OFFCURVE",
"215.015 347.692 CURVE",
"215.347 290.57 OFFCURVE",
"218.087 233.765 OFFCURVE",
"221 178 CURVE SMOOTH",
"223 118 OFFCURVE",
"227 55 OFFCURVE",
"227 -5 CURVE",
"257 -5 LINE",
"257 56 OFFCURVE",
"254 118 OFFCURVE",
"251 179 CURVE SMOOTH",
"248.508 234.237 OFFCURVE",
"245.844 290.336 OFFCURVE",
"245.443 346.582 CURVE",
"262.814 345.834 OFFCURVE",
"279.484 344.935 OFFCURVE",
"295 344 CURVE",
"300 344 LINE",
"300 375 LINE",
"297 375 LINE",
"281.127 375.774 OFFCURVE",
"263.754 376.586 OFFCURVE",
"245.463 377.268 CURVE",
"246.079 446.262 OFFCURVE",
"250.761 515.279 OFFCURVE",
"264 583 CURVE SMOOTH",
"277 653 OFFCURVE",
"315 684 OFFCURVE",
"346 684 CURVE SMOOTH",
"375 684 OFFCURVE",
"398 657 OFFCURVE",
"410 614 CURVE",
"402 619 OFFCURVE",
"396 622 OFFCURVE",
"390 624 CURVE SMOOTH",
"384 626 OFFCURVE",
"379 625 OFFCURVE",
"374 621 CURVE SMOOTH",
"363 612 OFFCURVE",
"363 597 OFFCURVE",
"377 464 CURVE SMOOTH",
"385 385 OFFCURVE",
"394 296 OFFCURVE",
"391 253 CURVE SMOOTH",
"390 241 OFFCURVE",
"389 227 OFFCURVE",
"388 211 CURVE",
"379 182 OFFCURVE",
"374 150 OFFCURVE",
"370 117 CURVE SMOOTH",
"367 87.9999 OFFCURVE",
"366 61.9999 OFFCURVE",
"367 39.9999 CURVE SMOOTH",
"368 6.99994 OFFCURVE",
"374 -3 OFFCURVE",
"379 -8 CURVE SMOOTH",
"384 -13 OFFCURVE",
"389 -14 OFFCURVE",
"392 -14 CURVE SMOOTH",
"395 -14 OFFCURVE",
"397 -14 OFFCURVE",
"399 -13 CURVE SMOOTH",
"411 -7 OFFCURVE",
"411 5.99994 OFFCURVE",
"410 20.9999 CURVE",
"410 21 OFFCURVE",
"414 162 OFFCURVE",
"417 207 CURVE",
"428 245 OFFCURVE",
"441 279 OFFCURVE",
"457 304 CURVE SMOOTH",
"477 337 OFFCURVE",
"500 352 OFFCURVE",
"525 349 CURVE SMOOTH",
"532 348 OFFCURVE",
"539 334 OFFCURVE",
"542 299 CURVE SMOOTH",
"546 264 OFFCURVE",
"543 218 OFFCURVE",
"541 174 CURVE SMOOTH",
"537 87.9999 OFFCURVE",
"536 33.9999 OFFCURVE",
"556 12.9999 CURVE",
"561 5.99994 OFFCURVE",
"569 3.99994 OFFCURVE",
"577 3.99994 CURVE",
"577 33.9999 LINE",
"577 33.9999 OFFCURVE",
"578 33.9999 OFFCURVE",
"578 33.9999 CURVE SMOOTH",
"578 33.9999 OFFCURVE",
"570 39.9999 OFFCURVE",
"569 76.9999 CURVE",
"569 104 OFFCURVE",
"569 138 OFFCURVE",
"571 173 CURVE SMOOTH",
"573 218 OFFCURVE",
"576 265 OFFCURVE",
"572 302 CURVE SMOOTH",
"570 323 OFFCURVE",
"568 339 OFFCURVE",
"562 351 CURVE",
"553 372 OFFCURVE",
"539 377 OFFCURVE",
"529 378 CURVE SMOOTH",
"499 382 OFFCURVE",
"457 372 OFFCURVE",
"421 302 CURVE",
"419 350 OFFCURVE",
"413 411 OFFCURVE",
"407 467 CURVE SMOOTH",
"402 509 OFFCURVE",
"397 561 OFFCURVE",
"396 587 CURVE",
"397 587 OFFCURVE",
"397 586 OFFCURVE",
"398 586 CURVE",
"413 576 OFFCURVE",
"425 569 OFFCURVE",
"437 576 CURVE",
"440 578 OFFCURVE",
"446 584 OFFCURVE",
"445 596 CURVE",
"438 632 OFFCURVE",
"426 662 OFFCURVE",
"409 683 CURVE",
"391 703 OFFCURVE",
"370 714 OFFCURVE",
"346 714 CURVE",
"322 715 OFFCURVE",
"297 703 OFFCURVE",
"277 680 CURVE",
"261.194 663.441 OFFCURVE",
"248.787 641.217 OFFCURVE",
"240.632 615.033 CURVE",
"230.833 662.753 OFFCURVE",
"210.688 695.343 OFFCURVE",
"182 708 CURVE SMOOTH",
"161 717 OFFCURVE",
"137 713 OFFCURVE",
"117 698 CURVE SMOOTH",
"95 682 OFFCURVE",
"79 654 OFFCURVE",
"69 619 CURVE SMOOTH",
"58 580 OFFCURVE",
"55 534 OFFCURVE",
"61 485 CURVE SMOOTH",
"65.4827 450.931 OFFCURVE",
"68.5364 413.915 OFFCURVE",
"70.5615 375.313 CURVE",
"49.323 373.456 OFFCURVE",
"29.1785 370.769 OFFCURVE",
"11 367 CURVE"
);
},
{
closed = 1;
nodes = (
"233.601 585.897 LINE",
"220.648 517.253 OFFCURVE",
"215.801 447.605 OFFCURVE",
"215.079 378.235 CURVE",
"177.886 379.196 OFFCURVE",
"138.404 379.325 OFFCURVE",
"100.906 377.394 CURVE",
"99.0278 416.32 OFFCURVE",
"96.1837 453.634 OFFCURVE",
"92 488 CURVE SMOOTH",
"85 534 OFFCURVE",
"88 576 OFFCURVE",
"97 610 CURVE SMOOTH",
"105 639 OFFCURVE",
"119 662 OFFCURVE",
"135 674 CURVE",
"144 680 OFFCURVE",
"157 686 OFFCURVE",
"170 680 CURVE SMOOTH",
"193 670 OFFCURVE",
"210 634 OFFCURVE",
"214 584 CURVE"
);
}
);
width = 644;
}
);
},
{
glyphname = f_f_i;
layers = (
{
layerId = "B2224B7D-3358-49DE-B033-78E3556D2134";
name = Regular;
paths = (
{
closed = 1;
nodes = (
"11 341 LINE",
"20.1465 341.074 OFFCURVE",
"29.0552 341.198 OFFCURVE",
"37.7324 341.367 CURVE",
"40.6356 297.399 OFFCURVE",
"44 253.145 OFFCURVE",
"44 209 CURVE SMOOTH",
"44 136 OFFCURVE",
"46 67 OFFCURVE",
"46 0 CURVE",
"77 0 LINE",
"77 69 OFFCURVE",
"75 143 OFFCURVE",
"75 214 CURVE SMOOTH",
"75 256.98 OFFCURVE",
"71.7707 299.852 OFFCURVE",
"68.9145 342.192 CURVE",
"118.927 343.872 OFFCURVE",
"160.429 347.022 OFFCURVE",
"194.865 350.489 CURVE",
"193.208 295.995 OFFCURVE",
"194 242.497 OFFCURVE",
"194 189 CURVE SMOOTH",
"194 125 OFFCURVE",
"199 58 OFFCURVE",
"199 -8 CURVE",
"230 -8 LINE",
"230 61 OFFCURVE",
"225 129 OFFCURVE",
"225 195 CURVE SMOOTH",
"225 247.468 OFFCURVE",
"224.181 300.345 OFFCURVE",
"225.949 353.894 CURVE",
"240.869 355.657 OFFCURVE",
"254.16 357.406 OFFCURVE",
"266 359 CURVE SMOOTH",
"305 363 OFFCURVE",
"334 367 OFFCURVE",
"341 361 CURVE SMOOTH",
"347 356 OFFCURVE",
"346 329 OFFCURVE",
"345 295 CURVE SMOOTH",
"343 238 OFFCURVE",
"339 142 OFFCURVE",
"358 -9 CURVE",
"390 -6 LINE",
"371 144 OFFCURVE",
"374 238 OFFCURVE",
"376 294 CURVE SMOOTH",
"378 343 OFFCURVE",
"379 369 OFFCURVE",
"362 384 CURVE SMOOTH",
"345 400 OFFCURVE",
"319 397 OFFCURVE",
"262 389 CURVE SMOOTH",
"251.556 387.795 OFFCURVE",
"240.023 386.429 OFFCURVE",
"227.288 385.006 CURVE",
"228.358 404.901 OFFCURVE",
"229.871 424.895 OFFCURVE",
"232 445 CURVE SMOOTH",
"236 487 OFFCURVE",
"251 529 OFFCURVE",
"271 560 CURVE SMOOTH",
"289 588 OFFCURVE",
"310 604 OFFCURVE",
"326 604 CURVE SMOOTH",
"344 604 OFFCURVE",
"366 575 OFFCURVE",
"372 496 CURVE",
"372 496 OFFCURVE",
"372 496 OFFCURVE",
"373 496 CURVE",
"373 495 OFFCURVE",
"373 495 OFFCURVE",
"373 495 CURVE",
"354 470 LINE",
"365 461 OFFCURVE",
"381 463 OFFCURVE",
"391 469 CURVE SMOOTH",
"399 474 OFFCURVE",
"405 482 OFFCURVE",
"404 491 CURVE",
"401 537 OFFCURVE",
"392 573 OFFCURVE",
"380 596 CURVE SMOOTH",
"363 628 OFFCURVE",
"341 636 OFFCURVE",
"326 636 CURVE SMOOTH",
"326 636 OFFCURVE",
"325 636 OFFCURVE",
"325 636 CURVE SMOOTH",
"305.816 636 OFFCURVE",
"286.397 625.673 OFFCURVE",
"268.754 608.074 CURVE",
"267.06 622.728 OFFCURVE",
"263.061 637.145 OFFCURVE",
"257 651 CURVE SMOOTH",
"244 680 OFFCURVE",
"221 702 OFFCURVE",
"196 711 CURVE",
"170 718 OFFCURVE",
"143 714 OFFCURVE",
"119 696 CURVE SMOOTH",
"95 678 OFFCURVE",
"74 647 OFFCURVE",
"58 603 CURVE SMOOTH",
"31.3119 528.866 OFFCURVE",
"31.3554 451.215 OFFCURVE",
"35.8101 372.342 CURVE",
"27.7411 372.186 OFFCURVE",
"19.4728 372.071 OFFCURVE",
"11 372 CURVE"
);
},
{
closed = 1;
nodes = (
"198.742 425.673 OFFCURVE",
"197.177 403.597 OFFCURVE",
"196.098 381.71 CURVE",
"160.989 378.238 OFFCURVE",
"118.459 374.905 OFFCURVE",
"66.938 373.166 CURVE",
"62.5051 449.004 OFFCURVE",
"62.1509 522.777 OFFCURVE",
"87 592 CURVE SMOOTH",
"101 630 OFFCURVE",
"119 656 OFFCURVE",
"138 671 CURVE",
"154 682 OFFCURVE",
"170 686 OFFCURVE",
"186 680 CURVE",
"220.367 669.199 OFFCURVE",
"248.949 617.903 OFFCURVE",
"234.824 561.142 CURVE",
"217.638 529.159 OFFCURVE",
"205.162 489.619 OFFCURVE",
"201 448 CURVE SMOOTH"
);
}
);
width = 437;
}
);
},
{
glyphname = f_f_j;
layers = (
{
layerId = "B2224B7D-3358-49DE-B033-78E3556D2134";
name = Regular;
paths = (
{
closed = 1;
nodes = (
"399 525 LINE",
"411 504 OFFCURVE",
"427 502 OFFCURVE",
"439 506 CURVE",
"452 512 OFFCURVE",
"461 528 OFFCURVE",
"457 543 CURVE SMOOTH",
"444 598 OFFCURVE",
"429 641 OFFCURVE",
"414 668 CURVE",
"396 696 OFFCURVE",
"377 710 OFFCURVE",
"355 710 CURVE SMOOTH",
"326 709 OFFCURVE",
"299 683 OFFCURVE",
"274 632 CURVE SMOOTH",
"268.267 620.216 OFFCURVE",
"262.737 607.113 OFFCURVE",
"257.637 593.338 CURVE",
"249.945 628.672 OFFCURVE",
"236.424 651.56 OFFCURVE",
"218 662 CURVE",
"200 671 OFFCURVE",
"180 670 OFFCURVE",
"161 657 CURVE SMOOTH",
"135 640 OFFCURVE",
"92 605 OFFCURVE",
"76 561 CURVE",
"57 514 OFFCURVE",
"50 460 OFFCURVE",
"54 410 CURVE SMOOTH",
"54.3265 402.818 OFFCURVE",
"54.76 395.636 OFFCURVE",
"55.2648 388.489 CURVE",
"43.2026 390.698 OFFCURVE",
"31.7074 393.506 OFFCURVE",
"21 397 CURVE",
"11 367 LINE",
"22.7703 363.162 OFFCURVE",
"39.124 359.979 OFFCURVE",
"57.8322 357.45 CURVE",
"58.2165 353.267 OFFCURVE",
"58.6082 349.114 OFFCURVE",
"59 345 CURVE SMOOTH",
"71 230 OFFCURVE",
"80 121 OFFCURVE",
"65 -3 CURVE",
"97 -7 LINE",
"112 120 OFFCURVE",
"102 231 OFFCURVE",
"91 348 CURVE SMOOTH",
"90.8143 349.95 OFFCURVE",
"90.6286 351.908 OFFCURVE",
"90.443 353.874 CURVE",
"139.064 349.609 OFFCURVE",
"193.966 348.983 OFFCURVE",
"225.957 351.996 CURVE",
"229.333 290.897 OFFCURVE",
"238.666 229.846 OFFCURVE",
"248 170 CURVE SMOOTH",
"257 113 OFFCURVE",
"266 56 OFFCURVE",
"270 0 CURVE",
"300 1.99995 LINE",
"297 59 OFFCURVE",
"288 118 OFFCURVE",
"279 175 CURVE SMOOTH",
"270.067 234.182 OFFCURVE",
"260.822 294.922 OFFCURVE",
"257.531 355.306 CURVE",
"290.809 360.054 OFFCURVE",
"320.747 368.113 OFFCURVE",
"346 375 CURVE",
"366 379 OFFCURVE",
"383 383 OFFCURVE",
"396 385 CURVE SMOOTH",
"412 387 OFFCURVE",
"417 385 OFFCURVE",
"418 384 CURVE",
"419 384 OFFCURVE",
"419 384 OFFCURVE",
"419 381 CURVE",
"460 173 OFFCURVE",
"455 30 OFFCURVE",
"444 -54 CURVE SMOOTH",
"432 -152 OFFCURVE",
"405 -210 OFFCURVE",
"384 -226 CURVE",
"379 -229 OFFCURVE",
"377 -228 OFFCURVE",
"376 -228 CURVE",
"369 -223 OFFCURVE",
"351 -188 OFFCURVE",
"367 -87 CURVE",
"335 -84 LINE",
"328 -128 OFFCURVE",
"327 -165 OFFCURVE",
"331 -195 CURVE SMOOTH",
"335 -225 OFFCURVE",
"345 -245 OFFCURVE",
"360 -255 CURVE",
"366 -257 OFFCURVE",
"371 -259 OFFCURVE",
"378 -259 CURVE SMOOTH",
"386 -259 OFFCURVE",
"394 -256 OFFCURVE",
"402 -252 CURVE",
"436 -229 OFFCURVE",
"464 -156 OFFCURVE",
"476 -58 CURVE SMOOTH",
"487 28 OFFCURVE",
"492 175 OFFCURVE",
"451 387 CURVE SMOOTH",
"448 401 OFFCURVE",
"441 407 OFFCURVE",
"435 411 CURVE SMOOTH",
"415 425 OFFCURVE",
"384 417 OFFCURVE",
"338 405 CURVE SMOOTH",
"317.996 400.076 OFFCURVE",
"289.28 394.489 OFFCURVE",
"256.339 390.017 CURVE",
"255.874 426.075 OFFCURVE",
"257.978 461.873 OFFCURVE",
"264 497 CURVE SMOOTH",
"271 537 OFFCURVE",
"286 583 OFFCURVE",
"303 618 CURVE SMOOTH",
"321 655 OFFCURVE",
"341 677 OFFCURVE",
"356 678 CURVE",
"368 678 OFFCURVE",
"379 664 OFFCURVE",
"386 651 CURVE",
"400 628 OFFCURVE",
"414 591 OFFCURVE",
"425 540 CURVE"
);
},
{
closed = 1;
nodes = (
"234.765 512 LINE",
"234.126 508.632 OFFCURVE",
"233.536 505.295 OFFCURVE",
"233 502 CURVE SMOOTH",
"226.381 463.68 OFFCURVE",
"224.131 424.996 OFFCURVE",
"224.728 386.244 CURVE",
"180.544 381.699 OFFCURVE",
"131.87 379.787 OFFCURVE",
"87.6397 384.048 CURVE",
"86.7598 393.642 OFFCURVE",
"85.8799 403.321 OFFCURVE",
"85 413 CURVE SMOOTH",
"81 458 OFFCURVE",
"88 506 OFFCURVE",
"104 549 CURVE SMOOTH",
"119 587 OFFCURVE",
"158 617 OFFCURVE",
"178 630 CURVE SMOOTH",
"188 637 OFFCURVE",
"197 638 OFFCURVE",
"202 634 CURVE",
"210 630 OFFCURVE",
"233 610 OFFCURVE",
"233 512 CURVE"
);
}
);
width = 528;
}
);
leftMetricsKey = f;
rightMetricsKey = j;
},
{
glyphname = f_f_k;
layers = (
{
layerId = "B2224B7D-3358-49DE-B033-78E3556D2134";
name = Regular;
paths = (
{
closed = 1;
nodes = (
"563 381 LINE",
"557 373 OFFCURVE",
"537 347 OFFCURVE",
"516 322 CURVE SMOOTH",
"496 298 OFFCURVE",
"453 242 OFFCURVE",
"448 236 CURVE",
"444 318 OFFCURVE",
"438 402 OFFCURVE",
"433 471 CURVE SMOOTH",
"431 508 OFFCURVE",
"429 545 OFFCURVE",
"428 568 CURVE",
"434 566 OFFCURVE",
"442 565 OFFCURVE",
"449 564 CURVE",
"464 563 OFFCURVE",
"475 566 OFFCURVE",
"481 573 CURVE",
"484 577 OFFCURVE",
"490 585 OFFCURVE",
"484 619 CURVE SMOOTH",
"481 635 OFFCURVE",
"468 684 OFFCURVE",
"438 701 CURVE",
"399 721 OFFCURVE",
"342 711 OFFCURVE",
"326 699 CURVE SMOOTH",
"297 677 OFFCURVE",
"276 629 OFFCURVE",
"263 553 CURVE SMOOTH",
"263 552 OFFCURVE",
"262 550 OFFCURVE",
"262 549 CURVE",
"256 559 OFFCURVE",
"250 567 OFFCURVE",
"244 574 CURVE SMOOTH",
"225 593 OFFCURVE",
"206 594 OFFCURVE",
"194 591 CURVE",
"156 584 OFFCURVE",
"129 532 OFFCURVE",
"117 502 CURVE SMOOTH",
"99 459 OFFCURVE",
"89 407 OFFCURVE",
"90 367 CURVE",
"70 365 OFFCURVE",
"31 363 OFFCURVE",
"11 360 CURVE",
"16 329 LINE",
"34 332 OFFCURVE",
"73 334 OFFCURVE",
"92 335 CURVE",
"94 302 OFFCURVE",
"97 268 OFFCURVE",
"100 236 CURVE SMOOTH",
"106 159 OFFCURVE",
"114 79 OFFCURVE",
"107 0 CURVE",
"139 -3 LINE",
"145 79 OFFCURVE",
"138 160 OFFCURVE",
"131 239 CURVE SMOOTH",
"128 272 OFFCURVE",
"125 305 OFFCURVE",
"123 338 CURVE",
"142 339 OFFCURVE",
"224 343 OFFCURVE",
"246 345 CURVE",
"245 275 OFFCURVE",
"252 52 OFFCURVE",
"266 -19 CURVE",
"297 -12 LINE",
"283 56 OFFCURVE",
"278 283 OFFCURVE",
"278 348 CURVE",
"291 349 OFFCURVE",
"304 350 OFFCURVE",
"317 352 CURVE",
"312 383 LINE",
"301 382 OFFCURVE",
"290 380 OFFCURVE",
"279 379 CURVE",
"280 445 OFFCURVE",
"285 502 OFFCURVE",
"294 548 CURVE SMOOTH",
"308 631 OFFCURVE",
"330 662 OFFCURVE",
"345 673 CURVE",
"353 680 OFFCURVE",
"397 687 OFFCURVE",
"423 673 CURVE",
"432 669 OFFCURVE",
"441 653 OFFCURVE",
"448 633 CURVE SMOOTH",
"453 617 OFFCURVE",
"455 602 OFFCURVE",
"455 595 CURVE",
"451 595 OFFCURVE",
"447 595 OFFCURVE",
"441 597 CURVE SMOOTH",
"432 600 OFFCURVE",
"427 603 OFFCURVE",
"426 605 CURVE",
"422 612 OFFCURVE",
"414 615 OFFCURVE",
"407 613 CURVE SMOOTH",
"403 612 OFFCURVE",
"397 608 OFFCURVE",
"396 597 CURVE",
"396 569 OFFCURVE",
"399 525 OFFCURVE",
"402 468 CURVE SMOOTH",
"412 324 OFFCURVE",
"429 82 OFFCURVE",
"417 -25 CURVE",
"449 -27 LINE",
"454 21 OFFCURVE",
"453 93 OFFCURVE",
"451 173 CURVE",
"465 152 OFFCURVE",
"474 120 OFFCURVE",
"483 88 CURVE SMOOTH",
"491 58 OFFCURVE",
"500 28 OFFCURVE",
"513 7 CURVE SMOOTH",
"527 -16 OFFCURVE",
"545 -28 OFFCURVE",
"566 -28 CURVE SMOOTH",
"571 -28 OFFCURVE",
"575 -27 OFFCURVE",
"581 -26 CURVE",
"574 4 LINE",
"543 -3 OFFCURVE",
"531 35 OFFCURVE",
"513 96 CURVE SMOOTH",
"501 138 OFFCURVE",
"489 180 OFFCURVE",
"465 205 CURVE",
"470 215 OFFCURVE",
"519 278 OFFCURVE",
"539 302 CURVE",
"567 334 OFFCURVE",
"584 355 OFFCURVE",
"589 365 CURVE"
);
},
{
closed = 1;
nodes = (
"254 496 LINE",
"250 460 OFFCURVE",
"248 420 OFFCURVE",
"247 377 CURVE",
"205 374 OFFCURVE",
"160 372 OFFCURVE",
"122 369 CURVE",
"120 404 OFFCURVE",
"129 450 OFFCURVE",
"146 490 CURVE SMOOTH",
"162 531 OFFCURVE",
"183 557 OFFCURVE",
"200 561 CURVE SMOOTH",
"217 565 OFFCURVE",
"236 540 OFFCURVE",
"253 495 CURVE"
);
}
);
width = 611;
}
);
leftMetricsKey = f;
rightMetricsKey = k;
},
{
glyphname = f_f_l;
layers = (
{
layerId = "B2224B7D-3358-49DE-B033-78E3556D2134";
name = Regular;
paths = (
{
closed = 1;
nodes = (
"240 4 LINE",
"240 57 OFFCURVE",
"236 117 OFFCURVE",
"231 182 CURVE SMOOTH",
"221 312 OFFCURVE",
"211 446 OFFCURVE",
"234 553 CURVE SMOOTH",
"243 597 OFFCURVE",
"264 639 OFFCURVE",
"293 671 CURVE SMOOTH",
"322 702 OFFCURVE",
"356 719 OFFCURVE",
"385 716 CURVE SMOOTH",
"401 714 OFFCURVE",
"423 706 OFFCURVE",
"439 677 CURVE SMOOTH",
"451 654 OFFCURVE",
"457 633 OFFCURVE",
"457 601 CURVE",
"424 601 LINE",
"424 622 OFFCURVE",
"419 643 OFFCURVE",
"410 661 CURVE SMOOTH",
"403 674 OFFCURVE",
"393 682 OFFCURVE",
"381 683 CURVE SMOOTH",
"363 685 OFFCURVE",
"339 672 OFFCURVE",
"317 648 CURVE SMOOTH",
"293 621 OFFCURVE",
"274 585 OFFCURVE",
"266 546 CURVE SMOOTH",
"244 443 OFFCURVE",
"254 312 OFFCURVE",
"264 184 CURVE SMOOTH",
"269 119 OFFCURVE",
"273 58 OFFCURVE",
"273 4 CURVE"
);
},
{
closed = 1;
nodes = (
"61 0 LINE",
"61 15 OFFCURVE",
"59 43 OFFCURVE",
"56 80 CURVE SMOOTH",
"51 164 OFFCURVE",
"42 292 OFFCURVE",
"48 405 CURVE SMOOTH",
"51 468 OFFCURVE",
"58 520 OFFCURVE",
"70 559 CURVE SMOOTH",
"84 609 OFFCURVE",
"105 640 OFFCURVE",
"133 654 CURVE SMOOTH",
"153 664 OFFCURVE",
"175 665 OFFCURVE",
"199 657 CURVE SMOOTH",
"223 649 OFFCURVE",
"249 633 OFFCURVE",
"278 608 CURVE",
"256 583 LINE",
"210 623 OFFCURVE",
"173 637 OFFCURVE",
"148 624 CURVE SMOOTH",
"122 611 OFFCURVE",
"89 563 OFFCURVE",
"81 404 CURVE SMOOTH",
"75 292 OFFCURVE",
"84 166 OFFCURVE",
"89 82 CURVE SMOOTH",
"92 45 OFFCURVE",
"94 16 OFFCURVE",
"94 0 CURVE"
);
},
{
closed = 1;
nodes = (
"11 394 LINE",
"59 406 OFFCURVE",
"120 408 OFFCURVE",
"180 411 CURVE SMOOTH",
"231 413 OFFCURVE",
"280 415 OFFCURVE",
"319 423 CURVE",
"325 391 LINE",
"284 383 OFFCURVE",
"234 380 OFFCURVE",
"181 378 CURVE SMOOTH",
"123 376 OFFCURVE",
"63 373 OFFCURVE",
"19 362 CURVE"
);
},
{
closed = 1;
nodes = (
"484 28 LINE",
"477 25 OFFCURVE",
"465 19 OFFCURVE",
"460 23 CURVE",
"430 42 OFFCURVE",
"447 190 OFFCURVE",
"457 287 CURVE SMOOTH",
"474 431 OFFCURVE",
"482 514 OFFCURVE",
"449 540 CURVE",
"440 548 OFFCURVE",
"427 550 OFFCURVE",
"413 546 CURVE",
"424 512 LINE",
"427 513 OFFCURVE",
"427 513 OFFCURVE",
"427 513 CURVE",
"447 501 OFFCURVE",
"431 370 OFFCURVE",
"423 291 CURVE SMOOTH",
"404 126 OFFCURVE",
"396 23 OFFCURVE",
"440 -6 CURVE",
"447 -12 OFFCURVE",
"455 -14 OFFCURVE",
"464 -14 CURVE SMOOTH",
"476 -14 OFFCURVE",
"488 -9 OFFCURVE",
"502 -2 CURVE"
);
}
);
width = 535;
}
);
},
{
glyphname = f_h;
layers = (
{
layerId = "B2224B7D-3358-49DE-B033-78E3556D2134";
name = Regular;
paths = (
{
closed = 1;
nodes = (
"258 -14 OFFCURVE",
"253 -13 OFFCURVE",
"248 -8 CURVE SMOOTH",
"243 -3 OFFCURVE",
"237 7 OFFCURVE",
"236 40 CURVE SMOOTH",
"235 62 OFFCURVE",
"236 88 OFFCURVE",
"239 117 CURVE SMOOTH",
"243 150 OFFCURVE",
"248 182 OFFCURVE",
"257 211 CURVE",
"258 227 OFFCURVE",
"259 241 OFFCURVE",
"260 253 CURVE SMOOTH",
"263 296 OFFCURVE",
"254 385 OFFCURVE",
"246 464 CURVE SMOOTH",
"232 597 OFFCURVE",
"232 612 OFFCURVE",
"243 621 CURVE SMOOTH",
"248 625 OFFCURVE",
"253 626 OFFCURVE",
"259 624 CURVE SMOOTH",
"265 622 OFFCURVE",
"271 619 OFFCURVE",
"279 614 CURVE",
"267 657 OFFCURVE",
"244 684 OFFCURVE",
"215 684 CURVE SMOOTH",
"215 684 OFFCURVE",
"215 684 OFFCURVE",
"215 684 CURVE SMOOTH",
"184 684 OFFCURVE",
"146 653 OFFCURVE",
"133 583 CURVE SMOOTH",
"107 450 OFFCURVE",
"114 312 OFFCURVE",
"120 179 CURVE SMOOTH",
"123 118 OFFCURVE",
"126 56 OFFCURVE",
"126 -5 CURVE",
"96 -5 LINE",
"96 55 OFFCURVE",
"92 118 OFFCURVE",
"90 178 CURVE SMOOTH",
"83 312 OFFCURVE",
"77 452 OFFCURVE",
"103 588 CURVE SMOOTH",
"110 626 OFFCURVE",
"125 658 OFFCURVE",
"146 680 CURVE SMOOTH",
"166 703 OFFCURVE",
"191 715 OFFCURVE",
"215 714 CURVE SMOOTH",
"239 714 OFFCURVE",
"260 703 OFFCURVE",
"278 683 CURVE SMOOTH",
"295 662 OFFCURVE",
"307 632 OFFCURVE",
"314 596 CURVE SMOOTH",
"315 584 OFFCURVE",
"309 578 OFFCURVE",
"306 576 CURVE SMOOTH",
"294 569 OFFCURVE",
"282 576 OFFCURVE",
"267 586 CURVE SMOOTH",
"266 586 OFFCURVE",
"266 587 OFFCURVE",
"265 587 CURVE",
"266 561 OFFCURVE",
"271 509 OFFCURVE",
"276 467 CURVE SMOOTH",
"282 411 OFFCURVE",
"288 350 OFFCURVE",
"290 302 CURVE",
"326 372 OFFCURVE",
"368 382 OFFCURVE",
"398 378 CURVE SMOOTH",
"408 377 OFFCURVE",
"422 372 OFFCURVE",
"431 351 CURVE SMOOTH",
"437 339 OFFCURVE",
"439 323 OFFCURVE",
"441 302 CURVE SMOOTH",
"445 265 OFFCURVE",
"442 218 OFFCURVE",
"440 173 CURVE SMOOTH",
"438 138 OFFCURVE",
"438 104 OFFCURVE",
"438 77 CURVE SMOOTH",
"439 40 OFFCURVE",
"447 34 OFFCURVE",
"447 34 CURVE",
"447 34 OFFCURVE",
"446 34 OFFCURVE",
"446 34 CURVE",
"446 4 LINE",
"438 4 OFFCURVE",
"430 6 OFFCURVE",
"425 13 CURVE SMOOTH",
"405 34 OFFCURVE",
"406 88 OFFCURVE",
"410 174 CURVE SMOOTH",
"412 218 OFFCURVE",
"415 264 OFFCURVE",
"411 299 CURVE SMOOTH",
"408 334 OFFCURVE",
"401 348 OFFCURVE",
"394 349 CURVE SMOOTH",
"369 352 OFFCURVE",
"346 337 OFFCURVE",
"326 304 CURVE SMOOTH",
"310 279 OFFCURVE",
"297 245 OFFCURVE",
"286 207 CURVE",
"284 175 OFFCURVE",
"282 141 OFFCURVE",
"281 107 CURVE SMOOTH",
"281 102 OFFCURVE",
"281 97 OFFCURVE",
"281 92 CURVE SMOOTH",
"282 87 OFFCURVE",
"282 82 OFFCURVE",
"281 76 CURVE SMOOTH",
"281 60 OFFCURVE",
"280 46 OFFCURVE",
"279 32 CURVE SMOOTH",
"279 29 OFFCURVE",
"279 25 OFFCURVE",
"279 21 CURVE SMOOTH",
"280 6 OFFCURVE",
"280 -7 OFFCURVE",
"268 -13 CURVE SMOOTH",
"266 -14 OFFCURVE",
"264 -14 OFFCURVE",
"261 -14 CURVE SMOOTH"
);
},
{
closed = 1;
nodes = (
"11 380 LINE",
"93 397 OFFCURVE",
"97 383 OFFCURVE",
"179 379 CURVE SMOOTH",
"183 379 LINE",
"182 348 LINE",
"177 348 LINE SMOOTH",
"94 353 OFFCURVE",
"96 366 OFFCURVE",
"16 351 CURVE"
);
}
);
width = 513;
}
);
},
{
glyphname = f_j;
layers = (
{
layerId = "B2224B7D-3358-49DE-B033-78E3556D2134";
name = Regular;
paths = (
{
closed = 1;
nodes = (
"251 525 LINE",
"263 504 OFFCURVE",
"279 502 OFFCURVE",
"291 506 CURVE",
"304 512 OFFCURVE",
"313 528 OFFCURVE",
"309 543 CURVE SMOOTH",
"296 598 OFFCURVE",
"281 641 OFFCURVE",
"266 668 CURVE",
"248 696 OFFCURVE",
"229 710 OFFCURVE",
"207 710 CURVE SMOOTH",
"178 709 OFFCURVE",
"151 683 OFFCURVE",
"126 632 CURVE SMOOTH",
"101 579 OFFCURVE",
"96 551 OFFCURVE",
"85 502 CURVE",
"78 464 OFFCURVE",
"76 425 OFFCURVE",
"77 386 CURVE",
"37 382 OFFCURVE",
"16 378 OFFCURVE",
"0 382 CURVE",
"0 372 OFFCURVE",
"1 358 OFFCURVE",
"1 350 CURVE",
"22 345 OFFCURVE",
"49 349 OFFCURVE",
"78 352 CURVE",
"81 291 OFFCURVE",
"98 124 OFFCURVE",
"82 -2 CURVE",
"112 0 LINE",
"129 127 OFFCURVE",
"113 295 OFFCURVE",
"109 355 CURVE",
"143 360 OFFCURVE",
"173 368 OFFCURVE",
"198 375 CURVE",
"218 379 OFFCURVE",
"235 383 OFFCURVE",
"248 385 CURVE SMOOTH",
"264 387 OFFCURVE",
"269 385 OFFCURVE",
"270 384 CURVE",
"271 384 OFFCURVE",
"271 384 OFFCURVE",
"271 381 CURVE",
"312 173 OFFCURVE",
"307 30 OFFCURVE",
"296 -54 CURVE SMOOTH",
"284 -152 OFFCURVE",
"257 -210 OFFCURVE",
"236 -226 CURVE",
"231 -229 OFFCURVE",
"229 -228 OFFCURVE",
"228 -228 CURVE",
"221 -223 OFFCURVE",
"203 -188 OFFCURVE",
"219 -87 CURVE",
"187 -84 LINE",
"180 -128 OFFCURVE",
"179 -165 OFFCURVE",
"183 -195 CURVE SMOOTH",
"187 -225 OFFCURVE",
"197 -245 OFFCURVE",
"212 -255 CURVE",
"218 -257 OFFCURVE",
"223 -259 OFFCURVE",
"230 -259 CURVE SMOOTH",
"238 -259 OFFCURVE",
"246 -256 OFFCURVE",
"254 -252 CURVE",
"288 -229 OFFCURVE",
"316 -156 OFFCURVE",
"328 -58 CURVE SMOOTH",
"339 28 OFFCURVE",
"344 175 OFFCURVE",
"303 387 CURVE SMOOTH",
"300 401 OFFCURVE",
"293 407 OFFCURVE",
"287 411 CURVE SMOOTH",
"267 425 OFFCURVE",
"236 417 OFFCURVE",
"190 405 CURVE SMOOTH",
"170 400 OFFCURVE",
"141 394 OFFCURVE",
"108 390 CURVE",
"108 426 OFFCURVE",
"110 462 OFFCURVE",
"116 497 CURVE SMOOTH",
"123 537 OFFCURVE",
"138 583 OFFCURVE",
"155 618 CURVE SMOOTH",
"173 655 OFFCURVE",
"193 677 OFFCURVE",
"208 678 CURVE",
"220 678 OFFCURVE",
"231 664 OFFCURVE",
"238 651 CURVE",
"252 628 OFFCURVE",
"266 591 OFFCURVE",
"277 540 CURVE"
);
}
);
width = 369;
}
);
},
{
glyphname = f_k;
layers = (
{
layerId = "B2224B7D-3358-49DE-B033-78E3556D2134";
name = Regular;
paths = (
{
closed = 1;
nodes = (
"100 370 LINE",
"101 440 OFFCURVE",
"106 500 OFFCURVE",
"115 548 CURVE SMOOTH",
"129 631 OFFCURVE",
"151 662 OFFCURVE",
"166 673 CURVE",
"174 680 OFFCURVE",
"218 687 OFFCURVE",
"244 673 CURVE",
"253 669 OFFCURVE",
"262 653 OFFCURVE",
"269 633 CURVE SMOOTH",
"274 617 OFFCURVE",
"276 602 OFFCURVE",
"276 595 CURVE",
"272 595 OFFCURVE",
"268 595 OFFCURVE",
"262 597 CURVE SMOOTH",
"253 600 OFFCURVE",
"248 603 OFFCURVE",
"247 605 CURVE",
"243 612 OFFCURVE",
"235 615 OFFCURVE",
"228 613 CURVE SMOOTH",
"224 612 OFFCURVE",
"218 608 OFFCURVE",
"217 597 CURVE",
"217 569 OFFCURVE",
"220 525 OFFCURVE",
"223 468 CURVE SMOOTH",
"233 324 OFFCURVE",
"250 82 OFFCURVE",
"238 -25 CURVE",
"270 -27 LINE",
"275 21 OFFCURVE",
"274 93 OFFCURVE",
"272 173 CURVE",
"286 152 OFFCURVE",
"295 120 OFFCURVE",
"304 88 CURVE SMOOTH",
"312 58 OFFCURVE",
"321 28 OFFCURVE",
"334 7 CURVE SMOOTH",
"348 -16 OFFCURVE",
"366 -28 OFFCURVE",
"387 -28 CURVE SMOOTH",
"392 -28 OFFCURVE",
"396 -27 OFFCURVE",
"402 -26 CURVE",
"395 4 LINE",
"364 -3 OFFCURVE",
"352 35 OFFCURVE",
"334 96 CURVE SMOOTH",
"322 138 OFFCURVE",
"310 180 OFFCURVE",
"286 205 CURVE",
"291 215 OFFCURVE",
"340 278 OFFCURVE",
"360 302 CURVE",
"388 334 OFFCURVE",
"405 355 OFFCURVE",
"410 365 CURVE",
"384 381 LINE",
"378 373 OFFCURVE",
"358 347 OFFCURVE",
"337 322 CURVE SMOOTH",
"317 298 OFFCURVE",
"274 242 OFFCURVE",
"269 236 CURVE",
"265 318 OFFCURVE",
"259 402 OFFCURVE",
"254 471 CURVE SMOOTH",
"252 508 OFFCURVE",
"250 545 OFFCURVE",
"249 568 CURVE",
"255 566 OFFCURVE",
"263 565 OFFCURVE",
"270 564 CURVE",
"285 563 OFFCURVE",
"296 566 OFFCURVE",
"302 573 CURVE",
"305 577 OFFCURVE",
"311 585 OFFCURVE",
"305 619 CURVE SMOOTH",
"302 635 OFFCURVE",
"289 684 OFFCURVE",
"259 701 CURVE",
"220 721 OFFCURVE",
"163 711 OFFCURVE",
"147 699 CURVE SMOOTH",
"118 677 OFFCURVE",
"97 629 OFFCURVE",
"84 553 CURVE SMOOTH",
"84 552 OFFCURVE",
"83 550 OFFCURVE",
"83 549 CURVE",
"74 495 LINE",
"75 496 LINE",
"63 381 OFFCURVE",
"71 110 OFFCURVE",
"87 -19 CURVE",
"118 -12 LINE",
"104 57 OFFCURVE",
"99 293 OFFCURVE",
"99 352 CURVE"
);
},
{
closed = 1;
nodes = (
"11 339 LINE",
"56 341 OFFCURVE",
"153 350 OFFCURVE",
"169 352 CURVE",
"164 383 LINE",
"150 382 OFFCURVE",
"48 371 OFFCURVE",
"12 370 CURVE"
);
}
);
width = 432;
}
);
leftMetricsKey = f;
rightMetricsKey = k;
},
{
glyphname = f_t;
layers = (
{
layerId = "B2224B7D-3358-49DE-B033-78E3556D2134";
name = Regular;
paths = (
{
closed = 1;
nodes = (
"300 -18 OFFCURVE",
"291 -16 OFFCURVE",
"283 -4 CURVE SMOOTH",
"279 2 OFFCURVE",
"266 22 OFFCURVE",
"260 116 CURVE SMOOTH",
"256 168 OFFCURVE",
"256 234 OFFCURVE",
"258 306 CURVE SMOOTH",
"260 372 OFFCURVE",
"264 438 OFFCURVE",
"269 491 CURVE SMOOTH",
"278 579 OFFCURVE",
"286 591 OFFCURVE",
"290 595 CURVE SMOOTH",
"296 605 OFFCURVE",
"305 605 OFFCURVE",
"308 604 CURVE SMOOTH",
"321 601 OFFCURVE",
"332 594 OFFCURVE",
"341 589 CURVE",
"340 634 OFFCURVE",
"323 667 OFFCURVE",
"296 677 CURVE SMOOTH",
"280 683 OFFCURVE",
"260 680 OFFCURVE",
"239 670 CURVE SMOOTH",
"216 658 OFFCURVE",
"191 636 OFFCURVE",
"169 606 CURVE SMOOTH",
"139 566 OFFCURVE",
"122 478 OFFCURVE",
"120 345 CURVE SMOOTH",
"120 232 OFFCURVE",
"128 114 OFFCURVE",
"134 36 CURVE SMOOTH",
"135 23 OFFCURVE",
"136 10 OFFCURVE",
"137 0 CURVE",
"107 -2 LINE",
"106 8 OFFCURVE",
"105 20 OFFCURVE",
"104 33 CURVE SMOOTH",
"97 112 OFFCURVE",
"89 231 OFFCURVE",
"90 346 CURVE SMOOTH",
"92 487 OFFCURVE",
"110 578 OFFCURVE",
"145 625 CURVE SMOOTH",
"169 658 OFFCURVE",
"197 683 OFFCURVE",
"226 698 CURVE SMOOTH",
"254 712 OFFCURVE",
"281 715 OFFCURVE",
"306 705 CURVE SMOOTH",
"328 698 OFFCURVE",
"345 681 OFFCURVE",
"356 657 CURVE SMOOTH",
"368 634 OFFCURVE",
"373 605 OFFCURVE",
"371 569 CURVE SMOOTH",
"370 557 OFFCURVE",
"365 553 OFFCURVE",
"360 550 CURVE SMOOTH",
"349 544 OFFCURVE",
"339 552 OFFCURVE",
"329 559 CURVE SMOOTH",
"324 563 OFFCURVE",
"318 568 OFFCURVE",
"312 570 CURVE",
"309 559 OFFCURVE",
"304 535 OFFCURVE",
"299 481 CURVE SMOOTH",
"293 427 OFFCURVE",
"290 359 OFFCURVE",
"289 293 CURVE SMOOTH",
"287 219 OFFCURVE",
"288 154 OFFCURVE",
"292 104 CURVE SMOOTH",
"297 24 OFFCURVE",
"308 13 OFFCURVE",
"309 11 CURVE",
"309 5 OFFCURVE",
"310 -14 OFFCURVE",
"310 -18 CURVE",
"309 -18 OFFCURVE",
"307 -18 OFFCURVE",
"305 -18 CURVE SMOOTH"
);
},
{
closed = 1;
nodes = (
"11 356 LINE",
"76 375 OFFCURVE",
"186 371 OFFCURVE",
"275 366 CURVE SMOOTH",
"308 364 OFFCURVE",
"340 362 OFFCURVE",
"365 362 CURVE",
"365 332 LINE",
"339 332 OFFCURVE",
"307 334 OFFCURVE",
"273 336 CURVE SMOOTH",
"187 339 OFFCURVE",
"80 345 OFFCURVE",
"20 327 CURVE"
);
}
);
width = 404;
}
);
leftMetricsKey = f;
rightMetricsKey = t;
},
{
glyphname = t_t;
layers = (
{
anchors = (
{
name = bottom;
position = "{83, 0}";
},
{
name = center;
position = "{83, 200}";
}
);
layerId = "B2224B7D-3358-49DE-B033-78E3556D2134";
name = Regular;
paths = (
{
closed = 1;
nodes = (
"76 -30 OFFCURVE",
"64 10 OFFCURVE",
"57 40 CURVE SMOOTH",
"50 74 OFFCURVE",
"45 121 OFFCURVE",
"43 184 CURVE SMOOTH",
"40 295 OFFCURVE",
"45 434 OFFCURVE",
"49 535 CURVE SMOOTH",
"52 600 OFFCURVE",
"54 652 OFFCURVE",
"53 675 CURVE",
"86 677 LINE",
"87 652 OFFCURVE",
"85 600 OFFCURVE",
"82 534 CURVE SMOOTH",
"78 433 OFFCURVE",
"73 295 OFFCURVE",
"76 185 CURVE SMOOTH",
"82 5 OFFCURVE",
"110 0 OFFCURVE",
"110 0 CURVE",
"107 -33 LINE"
);
},
{
closed = 1;
nodes = (
"246 6 OFFCURVE",
"240 8 OFFCURVE",
"235 12 CURVE SMOOTH",
"218 25 OFFCURVE",
"200 64 OFFCURVE",
"200 249 CURVE SMOOTH",
"199 361 OFFCURVE",
"206 495 OFFCURVE",
"210 583 CURVE SMOOTH",
"212 628 OFFCURVE",
"214 664 OFFCURVE",
"214 681 CURVE",
"247 681 LINE",
"247 664 OFFCURVE",
"245 629 OFFCURVE",
"243 581 CURVE SMOOTH",
"239 494 OFFCURVE",
"232 361 OFFCURVE",
"233 250 CURVE SMOOTH",
"233 189 OFFCURVE",
"235 139 OFFCURVE",
"239 104 CURVE SMOOTH",
"245 47 OFFCURVE",
"255 39 OFFCURVE",
"255 39 CURVE",
"254 39 OFFCURVE",
"252 40 OFFCURVE",
"251 39 CURVE",
"262 8 LINE",
"258 7 OFFCURVE",
"255 6 OFFCURVE",
"252 6 CURVE SMOOTH"
);
},
{
closed = 1;
nodes = (
"0 410 LINE",
"95 415 OFFCURVE",
"233 415 OFFCURVE",
"312 410 CURVE",
"310 377 LINE",
"232 382 OFFCURVE",
"95 382 OFFCURVE",
"2 377 CURVE"
);
}
);
width = 345;
}
);
leftMetricsKey = t;
rightMetricsKey = t;
},
{
glyphname = zero;
layers = (
{
layerId = "B2224B7D-3358-49DE-B033-78E3556D2134";
name = Regular;
paths = (
{
closed = 1;
nodes = (
"169 -12 OFFCURVE",
"132 5 OFFCURVE",
"106 40 CURVE SMOOTH",
"71 82 OFFCURVE",
"52 148 OFFCURVE",
"50 227 CURVE SMOOTH",
"49 301 OFFCURVE",
"63 380 OFFCURVE",
"91 443 CURVE SMOOTH",
"113 496 OFFCURVE",
"143 535 OFFCURVE",
"177 562 CURVE",
"166 588 LINE",
"283 638 OFFCURVE",
"352 609 OFFCURVE",
"390 576 CURVE SMOOTH",
"428 543 OFFCURVE",
"452 491 OFFCURVE",
"461 424 CURVE SMOOTH",
"468 365 OFFCURVE",
"463 295 OFFCURVE",
"445 230 CURVE SMOOTH",
"428 169 OFFCURVE",
"402 116 OFFCURVE",
"369 74 CURVE SMOOTH",
"323 16 OFFCURVE",
"268 -12 OFFCURVE",
"211 -12 CURVE SMOOTH"
);
},
{
closed = 1;
nodes = (
"265 561 LINE",
"186 553 OFFCURVE",
"141 476 OFFCURVE",
"122 430 CURVE SMOOTH",
"68 304 OFFCURVE",
"73 135 OFFCURVE",
"132 62 CURVE SMOOTH",
"162 24 OFFCURVE",
"205 17 OFFCURVE",
"234 24 CURVE SMOOTH",
"326 40 OFFCURVE",
"386 146 OFFCURVE",
"412 240 CURVE SMOOTH",
"447 369 OFFCURVE",
"429 497 OFFCURVE",
"368 550 CURVE SMOOTH",
"340 575 OFFCURVE",
"305 584 OFFCURVE",
"262 579 CURVE"
);
}
);
width = 514;
}
);
unicode = 0030;
},
{
glyphname = one;
layers = (
{
layerId = "B2224B7D-3358-49DE-B033-78E3556D2134";
name = Regular;
paths = (
{
closed = 1;
nodes = (
"279 50 LINE",
"238 48 OFFCURVE",
"173 33 OFFCURVE",
"164 31 CURVE",
"166 52 OFFCURVE",
"169 78 OFFCURVE",
"172 108 CURVE SMOOTH",
"180 196 OFFCURVE",
"192 316 OFFCURVE",
"200 416 CURVE SMOOTH",
"204 475 OFFCURVE",
"216 599 OFFCURVE",
"195 613 CURVE",
"186 618 OFFCURVE",
"177 615 OFFCURVE",
"169 611 CURVE",
"169 611 OFFCURVE",
"65 550 OFFCURVE",
"65 550 CURVE",
"79 522 LINE",
"68 515 OFFCURVE",
"155 568 OFFCURVE",
"176 578 CURVE",
"176 510 OFFCURVE",
"175 500 OFFCURVE",
"168 405 CURVE SMOOTH",
"160 309 OFFCURVE",
"149 195 OFFCURVE",
"140 111 CURVE SMOOTH",
"137 77 OFFCURVE",
"134 47 OFFCURVE",
"132 25 CURVE",
"100 20 OFFCURVE",
"69 16 OFFCURVE",
"36 19 CURVE",
"33 -12 LINE",
"69 -16 OFFCURVE",
"89 -14 OFFCURVE",
"129 -7 CURVE",
"129 -9 OFFCURVE",
"129 -10 OFFCURVE",
"129 -11 CURVE",
"160 -13 LINE",
"160 -10 OFFCURVE",
"161 -6 OFFCURVE",
"161 -1 CURVE",
"172 1 OFFCURVE",
"242 17 OFFCURVE",
"279 19 CURVE"
);
}
);
width = 329;
}
);
unicode = 0031;
},
{
glyphname = two;
layers = (
{
layerId = "B2224B7D-3358-49DE-B033-78E3556D2134";
name = Regular;
paths = (
{
closed = 1;
nodes = (
"63 -9 OFFCURVE",
"40 34 OFFCURVE",
"54 71 CURVE SMOOTH",
"71 115 OFFCURVE",
"134 147 OFFCURVE",
"161 155 CURVE SMOOTH",
"179 160 OFFCURVE",
"199 155 OFFCURVE",
"220 145 CURVE",
"234 169 OFFCURVE",
"273 300 OFFCURVE",
"266 395 CURVE SMOOTH",
"260 473 OFFCURVE",
"220 569 OFFCURVE",
"172 581 CURVE SMOOTH",
"137 589 OFFCURVE",
"103 549 OFFCURVE",
"82 514 CURVE",
"54 531 LINE",
"84 579 OFFCURVE",
"129 624 OFFCURVE",
"180 612 CURVE SMOOTH",
"220 602 OFFCURVE",
"247 561 OFFCURVE",
"263 528 CURVE SMOOTH",
"282 489 OFFCURVE",
"295 441 OFFCURVE",
"298 397 CURVE SMOOTH",
"305 296 OFFCURVE",
"266 160 OFFCURVE",
"247 128 CURVE",
"264 117 OFFCURVE",
"281 104 OFFCURVE",
"298 90 CURVE SMOOTH",
"329 66 OFFCURVE",
"360 41 OFFCURVE",
"381 37 CURVE",
"375 6 LINE",
"347 11 OFFCURVE",
"313 37 OFFCURVE",
"278 65 CURVE SMOOTH",
"263 77 OFFCURVE",
"246 90 OFFCURVE",
"230 101 CURVE",
"196 55 OFFCURVE",
"146 -9 OFFCURVE",
"100 -9 CURVE SMOOTH"
);
},
{
closed = 1;
nodes = (
"171 124 LINE",
"147 117 OFFCURVE",
"96 90 OFFCURVE",
"84 59 CURVE SMOOTH",
"76 42 OFFCURVE",
"87 21 OFFCURVE",
"102 23 CURVE SMOOTH",
"134 27 OFFCURVE",
"183 90 OFFCURVE",
"203 118 CURVE",
"193 122 OFFCURVE",
"184 125 OFFCURVE",
"177 125 CURVE"
);
}
);
width = 431;
}
);
unicode = 0032;
},
{
glyphname = three;
layers = (
{
layerId = "B2224B7D-3358-49DE-B033-78E3556D2134";
name = Regular;
paths = (
{
closed = 1;
nodes = (
"137 -14 OFFCURVE",
"78 -8 OFFCURVE",
"50 33 CURVE",
"50 33 OFFCURVE",
"76 52 OFFCURVE",
"76 52 CURVE",
"93 30 OFFCURVE",
"130 19 OFFCURVE",
"170 24 CURVE SMOOTH",
"210 30 OFFCURVE",
"259 54 OFFCURVE",
"277 101 CURVE SMOOTH",
"294 150 OFFCURVE",
"297 187 OFFCURVE",
"281 214 CURVE SMOOTH",
"269 237 OFFCURVE",
"247 251 OFFCURVE",
"228 264 CURVE SMOOTH",
"208 276 OFFCURVE",
"189 287 OFFCURVE",
"188 309 CURVE SMOOTH",
"186 325 OFFCURVE",
"197 343 OFFCURVE",
"222 363 CURVE SMOOTH",
"280 412 OFFCURVE",
"272 483 OFFCURVE",
"239 527 CURVE SMOOTH",
"206 573 OFFCURVE",
"141 602 OFFCURVE",
"74 560 CURVE",
"57 588 LINE",
"131 635 OFFCURVE",
"215 614 OFFCURVE",
"266 547 CURVE SMOOTH",
"288 516 OFFCURVE",
"299 479 OFFCURVE",
"297 443 CURVE SMOOTH",
"295 403 OFFCURVE",
"276 366 OFFCURVE",
"243 338 CURVE SMOOTH",
"221 319 OFFCURVE",
"221 312 OFFCURVE",
"221 311 CURVE SMOOTH",
"221 307 OFFCURVE",
"236 297 OFFCURVE",
"246 291 CURVE SMOOTH",
"287 266 OFFCURVE",
"357 223 OFFCURVE",
"307 89 CURVE SMOOTH",
"285 28 OFFCURVE",
"224 -2 OFFCURVE",
"174 -8 CURVE SMOOTH"
);
}
);
width = 374;
}
);
unicode = 0033;
},
{
glyphname = four;
layers = (
{
layerId = "B2224B7D-3358-49DE-B033-78E3556D2134";
name = Regular;
paths = (
{
closed = 1;
nodes = (
"298 376 LINE",
"290 376 OFFCURVE",
"274 375 OFFCURVE",
"255 375 CURVE",
"260 451 OFFCURVE",
"267 526 OFFCURVE",
"279 600 CURVE",
"248 605 LINE",
"236 529 OFFCURVE",
"229 452 OFFCURVE",
"224 375 CURVE",
"175 376 OFFCURVE",
"118 380 OFFCURVE",
"100 399 CURVE SMOOTH",
"77 424 OFFCURVE",
"79 482 OFFCURVE",
"88 601 CURVE",
"57 604 LINE",
"47 480 OFFCURVE",
"44 413 OFFCURVE",
"77 378 CURVE SMOOTH",
"104 349 OFFCURVE",
"168 343 OFFCURVE",
"222 343 CURVE",
"217 228 OFFCURVE",
"217 113 OFFCURVE",
"217 0 CURVE",
"248 0 LINE",
"248 113 OFFCURVE",
"248 228 OFFCURVE",
"254 343 CURVE",
"272 343 OFFCURVE",
"287 344 OFFCURVE",
"298 344 CURVE"
);
}
);
width = 348;
}
);
unicode = 0034;
},
{
glyphname = five;
layers = (
{
layerId = "B2224B7D-3358-49DE-B033-78E3556D2134";
name = Regular;
paths = (
{
closed = 1;
nodes = (
"305 600 LINE",
"247 600 OFFCURVE",
"133 584 OFFCURVE",
"59 604 CURVE",
"52 572 LINE",
"56 571 OFFCURVE",
"59 570 OFFCURVE",
"62 569 CURVE",
"63 485 OFFCURVE",
"67 421 OFFCURVE",
"77 376 CURVE SMOOTH",
"86 329 OFFCURVE",
"101 301 OFFCURVE",
"122 290 CURVE",
"172 261 OFFCURVE",
"247 346 OFFCURVE",
"278 329 CURVE",
"290 323 OFFCURVE",
"306 301 OFFCURVE",
"317 228 CURVE SMOOTH",
"330 134 OFFCURVE",
"306 65 OFFCURVE",
"250 36 CURVE SMOOTH",
"198 8 OFFCURVE",
"135 22 OFFCURVE",
"104 51 CURVE SMOOTH",
"89 65 OFFCURVE",
"75 88 OFFCURVE",
"89 122 CURVE",
"59 136 LINE",
"41 95 OFFCURVE",
"50 56 OFFCURVE",
"81 27 CURVE SMOOTH",
"130 -18 OFFCURVE",
"207 -24 OFFCURVE",
"266 6 CURVE SMOOTH",
"297 23 OFFCURVE",
"322 51 OFFCURVE",
"337 86 CURVE SMOOTH",
"353 125 OFFCURVE",
"357 175 OFFCURVE",
"349 234 CURVE SMOOTH",
"339 305 OFFCURVE",
"321 346 OFFCURVE",
"292 359 CURVE",
"262 374 OFFCURVE",
"228 354 OFFCURVE",
"199 338 CURVE",
"145 303 OFFCURVE",
"126 304 OFFCURVE",
"109 383 CURVE SMOOTH",
"100 425 OFFCURVE",
"96 484 OFFCURVE",
"95 563 CURVE",
"114 561 OFFCURVE",
"134 560 OFFCURVE",
"153 560 CURVE SMOOTH",
"179 560 OFFCURVE",
"282 566 OFFCURVE",
"305 566 CURVE"
);
}
);
width = 403;
}
);
unicode = 0035;
},
{
glyphname = six;
layers = (
{
layerId = "B2224B7D-3358-49DE-B033-78E3556D2134";
name = Regular;
paths = (
{
closed = 1;
nodes = (
"188 -15 LINE",
"163 -14 OFFCURVE",
"140 -2 OFFCURVE",
"122 19 CURVE SMOOTH",
"99 46 OFFCURVE",
"83 88 OFFCURVE",
"76 143 CURVE SMOOTH",
"74 159 OFFCURVE",
"72 178 OFFCURVE",
"72 197 CURVE",
"71 197 OFFCURVE",
"71 196 OFFCURVE",
"71 196 CURVE",
"50 222 LINE",
"57 228 OFFCURVE",
"65 234 OFFCURVE",
"72 238 CURVE",
"73 262 OFFCURVE",
"74 287 OFFCURVE",
"78 311 CURVE SMOOTH",
"86 374 OFFCURVE",
"102 434 OFFCURVE",
"125 487 CURVE SMOOTH",
"150 545 OFFCURVE",
"183 592 OFFCURVE",
"220 626 CURVE",
"242 600 LINE",
"177 543 OFFCURVE",
"128 433 OFFCURVE",
"110 307 CURVE SMOOTH",
"108 291 OFFCURVE",
"107 274 OFFCURVE",
"106 259 CURVE",
"210 312 OFFCURVE",
"314 298 OFFCURVE",
"357 243 CURVE SMOOTH",
"379 215 OFFCURVE",
"384 179 OFFCURVE",
"371 142 CURVE SMOOTH",
"357 101 OFFCURVE",
"324 60 OFFCURVE",
"272 21 CURVE SMOOTH",
"243 -4 OFFCURVE",
"215 -15 OFFCURVE",
"189 -15 CURVE"
);
},
{
closed = 1;
nodes = (
"104 141 OFFCURVE",
"120 74 OFFCURVE",
"147 40 CURVE SMOOTH",
"181 6 OFFCURVE",
"207 13 OFFCURVE",
"252 47 CURVE SMOOTH",
"334 111 OFFCURVE",
"365 179 OFFCURVE",
"331 222 CURVE SMOOTH",
"295 268 OFFCURVE",
"198 275 OFFCURVE",
"105 220 CURVE"
);
}
);
width = 428;
}
);
unicode = 0036;
},
{
glyphname = seven;
layers = (
{
layerId = "B2224B7D-3358-49DE-B033-78E3556D2134";
name = Regular;
paths = (
{
closed = 1;
nodes = (
"307 326 LINE",
"293 324 OFFCURVE",
"280 322 OFFCURVE",
"267 321 CURVE",
"274 334 OFFCURVE",
"284 352 OFFCURVE",
"295 371 CURVE SMOOTH",
"357 478 OFFCURVE",
"406 575 OFFCURVE",
"350 600 CURVE SMOOTH",
"337 606 OFFCURVE",
"285 608 OFFCURVE",
"120 609 CURVE SMOOTH",
"86 609 OFFCURVE",
"60 609 OFFCURVE",
"50 609 CURVE",
"50 576 LINE",
"59 575 OFFCURVE",
"86 575 OFFCURVE",
"120 575 CURVE SMOOTH",
"185 575 OFFCURVE",
"319 574 OFFCURVE",
"337 569 CURVE",
"338 568 OFFCURVE",
"339 567 OFFCURVE",
"340 565 CURVE",
"349 535 OFFCURVE",
"295 437 OFFCURVE",
"266 387 CURVE SMOOTH",
"248 356 OFFCURVE",
"235 334 OFFCURVE",
"230 319 CURVE",
"206 318 OFFCURVE",
"182 321 OFFCURVE",
"157 328 CURVE",
"148 295 LINE",
"173 288 OFFCURVE",
"197 285 OFFCURVE",
"220 285 CURVE",
"199 203 OFFCURVE",
"190 113 OFFCURVE",
"190 0 CURVE",
"223 0 LINE",
"223 114 OFFCURVE",
"233 204 OFFCURVE",
"255 286 CURVE",
"273 287 OFFCURVE",
"292 289 OFFCURVE",
"312 292 CURVE"
);
}
);
width = 425;
}
);
unicode = 0037;
},
{
glyphname = eight;
layers = (
{
layerId = "B2224B7D-3358-49DE-B033-78E3556D2134";
name = Regular;
paths = (
{
closed = 1;
nodes = (
"162 -13 OFFCURVE",
"85 -29 OFFCURVE",
"59 11 CURVE SMOOTH",
"28 56 OFFCURVE",
"86 139 OFFCURVE",
"159 246 CURVE SMOOTH",
"181 278 OFFCURVE",
"204 311 OFFCURVE",
"223 343 CURVE",
"209 361 OFFCURVE",
"194 379 OFFCURVE",
"180 395 CURVE SMOOTH",
"112 477 OFFCURVE",
"63 535 OFFCURVE",
"83 574 CURVE SMOOTH",
"93 592 OFFCURVE",
"115 601 OFFCURVE",
"154 600 CURVE",
"154 623 LINE",
"280 623 OFFCURVE",
"344 579 OFFCURVE",
"325 487 CURVE SMOOTH",
"316 432 OFFCURVE",
"291 393 OFFCURVE",
"263 345 CURVE",
"310 288 OFFCURVE",
"386 185 OFFCURVE",
"359 102 CURVE SMOOTH",
"343 51 OFFCURVE",
"285 20 OFFCURVE",
"216 1 CURVE SMOOTH"
);
},
{
closed = 1;
nodes = (
"216 269 OFFCURVE",
"132 152 OFFCURVE",
"104 98 CURVE SMOOTH",
"79 51 OFFCURVE",
"82 35 OFFCURVE",
"86 29 CURVE SMOOTH",
"90 22 OFFCURVE",
"112 9 OFFCURVE",
"208 33 CURVE SMOOTH",
"276 49 OFFCURVE",
"316 77 OFFCURVE",
"328 113 CURVE SMOOTH",
"346 168 OFFCURVE",
"301 243 OFFCURVE",
"245 316 CURVE"
);
},
{
closed = 1;
nodes = (
"166 568 OFFCURVE",
"122 569 OFFCURVE",
"112 559 CURVE SMOOTH",
"111 556 OFFCURVE",
"109 546 OFFCURVE",
"131 511 CURVE SMOOTH",
"145 490 OFFCURVE",
"235 380 OFFCURVE",
"241 373 CURVE",
"263 407 OFFCURVE",
"314 499 OFFCURVE",
"288 546 CURVE SMOOTH",
"275 571 OFFCURVE",
"241 585 OFFCURVE",
"187 589 CURVE",
"184 565 LINE"
);
}
);
width = 415;
}
);
unicode = 0038;
},
{
glyphname = nine;
layers = (
{
layerId = "B2224B7D-3358-49DE-B033-78E3556D2134";
name = Regular;
paths = (
{
closed = 1;
nodes = (
"275 0 LINE",
"275 21 OFFCURVE",
"271 62 OFFCURVE",
"266 109 CURVE SMOOTH",
"258 187 OFFCURVE",
"246 292 OFFCURVE",
"247 384 CURVE",
"195 332 OFFCURVE",
"116 326 OFFCURVE",
"72 388 CURVE SMOOTH",
"32 446 OFFCURVE",
"51 514 OFFCURVE",
"102 564 CURVE SMOOTH",
"157 617 OFFCURVE",
"234 635 OFFCURVE",
"297 594 CURVE",
"314 612 OFFCURVE",
"339 625 OFFCURVE",
"349 608 CURVE SMOOTH",
"354 600 OFFCURVE",
"351 593 OFFCURVE",
"348 585 CURVE SMOOTH",
"344 575 OFFCURVE",
"322 524 OFFCURVE",
"308 497 CURVE SMOOTH",
"300 479 OFFCURVE",
"290 460 OFFCURVE",
"282 442 CURVE",
"281 431 OFFCURVE",
"280 419 OFFCURVE",
"280 406 CURVE SMOOTH",
"277 311 OFFCURVE",
"289 196 OFFCURVE",
"298 112 CURVE SMOOTH",
"304 63 OFFCURVE",
"308 23 OFFCURVE",
"308 0 CURVE"
);
},
{
closed = 1;
nodes = (
"233 596 OFFCURVE",
"173 588 OFFCURVE",
"124 541 CURVE SMOOTH",
"92 509 OFFCURVE",
"66 454 OFFCURVE",
"99 407 CURVE SMOOTH",
"127 367 OFFCURVE",
"185 366 OFFCURVE",
"226 409 CURVE SMOOTH",
"229 412 OFFCURVE",
"237 426 OFFCURVE",
"250 451 CURVE",
"254 501 OFFCURVE",
"264 540 OFFCURVE",
"278 567 CURVE"
);
}
);
width = 402;
}
);
unicode = 0039;
},
{
glyphname = asterisk;
layers = (
{
layerId = "B2224B7D-3358-49DE-B033-78E3556D2134";
name = Regular;
paths = (
{
closed = 1;
nodes = (
"236 553 LINE",
"211 549 OFFCURVE",
"185 547 OFFCURVE",
"159 547 CURVE",
"164 553 OFFCURVE",
"170 560 OFFCURVE",
"175 567 CURVE SMOOTH",
"195 593 OFFCURVE",
"216 620 OFFCURVE",
"239 646 CURVE",
"215 667 LINE",
"192 641 OFFCURVE",
"170 613 OFFCURVE",
"149 587 CURVE SMOOTH",
"143 579 OFFCURVE",
"137 572 OFFCURVE",
"131 564 CURVE",
"130 607 OFFCURVE",
"132 651 OFFCURVE",
"143 700 CURVE",
"112 707 LINE",
"102 663 OFFCURVE",
"99 623 OFFCURVE",
"99 584 CURVE",
"83 610 OFFCURVE",
"68 639 OFFCURVE",
"56 676 CURVE",
"26 665 LINE",
"42 617 OFFCURVE",
"62 581 OFFCURVE",
"84 549 CURVE",
"62 550 OFFCURVE",
"41 552 OFFCURVE",
"19 554 CURVE",
"16 522 LINE",
"41 520 OFFCURVE",
"67 517 OFFCURVE",
"92 516 CURVE",
"73 494 OFFCURVE",
"53 473 OFFCURVE",
"30 454 CURVE",
"51 429 LINE",
"71 446 OFFCURVE",
"89 465 OFFCURVE",
"106 484 CURVE",
"108 470 OFFCURVE",
"110 456 OFFCURVE",
"112 441 CURVE SMOOTH",
"115 420 OFFCURVE",
"118 398 OFFCURVE",
"120 375 CURVE",
"152 379 LINE",
"149 402 OFFCURVE",
"146 424 OFFCURVE",
"144 445 CURVE",
"143 455 OFFCURVE",
"141 465 OFFCURVE",
"140 474 CURVE",
"157 452 OFFCURVE",
"174 429 OFFCURVE",
"191 402 CURVE",
"218 419 LINE",
"196 455 OFFCURVE",
"174 483 OFFCURVE",
"153 510 CURVE SMOOTH",
"152 511 OFFCURVE",
"151 513 OFFCURVE",
"150 514 CURVE",
"180 514 OFFCURVE",
"211 517 OFFCURVE",
"241 522 CURVE"
);
}
);
width = 274;
}
);
unicode = 002A;
},
{
glyphname = backslash;
layers = (
{
layerId = "B2224B7D-3358-49DE-B033-78E3556D2134";
name = Regular;
paths = (
{
closed = 1;
nodes = (
"222 40 OFFCURVE",
"187 151 OFFCURVE",
"152 262 CURVE SMOOTH",
"104 410 OFFCURVE",
"60 549 OFFCURVE",
"-16 696 CURVE",
"15 713 LINE",
"93 564 OFFCURVE",
"138 422 OFFCURVE",
"185 272 CURVE SMOOTH",
"219 164 OFFCURVE",
"254 54 OFFCURVE",
"304 -65 CURVE",
"271 -79 LINE"
);
}
);
width = 310;
}
);
unicode = 005C;
},
{
glyphname = bullet;
layers = (
{
layerId = "B2224B7D-3358-49DE-B033-78E3556D2134";
name = Regular;
paths = (
{
closed = 1;
nodes = (
"94 239 OFFCURVE",
"94 239 OFFCURVE",
"92 239 CURVE SMOOTH",
"86 241 OFFCURVE",
"74 247 OFFCURVE",
"71 264 CURVE SMOOTH",
"71 268 OFFCURVE",
"69 272 OFFCURVE",
"71 280 CURVE SMOOTH",
"71 280 OFFCURVE",
"71 281 OFFCURVE",
"71 281 CURVE",
"66 289 OFFCURVE",
"66 295 OFFCURVE",
"66 299 CURVE SMOOTH",
"66 301 OFFCURVE",
"66 302 OFFCURVE",
"66 304 CURVE",
"66 309 OFFCURVE",
"65 313 OFFCURVE",
"66 317 CURVE SMOOTH",
"66 325 OFFCURVE",
"68 331 OFFCURVE",
"72 337 CURVE",
"74 341 OFFCURVE",
"76 344 OFFCURVE",
"79 350 CURVE SMOOTH",
"80 353 OFFCURVE",
"82 354 OFFCURVE",
"83 357 CURVE",
"87 367 OFFCURVE",
"92 376 OFFCURVE",
"100 383 CURVE",
"101 383 OFFCURVE",
"101 387 OFFCURVE",
"103 388 CURVE SMOOTH",
"107 393 OFFCURVE",
"111 397 OFFCURVE",
"114 400 CURVE SMOOTH",
"127 409 OFFCURVE",
"140 405 OFFCURVE",
"144 403 CURVE SMOOTH",
"150 400 OFFCURVE",
"156 396 OFFCURVE",
"158 390 CURVE",
"167 385 OFFCURVE",
"178 377 OFFCURVE",
"188 366 CURVE",
"200 357 OFFCURVE",
"206 350 OFFCURVE",
"209 338 CURVE SMOOTH",
"209 335 OFFCURVE",
"211 333 OFFCURVE",
"211 330 CURVE",
"211 328 OFFCURVE",
"211 327 OFFCURVE",
"211 325 CURVE SMOOTH",
"213 312 OFFCURVE",
"211 297 OFFCURVE",
"203 287 CURVE SMOOTH",
"201 284 OFFCURVE",
"200 283 OFFCURVE",
"199 281 CURVE",
"198 277 OFFCURVE",
"196 274 OFFCURVE",
"194 271 CURVE SMOOTH",
"190 264 OFFCURVE",
"183 258 OFFCURVE",
"173 254 CURVE",
"165 251 OFFCURVE",
"158 250 OFFCURVE",
"150 251 CURVE",
"144 251 OFFCURVE",
"139 251 OFFCURVE",
"133 251 CURVE",
"127 251 OFFCURVE",
"120 251 OFFCURVE",
"120 251 CURVE",
"113 241 OFFCURVE",
"104 239 OFFCURVE",
"98 239 CURVE SMOOTH"
);
}
);
width = 303;
}
);
unicode = 2022;
},
{
glyphname = comma;
layers = (
{
layerId = "B2224B7D-3358-49DE-B033-78E3556D2134";
name = Regular;
paths = (
{
closed = 1;
nodes = (
"53 -120 LINE",
"60 -94 OFFCURVE",
"65 -65 OFFCURVE",
"66 -43 CURVE SMOOTH",
"67 -10 OFFCURVE",
"63 1 OFFCURVE",
"61 5 CURVE",
"60 5 OFFCURVE",
"58 5 OFFCURVE",
"55 1 CURVE",
"33 40 LINE",
"61 56 OFFCURVE",
"79 47 OFFCURVE",
"88 40 CURVE SMOOTH",
"105 26 OFFCURVE",
"112 0 OFFCURVE",
"109 -43 CURVE SMOOTH",
"108 -67 OFFCURVE",
"103 -101 OFFCURVE",
"95 -131 CURVE"
);
}
);
width = 160;
}
);
unicode = 002C;
},
{
glyphname = exclam;
layers = (
{
layerId = "B2224B7D-3358-49DE-B033-78E3556D2134";
name = Regular;
paths = (
{
closed = 1;
nodes = (
"85 179 LINE",
"85 203 OFFCURVE",
"91 249 OFFCURVE",
"99 307 CURVE SMOOTH",
"108 376 OFFCURVE",
"120 461 OFFCURVE",
"123 533 CURVE SMOOTH",
"129 640 OFFCURVE",
"114 665 OFFCURVE",
"107 671 CURVE SMOOTH",
"105 672 OFFCURVE",
"103 674 OFFCURVE",
"97 672 CURVE",
"88 704 LINE",
"108 710 OFFCURVE",
"121 703 OFFCURVE",
"129 696 CURVE SMOOTH",
"153 675 OFFCURVE",
"161 625 OFFCURVE",
"156 531 CURVE SMOOTH",
"152 458 OFFCURVE",
"141 372 OFFCURVE",
"131 303 CURVE SMOOTH",
"124 248 OFFCURVE",
"118 200 OFFCURVE",
"118 179 CURVE"
);
},
{
closed = 1;
nodes = (
"110 -13 OFFCURVE",
"103 -13 OFFCURVE",
"93 -6 CURVE",
"83 -10 LINE",
"78 0 OFFCURVE",
"72 9 OFFCURVE",
"71 14 CURVE SMOOTH",
"70 19 OFFCURVE",
"68 22 OFFCURVE",
"68 23 CURVE SMOOTH",
"63 37 OFFCURVE",
"70 47 OFFCURVE",
"77 51 CURVE SMOOTH",
"79 53 OFFCURVE",
"94 62 OFFCURVE",
"110 46 CURVE SMOOTH",
"110 46 OFFCURVE",
"110 46 OFFCURVE",
"111 45 CURVE",
"131 51 LINE",
"134 39 OFFCURVE",
"137 30 OFFCURVE",
"139 23 CURVE SMOOTH",
"141 3 OFFCURVE",
"133 -5 OFFCURVE",
"126 -10 CURVE SMOOTH",
"123 -12 OFFCURVE",
"120 -13 OFFCURVE",
"115 -13 CURVE SMOOTH"
);
}
);
width = 189;
}
);
unicode = 0021;
},
{
glyphname = exclamdown;
layers = (
{
layerId = "B2224B7D-3358-49DE-B033-78E3556D2134";
name = Regular;
paths = (
{
closed = 1;
nodes = (
"88 225 LINE",
"88 201 OFFCURVE",
"82 155 OFFCURVE",
"74 97 CURVE SMOOTH",
"65 28 OFFCURVE",
"53 -57 OFFCURVE",
"50 -129 CURVE SMOOTH",
"44 -236 OFFCURVE",
"59 -261 OFFCURVE",
"66 -267 CURVE SMOOTH",
"68 -268 OFFCURVE",
"70 -270 OFFCURVE",
"76 -268 CURVE",
"85 -300 LINE",
"65 -306 OFFCURVE",
"52 -299 OFFCURVE",
"44 -292 CURVE SMOOTH",
"20 -271 OFFCURVE",
"12 -221 OFFCURVE",
"17 -127 CURVE SMOOTH",
"21 -54 OFFCURVE",
"32 32 OFFCURVE",
"42 101 CURVE SMOOTH",
"49 156 OFFCURVE",
"55 204 OFFCURVE",
"55 225 CURVE"
);
},
{
closed = 1;
nodes = (
"63 417 OFFCURVE",
"70 417 OFFCURVE",
"80 410 CURVE",
"90 414 LINE",
"95 404 OFFCURVE",
"101 395 OFFCURVE",
"102 390 CURVE SMOOTH",
"103 385 OFFCURVE",
"105 382 OFFCURVE",
"105 381 CURVE SMOOTH",
"110 367 OFFCURVE",
"103 357 OFFCURVE",
"96 353 CURVE SMOOTH",
"94 351 OFFCURVE",
"79 342 OFFCURVE",
"63 358 CURVE SMOOTH",
"63 358 OFFCURVE",
"63 358 OFFCURVE",
"62 359 CURVE",
"42 353 LINE",
"39 365 OFFCURVE",
"36 374 OFFCURVE",
"34 381 CURVE SMOOTH",
"32 401 OFFCURVE",
"40 409 OFFCURVE",
"47 414 CURVE SMOOTH",
"50 416 OFFCURVE",
"53 417 OFFCURVE",
"58 417 CURVE SMOOTH"
);
}
);
width = 173;
}
);
unicode = 00A1;
},
{
glyphname = numbersign;
layers = (
{
layerId = "B2224B7D-3358-49DE-B033-78E3556D2134";
name = Regular;
paths = (
{
closed = 1;
nodes = (
"40 8 LINE",
"51 62 OFFCURVE",
"64 117 OFFCURVE",
"76 170 CURVE SMOOTH",
"109 313 OFFCURVE",
"144 459 OFFCURVE",
"144 600 CURVE",
"184 600 LINE",
"184 453 OFFCURVE",
"149 304 OFFCURVE",
"114 159 CURVE SMOOTH",
"102 105 OFFCURVE",
"89 51 OFFCURVE",
"78 -1 CURVE"
);
},
{
closed = 1;
nodes = (
"183 42 LINE",
"201 114 OFFCURVE",
"212 180 OFFCURVE",
"222 244 CURVE SMOOTH",
"242 362 OFFCURVE",
"261 475 OFFCURVE",
"318 600 CURVE",
"353 579 LINE",
"299 460 OFFCURVE",
"281 352 OFFCURVE",
"262 236 CURVE SMOOTH",
"250 171 OFFCURVE",
"239 104 OFFCURVE",
"221 30 CURVE"
);
},
{
closed = 1;
nodes = (
"150 350 OFFCURVE",
"93 354 OFFCURVE",
"31 362 CURVE",
"37 401 LINE",
"173 383 OFFCURVE",
"278 385 OFFCURVE",
"380 409 CURVE",
"392 369 LINE",
"330 356 OFFCURVE",
"269 350 OFFCURVE",
"203 350 CURVE SMOOTH"
);
},
{
closed = 1;
nodes = (
"16 223 LINE",
"94 232 OFFCURVE",
"173 230 OFFCURVE",
"248 230 CURVE SMOOTH",
"269 230 OFFCURVE",
"290 230 OFFCURVE",
"311 230 CURVE",
"311 191 LINE",
"290 191 OFFCURVE",
"269 191 OFFCURVE",
"248 191 CURVE SMOOTH",
"174 191 OFFCURVE",
"97 192 OFFCURVE",
"22 183 CURVE"
);
}
);
width = 425;
}
);
unicode = 0023;
},
{
glyphname = period;
layers = (
{
layerId = "B2224B7D-3358-49DE-B033-78E3556D2134";
name = Regular;
paths = (
{
closed = 1;
nodes = (
"74 -11 OFFCURVE",
"67 -10 OFFCURVE",
"58 -3 CURVE",
"48 -7 LINE",
"43 4 OFFCURVE",
"38 13 OFFCURVE",
"37 18 CURVE SMOOTH",
"36 23 OFFCURVE",
"34 26 OFFCURVE",
"34 27 CURVE SMOOTH",
"30 41 OFFCURVE",
"37 51 OFFCURVE",
"44 55 CURVE SMOOTH",
"47 57 OFFCURVE",
"62 65 OFFCURVE",
"77 48 CURVE SMOOTH",
"77 48 OFFCURVE",
"77 48 OFFCURVE",
"78 47 CURVE",
"98 52 LINE",
"101 40 OFFCURVE",
"103 31 OFFCURVE",
"105 24 CURVE SMOOTH",
"106 4 OFFCURVE",
"98 -4 OFFCURVE",
"91 -8 CURVE SMOOTH",
"88 -10 OFFCURVE",
"84 -11 OFFCURVE",
"79 -11 CURVE SMOOTH"
);
}
);
width = 155;
}
);
unicode = 002E;
},
{
glyphname = periodcentered;
layers = (
{
layerId = "B2224B7D-3358-49DE-B033-78E3556D2134";
name = Regular;
paths = (
{
closed = 1;
nodes = (
"52 197 OFFCURVE",
"51 198 OFFCURVE",
"50 198 CURVE SMOOTH",
"46 199 OFFCURVE",
"38 202 OFFCURVE",
"36 213 CURVE SMOOTH",
"36 216 OFFCURVE",
"36 220 OFFCURVE",
"36 224 CURVE SMOOTH",
"36 225 OFFCURVE",
"36 225 OFFCURVE",
"36 226 CURVE",
"33 230 OFFCURVE",
"33 235 OFFCURVE",
"33 237 CURVE SMOOTH",
"33 239 OFFCURVE",
"33 240 OFFCURVE",
"34 241 CURVE",
"33 243 OFFCURVE",
"32 246 OFFCURVE",
"33 249 CURVE SMOOTH",
"33 254 OFFCURVE",
"34 259 OFFCURVE",
"37 263 CURVE",
"38 265 OFFCURVE",
"39 268 OFFCURVE",
"41 270 CURVE SMOOTH",
"42 272 OFFCURVE",
"43 274 OFFCURVE",
"44 276 CURVE",
"47 282 OFFCURVE",
"50 288 OFFCURVE",
"55 292 CURVE",
"56 294 OFFCURVE",
"57 295 OFFCURVE",
"57 296 CURVE SMOOTH",
"60 300 OFFCURVE",
"63 302 OFFCURVE",
"65 304 CURVE SMOOTH",
"74 310 OFFCURVE",
"82 308 OFFCURVE",
"85 306 CURVE SMOOTH",
"89 304 OFFCURVE",
"92 301 OFFCURVE",
"94 298 CURVE",
"100 294 OFFCURVE",
"107 289 OFFCURVE",
"114 281 CURVE",
"122 277 OFFCURVE",
"126 271 OFFCURVE",
"128 263 CURVE SMOOTH",
"128 261 OFFCURVE",
"129 259 OFFCURVE",
"129 258 CURVE",
"129 257 OFFCURVE",
"129 255 OFFCURVE",
"129 254 CURVE SMOOTH",
"131 245 OFFCURVE",
"129 236 OFFCURVE",
"124 229 CURVE SMOOTH",
"123 228 OFFCURVE",
"122 226 OFFCURVE",
"121 225 CURVE",
"120 223 OFFCURVE",
"119 221 OFFCURVE",
"118 219 CURVE SMOOTH",
"115 215 OFFCURVE",
"111 210 OFFCURVE",
"104 208 CURVE",
"100 206 OFFCURVE",
"94 205 OFFCURVE",
"88 205 CURVE",
"85 205 OFFCURVE",
"81 205 OFFCURVE",
"77 206 CURVE",
"74 205 OFFCURVE",
"72 205 OFFCURVE",
"70 205 CURVE",
"70 205 OFFCURVE",
"70 205 OFFCURVE",
"70 205 CURVE",
"64 199 OFFCURVE",
"58 197 OFFCURVE",
"54 197 CURVE SMOOTH"
);
}
);
width = 180;
}
);
unicode = 00B7;
},
{
glyphname = question;
layers = (
{
layerId = "B2224B7D-3358-49DE-B033-78E3556D2134";
name = Regular;
paths = (
{
closed = 1;
nodes = (
"89 163 LINE",
"85 249 OFFCURVE",
"96 318 OFFCURVE",
"120 371 CURVE SMOOTH",
"141 417 OFFCURVE",
"171 443 OFFCURVE",
"195 465 CURVE SMOOTH",
"230 498 OFFCURVE",
"250 516 OFFCURVE",
"228 580 CURVE SMOOTH",
"214 620 OFFCURVE",
"198 649 OFFCURVE",
"180 666 CURVE SMOOTH",
"165 678 OFFCURVE",
"152 683 OFFCURVE",
"137 680 CURVE SMOOTH",
"113 675 OFFCURVE",
"91 650 OFFCURVE",
"74 615 CURVE SMOOTH",
"55 576 OFFCURVE",
"47 530 OFFCURVE",
"52 486 CURVE",
"17 482 LINE",
"12 532 OFFCURVE",
"20 586 OFFCURVE",
"42 630 CURVE SMOOTH",
"63 676 OFFCURVE",
"95 707 OFFCURVE",
"130 714 CURVE SMOOTH",
"148 718 OFFCURVE",
"176 717 OFFCURVE",
"204 691 CURVE SMOOTH",
"226 671 OFFCURVE",
"245 638 OFFCURVE",
"261 592 CURVE SMOOTH",
"274 553 OFFCURVE",
"275 523 OFFCURVE",
"265 497 CURVE SMOOTH",
"255 474 OFFCURVE",
"237 457 OFFCURVE",
"218 439 CURVE SMOOTH",
"173 397 OFFCURVE",
"115 345 OFFCURVE",
"123 165 CURVE"
);
},
{
closed = 1;
nodes = (
"125 -13 OFFCURVE",
"118 -13 OFFCURVE",
"108 -6 CURVE",
"98 -10 LINE",
"93 0 OFFCURVE",
"87 9 OFFCURVE",
"86 14 CURVE SMOOTH",
"85 19 OFFCURVE",
"83 22 OFFCURVE",
"83 23 CURVE SMOOTH",
"78 37 OFFCURVE",
"85 47 OFFCURVE",
"92 51 CURVE SMOOTH",
"94 53 OFFCURVE",
"109 62 OFFCURVE",
"125 46 CURVE SMOOTH",
"125 46 OFFCURVE",
"125 46 OFFCURVE",
"126 45 CURVE",
"146 51 LINE",
"149 39 OFFCURVE",
"152 30 OFFCURVE",
"154 23 CURVE SMOOTH",
"156 3 OFFCURVE",
"148 -5 OFFCURVE",
"141 -10 CURVE SMOOTH",
"138 -12 OFFCURVE",
"135 -13 OFFCURVE",
"130 -13 CURVE SMOOTH"
);
}
);
width = 305;
}
);
unicode = 003F;
},
{
glyphname = questiondown;
layers = (
{
layerId = "B2224B7D-3358-49DE-B033-78E3556D2134";
name = Regular;
paths = (
{
closed = 1;
nodes = (
"277 321 LINE",
"278 235 OFFCURVE",
"264 166 OFFCURVE",
"239 114 CURVE SMOOTH",
"216 69 OFFCURVE",
"185 44 OFFCURVE",
"160 23 CURVE SMOOTH",
"124 -9 OFFCURVE",
"104 -26 OFFCURVE",
"123 -91 CURVE SMOOTH",
"136 -131 OFFCURVE",
"151 -161 OFFCURVE",
"168 -178 CURVE SMOOTH",
"183 -191 OFFCURVE",
"196 -196 OFFCURVE",
"211 -194 CURVE SMOOTH",
"235 -190 OFFCURVE",
"258 -165 OFFCURVE",
"276 -131 CURVE SMOOTH",
"296 -93 OFFCURVE",
"306 -47 OFFCURVE",
"302 -3 CURVE",
"338 0 LINE",
"341 -50 OFFCURVE",
"331 -104 OFFCURVE",
"307 -147 CURVE SMOOTH",
"285 -192 OFFCURVE",
"252 -222 OFFCURVE",
"217 -228 CURVE SMOOTH",
"198 -231 OFFCURVE",
"171 -230 OFFCURVE",
"143 -203 CURVE SMOOTH",
"122 -182 OFFCURVE",
"104 -148 OFFCURVE",
"90 -102 CURVE SMOOTH",
"78 -62 OFFCURVE",
"78 -32 OFFCURVE",
"89 -7 CURVE SMOOTH",
"100 16 OFFCURVE",
"119 32 OFFCURVE",
"138 50 CURVE SMOOTH",
"185 90 OFFCURVE",
"244 140 OFFCURVE",
"243 320 CURVE"
);
},
{
closed = 1;
nodes = (
"247 498 OFFCURVE",
"254 498 OFFCURVE",
"264 491 CURVE",
"274 494 LINE",
"278 484 OFFCURVE",
"284 475 OFFCURVE",
"285 470 CURVE SMOOTH",
"286 465 OFFCURVE",
"288 462 OFFCURVE",
"288 461 CURVE SMOOTH",
"292 447 OFFCURVE",
"285 437 OFFCURVE",
"278 433 CURVE SMOOTH",
"276 431 OFFCURVE",
"260 423 OFFCURVE",
"245 439 CURVE SMOOTH",
"245 439 OFFCURVE",
"245 439 OFFCURVE",
"244 440 CURVE",
"224 435 LINE",
"221 447 OFFCURVE",
"218 456 OFFCURVE",
"217 463 CURVE SMOOTH",
"215 483 OFFCURVE",
"224 491 OFFCURVE",
"231 496 CURVE SMOOTH",
"234 498 OFFCURVE",
"237 499 OFFCURVE",
"242 498 CURVE SMOOTH"
);
}
);
width = 600;
}
);
unicode = 00BF;
},
{
glyphname = quotedbl;
layers = (
{
layerId = "B2224B7D-3358-49DE-B033-78E3556D2134";
name = Regular;
paths = (
{
closed = 1;
nodes = (
"74 459 OFFCURVE",
"44 459 OFFCURVE",
"39 459 CURVE",
"36 473 OFFCURVE",
"32 519 OFFCURVE",
"33 562 CURVE SMOOTH",
"35 588 OFFCURVE",
"35 621 OFFCURVE",
"43 650 CURVE",
"85 640 LINE",
"79 613 OFFCURVE",
"78 584 OFFCURVE",
"77 562 CURVE SMOOTH",
"76 530 OFFCURVE",
"80 462 OFFCURVE",
"82 459 CURVE"
);
},
{
closed = 1;
nodes = (
"214 459 OFFCURVE",
"184 459 OFFCURVE",
"179 459 CURVE",
"176 473 OFFCURVE",
"172 519 OFFCURVE",
"173 562 CURVE SMOOTH",
"175 588 OFFCURVE",
"175 621 OFFCURVE",
"183 650 CURVE",
"225 640 LINE",
"219 613 OFFCURVE",
"218 584 OFFCURVE",
"217 562 CURVE SMOOTH",
"216 530 OFFCURVE",
"220 462 OFFCURVE",
"222 459 CURVE"
);
}
);
width = 275;
}
);
unicode = 0022;
},
{
glyphname = quotesingle;
layers = (
{
layerId = "B2224B7D-3358-49DE-B033-78E3556D2134";
name = Regular;
paths = (
{
closed = 1;
nodes = (
"74 459 OFFCURVE",
"44 459 OFFCURVE",
"39 459 CURVE",
"36 473 OFFCURVE",
"32 519 OFFCURVE",
"33 562 CURVE SMOOTH",
"35 588 OFFCURVE",
"35 621 OFFCURVE",
"43 650 CURVE",
"85 640 LINE",
"79 613 OFFCURVE",
"78 584 OFFCURVE",
"77 562 CURVE SMOOTH",
"76 530 OFFCURVE",
"80 462 OFFCURVE",
"82 459 CURVE"
);
}
);
width = 135;
}
);
unicode = 0027;
},
{
glyphname = semicolon;
layers = (
{
components = (
{
name = period;
transform = "{1, 0, 0, 1, 17, 286}";
}
);
layerId = "B2224B7D-3358-49DE-B033-78E3556D2134";
name = Regular;
paths = (
{
closed = 1;
nodes = (
"85 -120 LINE",
"92 -94 OFFCURVE",
"97 -65 OFFCURVE",
"98 -43 CURVE SMOOTH",
"99 -10 OFFCURVE",
"95 1 OFFCURVE",
"93 5 CURVE",
"92 5 OFFCURVE",
"90 5 OFFCURVE",
"87 1 CURVE",
"65 40 LINE",
"93 56 OFFCURVE",
"111 47 OFFCURVE",
"120 40 CURVE SMOOTH",
"137 26 OFFCURVE",
"144 0 OFFCURVE",
"141 -43 CURVE SMOOTH",
"140 -67 OFFCURVE",
"135 -101 OFFCURVE",
"127 -131 CURVE"
);
}
);
width = 175;
}
);
unicode = 003B;
},
{
glyphname = slash;
layers = (
{
layerId = "B2224B7D-3358-49DE-B033-78E3556D2134";
name = Regular;
paths = (
{
closed = 1;
nodes = (
"-11 -106 LINE",
"83 158 OFFCURVE",
"160 380 OFFCURVE",
"257 636 CURVE SMOOTH",
"267 662 OFFCURVE",
"280 688 OFFCURVE",
"292 716 CURVE",
"318 701 LINE",
"307 673 OFFCURVE",
"295 646 OFFCURVE",
"285 620 CURVE SMOOTH",
"187 367 OFFCURVE",
"110 143 OFFCURVE",
"17 -118 CURVE"
);
}
);
width = 307;
}
);
unicode = 002F;
},
{
glyphname = underscore;
layers = (
{
layerId = "B2224B7D-3358-49DE-B033-78E3556D2134";
name = Regular;
paths = (
{
closed = 1;
nodes = (
"0 -85 LINE",
"32 -85 OFFCURVE",
"205 -84 OFFCURVE",
"236 -84 CURVE SMOOTH",
"267 -84 OFFCURVE",
"468 -85 OFFCURVE",
"500 -85 CURVE",
"500 -33 LINE",
"468 -33 OFFCURVE",
"268 -32 OFFCURVE",
"236 -32 CURVE SMOOTH",
"204 -32 OFFCURVE",
"32 -33 OFFCURVE",
"0 -33 CURVE"
);
}
);
width = 500;
}
);
unicode = 005F;
},
{
glyphname = braceleft;
layers = (
{
layerId = "B2224B7D-3358-49DE-B033-78E3556D2134";
name = Regular;
paths = (
{
closed = 1;
nodes = (
"144 -78 OFFCURVE",
"129 -72 OFFCURVE",
"117 -61 CURVE SMOOTH",
"78 -26 OFFCURVE",
"88 56 OFFCURVE",
"98 136 CURVE SMOOTH",
"102 170 OFFCURVE",
"106 201 OFFCURVE",
"106 226 CURVE SMOOTH",
"105 249 OFFCURVE",
"101 259 OFFCURVE",
"96 260 CURVE SMOOTH",
"70 270 OFFCURVE",
"52 279 OFFCURVE",
"40 287 CURVE SMOOTH",
"29 293 OFFCURVE",
"15 304 OFFCURVE",
"16 321 CURVE SMOOTH",
"17 339 OFFCURVE",
"36 348 OFFCURVE",
"43 351 CURVE SMOOTH",
"54 356 OFFCURVE",
"69 361 OFFCURVE",
"91 368 CURVE",
"93 370 OFFCURVE",
"95 378 OFFCURVE",
"94 401 CURVE SMOOTH",
"93 421 OFFCURVE",
"90 448 OFFCURVE",
"87 475 CURVE SMOOTH",
"77 569 OFFCURVE",
"65 676 OFFCURVE",
"113 718 CURVE SMOOTH",
"131 734 OFFCURVE",
"157 739 OFFCURVE",
"188 732 CURVE",
"180 700 LINE",
"160 705 OFFCURVE",
"145 702 OFFCURVE",
"135 693 CURVE SMOOTH",
"100 662 OFFCURVE",
"112 556 OFFCURVE",
"120 479 CURVE SMOOTH",
"124 446 OFFCURVE",
"127 415 OFFCURVE",
"127 392 CURVE SMOOTH",
"127 378 OFFCURVE",
"127 343 OFFCURVE",
"102 336 CURVE SMOOTH",
"81 330 OFFCURVE",
"52 324 OFFCURVE",
"52 318 CURVE SMOOTH",
"52 312 OFFCURVE",
"62 310 OFFCURVE",
"109 291 CURVE SMOOTH",
"134 281 OFFCURVE",
"138 249 OFFCURVE",
"139 226 CURVE SMOOTH",
"139 200 OFFCURVE",
"135 167 OFFCURVE",
"131 132 CURVE SMOOTH",
"123 67 OFFCURVE",
"113 -13 OFFCURVE",
"139 -37 CURVE SMOOTH",
"148 -45 OFFCURVE",
"162 -47 OFFCURVE",
"180 -43 CURVE",
"187 -75 LINE",
"179 -77 OFFCURVE",
"171 -78 OFFCURVE",
"163 -78 CURVE SMOOTH"
);
}
);
width = 221;
}
);
unicode = 007B;
},
{
glyphname = braceright;
layers = (
{
layerId = "B2224B7D-3358-49DE-B033-78E3556D2134";
name = Regular;
paths = (
{
closed = 1;
nodes = (
"47 -95 OFFCURVE",
"32 -91 OFFCURVE",
"16 -83 CURVE",
"30 -53 LINE",
"43 -60 OFFCURVE",
"60 -66 OFFCURVE",
"69 -60 CURVE SMOOTH",
"76 -55 OFFCURVE",
"84 -42 OFFCURVE",
"85 0 CURVE SMOOTH",
"87 36 OFFCURVE",
"83 83 OFFCURVE",
"80 138 CURVE SMOOTH",
"77 172 OFFCURVE",
"75 211 OFFCURVE",
"73 251 CURVE SMOOTH",
"72 279 OFFCURVE",
"85 292 OFFCURVE",
"96 299 CURVE SMOOTH",
"109 307 OFFCURVE",
"153 307 OFFCURVE",
"153 315 CURVE SMOOTH",
"153 323 OFFCURVE",
"77 341 OFFCURVE",
"75 384 CURVE SMOOTH",
"74 412 OFFCURVE",
"78 451 OFFCURVE",
"83 492 CURVE SMOOTH",
"88 533 OFFCURVE",
"93 576 OFFCURVE",
"92 614 CURVE SMOOTH",
"92 652 OFFCURVE",
"85 678 OFFCURVE",
"72 691 CURVE SMOOTH",
"64 699 OFFCURVE",
"51 702 OFFCURVE",
"34 700 CURVE",
"29 733 LINE",
"57 736 OFFCURVE",
"79 730 OFFCURVE",
"95 714 CURVE SMOOTH",
"115 695 OFFCURVE",
"125 663 OFFCURVE",
"125 614 CURVE SMOOTH",
"126 575 OFFCURVE",
"121 530 OFFCURVE",
"116 488 CURVE SMOOTH",
"111 449 OFFCURVE",
"107 411 OFFCURVE",
"108 386 CURVE SMOOTH",
"109 370 OFFCURVE",
"140 354 OFFCURVE",
"156 345 CURVE SMOOTH",
"165 340 OFFCURVE",
"187 332 OFFCURVE",
"187 316 CURVE SMOOTH",
"187 289 OFFCURVE",
"168 288 OFFCURVE",
"143 282 CURVE SMOOTH",
"113 277 OFFCURVE",
"105 272 OFFCURVE",
"106 253 CURVE SMOOTH",
"108 213 OFFCURVE",
"110 174 OFFCURVE",
"113 140 CURVE SMOOTH",
"121 19 OFFCURVE",
"126 -61 OFFCURVE",
"88 -87 CURVE SMOOTH",
"80 -93 OFFCURVE",
"71 -95 OFFCURVE",
"60 -95 CURVE SMOOTH"
);
}
);
width = 220;
}
);
unicode = 007D;
},
{
glyphname = bracketleft;
layers = (
{
layerId = "B2224B7D-3358-49DE-B033-78E3556D2134";
name = Regular;
paths = (
{
closed = 1;
nodes = (
"110 -102 OFFCURVE",
"85 -94 OFFCURVE",
"66 -77 CURVE SMOOTH",
"16 -33 OFFCURVE",
"21 60 OFFCURVE",
"28 177 CURVE SMOOTH",
"39 321 OFFCURVE",
"34 371 OFFCURVE",
"23 515 CURVE SMOOTH",
"17 588 OFFCURVE",
"5 676 OFFCURVE",
"44 712 CURVE SMOOTH",
"68 735 OFFCURVE",
"109 742 OFFCURVE",
"175 733 CURVE",
"171 700 LINE",
"116 707 OFFCURVE",
"83 704 OFFCURVE",
"67 688 CURVE SMOOTH",
"43 665 OFFCURVE",
"48 607 OFFCURVE",
"56 518 CURVE SMOOTH",
"69 360 OFFCURVE",
"70 332 OFFCURVE",
"61 175 CURVE SMOOTH",
"55 71 OFFCURVE",
"50 -19 OFFCURVE",
"88 -53 CURVE SMOOTH",
"107 -69 OFFCURVE",
"139 -73 OFFCURVE",
"184 -64 CURVE",
"190 -97 LINE",
"173 -100 OFFCURVE",
"157 -102 OFFCURVE",
"142 -102 CURVE SMOOTH"
);
}
);
width = 223;
}
);
unicode = 005B;
},
{
glyphname = bracketright;
layers = (
{
layerId = "B2224B7D-3358-49DE-B033-78E3556D2134";
name = Regular;
paths = (
{
closed = 1;
nodes = (
"43 -92 OFFCURVE",
"38 -91 OFFCURVE",
"34 -91 CURVE",
"36 -58 LINE",
"64 -60 OFFCURVE",
"83 -55 OFFCURVE",
"96 -44 CURVE SMOOTH",
"126 -14 OFFCURVE",
"124 70 OFFCURVE",
"121 196 CURVE SMOOTH",
"119 241 OFFCURVE",
"118 292 OFFCURVE",
"118 349 CURVE SMOOTH",
"118 411 OFFCURVE",
"119 463 OFFCURVE",
"120 505 CURVE SMOOTH",
"122 608 OFFCURVE",
"123 664 OFFCURVE",
"102 685 CURVE SMOOTH",
"90 697 OFFCURVE",
"66 701 OFFCURVE",
"17 700 CURVE",
"16 733 LINE",
"67 734 OFFCURVE",
"103 731 OFFCURVE",
"126 708 CURVE SMOOTH",
"157 677 OFFCURVE",
"155 620 OFFCURVE",
"153 505 CURVE SMOOTH",
"152 463 OFFCURVE",
"151 410 OFFCURVE",
"151 349 CURVE SMOOTH",
"151 292 OFFCURVE",
"152 242 OFFCURVE",
"154 197 CURVE SMOOTH",
"156 128 OFFCURVE",
"157 74 OFFCURVE",
"153 31 CURVE SMOOTH",
"149 -18 OFFCURVE",
"139 -48 OFFCURVE",
"118 -67 CURVE SMOOTH",
"102 -84 OFFCURVE",
"78 -92 OFFCURVE",
"47 -92 CURVE SMOOTH"
);
}
);
width = 189;
}
);
unicode = 005D;
},
{
glyphname = parenleft;
layers = (
{
layerId = "B2224B7D-3358-49DE-B033-78E3556D2134";
name = Regular;
paths = (
{
closed = 1;
nodes = (
"102 -35 OFFCURVE",
"75 27 OFFCURVE",
"55 96 CURVE SMOOTH",
"34 168 OFFCURVE",
"21 245 OFFCURVE",
"17 318 CURVE SMOOTH",
"13 400 OFFCURVE",
"21 475 OFFCURVE",
"40 541 CURVE SMOOTH",
"62 616 OFFCURVE",
"98 678 OFFCURVE",
"147 724 CURVE",
"169 700 LINE",
"85 621 OFFCURVE",
"42 485 OFFCURVE",
"50 319 CURVE SMOOTH",
"57 181 OFFCURVE",
"100 30 OFFCURVE",
"160 -66 CURVE",
"132 -83 LINE"
);
}
);
width = 202;
}
);
unicode = 0028;
},
{
glyphname = parenright;
layers = (
{
layerId = "B2224B7D-3358-49DE-B033-78E3556D2134";
name = Regular;
paths = (
{
closed = 1;
nodes = (
"24 -93 LINE",
"179 114 OFFCURVE",
"176 380 OFFCURVE",
"16 700 CURVE",
"46 715 LINE",
"81 645 OFFCURVE",
"109 576 OFFCURVE",
"129 511 CURVE SMOOTH",
"152 438 OFFCURVE",
"166 367 OFFCURVE",
"170 300 CURVE SMOOTH",
"175 226 OFFCURVE",
"168 155 OFFCURVE",
"150 89 CURVE SMOOTH",
"131 18 OFFCURVE",
"97 -50 OFFCURVE",
"51 -112 CURVE"
);
}
);
width = 205;
}
);
unicode = 0029;
},
{
glyphname = emdash;
layers = (
{
layerId = "B2224B7D-3358-49DE-B033-78E3556D2134";
name = Regular;
paths = (
{
closed = 1;
nodes = (
"73 283 OFFCURVE",
"79 284 OFFCURVE",
"16 289 CURVE",
"19 328 LINE",
"118 321 OFFCURVE",
"351 323 OFFCURVE",
"449 323 CURVE SMOOTH",
"495 323 OFFCURVE",
"931 325 OFFCURVE",
"967 325 CURVE",
"967 286 LINE",
"932 286 OFFCURVE",
"495 284 OFFCURVE",
"450 284 CURVE SMOOTH",
"414 284 OFFCURVE",
"157 283 OFFCURVE",
"121 283 CURVE SMOOTH"
);
}
);
width = 1000;
}
);
unicode = 2014;
},
{
glyphname = endash;
layers = (
{
layerId = "B2224B7D-3358-49DE-B033-78E3556D2134";
name = Regular;
paths = (
{
closed = 1;
nodes = (
"79 283 OFFCURVE",
"79 284 OFFCURVE",
"16 289 CURVE",
"19 328 LINE",
"118 321 OFFCURVE",
"303 322 OFFCURVE",
"401 323 CURVE SMOOTH",
"437 323 OFFCURVE",
"431 325 OFFCURVE",
"467 325 CURVE",
"467 286 LINE",
"432 286 OFFCURVE",
"437 284 OFFCURVE",
"402 284 CURVE SMOOTH",
"366 283 OFFCURVE",
"179 283 OFFCURVE",
"143 283 CURVE SMOOTH"
);
}
);
width = 500;
}
);
unicode = 2013;
},
{
glyphname = hyphen;
layers = (
{
layerId = "B2224B7D-3358-49DE-B033-78E3556D2134";
name = Regular;
paths = (
{
closed = 1;
nodes = (
"95 283 OFFCURVE",
"79 284 OFFCURVE",
"16 289 CURVE",
"19 328 LINE",
"118 321 OFFCURVE",
"99 322 OFFCURVE",
"197 323 CURVE SMOOTH",
"233 323 OFFCURVE",
"247 325 OFFCURVE",
"283 325 CURVE",
"283 286 LINE",
"248 286 OFFCURVE",
"233 284 OFFCURVE",
"198 284 CURVE SMOOTH",
"162 283 OFFCURVE",
"175 283 OFFCURVE",
"139 283 CURVE SMOOTH"
);
}
);
width = 316;
}
);
unicode = 002D;
},
{
glyphname = guillemotleft;
layers = (
{
layerId = "B2224B7D-3358-49DE-B033-78E3556D2134";
name = Regular;
paths = (
{
closed = 1;
nodes = (
"429 369 LINE",
"394 338 OFFCURVE",
"362 314 OFFCURVE",
"337 295 CURVE SMOOTH",
"302 270 OFFCURVE",
"275 249 OFFCURVE",
"275 235 CURVE SMOOTH",
"274 213 OFFCURVE",
"362 136 OFFCURVE",
"422 90 CURVE",
"397 57 LINE",
"302 130 OFFCURVE",
"233 197 OFFCURVE",
"233 236 CURVE SMOOTH",
"234 270 OFFCURVE",
"265 293 OFFCURVE",
"312 329 CURVE SMOOTH",
"337 347 OFFCURVE",
"368 370 OFFCURVE",
"402 400 CURVE"
);
},
{
closed = 1;
nodes = (
"229 369 LINE",
"194 338 OFFCURVE",
"162 314 OFFCURVE",
"137 295 CURVE SMOOTH",
"102 270 OFFCURVE",
"75 249 OFFCURVE",
"75 235 CURVE SMOOTH",
"74 213 OFFCURVE",
"162 136 OFFCURVE",
"222 90 CURVE",
"197 57 LINE",
"102 130 OFFCURVE",
"33 197 OFFCURVE",
"33 236 CURVE SMOOTH",
"34 270 OFFCURVE",
"65 293 OFFCURVE",
"112 329 CURVE SMOOTH",
"137 347 OFFCURVE",
"168 370 OFFCURVE",
"202 400 CURVE"
);
}
);
width = 462;
}
);
unicode = 00AB;
},
{
glyphname = guillemotright;
layers = (
{
layerId = "B2224B7D-3358-49DE-B033-78E3556D2134";
name = Regular;
paths = (
{
closed = 1;
nodes = (
"33 88 LINE",
"68 119 OFFCURVE",
"100 143 OFFCURVE",
"125 162 CURVE SMOOTH",
"160 187 OFFCURVE",
"187 208 OFFCURVE",
"187 222 CURVE SMOOTH",
"188 244 OFFCURVE",
"100 321 OFFCURVE",
"40 367 CURVE",
"65 400 LINE",
"160 327 OFFCURVE",
"229 260 OFFCURVE",
"229 221 CURVE SMOOTH",
"228 187 OFFCURVE",
"197 164 OFFCURVE",
"150 128 CURVE SMOOTH",
"125 110 OFFCURVE",
"94 87 OFFCURVE",
"60 57 CURVE"
);
},
{
closed = 1;
nodes = (
"233 88 LINE",
"268 119 OFFCURVE",
"300 143 OFFCURVE",
"325 162 CURVE SMOOTH",
"360 187 OFFCURVE",
"387 208 OFFCURVE",
"387 222 CURVE SMOOTH",
"388 244 OFFCURVE",
"300 321 OFFCURVE",
"240 367 CURVE",
"265 400 LINE",
"360 327 OFFCURVE",
"429 260 OFFCURVE",
"429 221 CURVE SMOOTH",
"428 187 OFFCURVE",
"397 164 OFFCURVE",
"350 128 CURVE SMOOTH",
"325 110 OFFCURVE",
"294 87 OFFCURVE",
"260 57 CURVE"
);
}
);
width = 462;
}
);
unicode = 00BB;
},
{
glyphname = guilsinglleft;
layers = (
{
layerId = "B2224B7D-3358-49DE-B033-78E3556D2134";
name = Regular;
paths = (
{
closed = 1;
nodes = (
"229 369 LINE",
"194 338 OFFCURVE",
"162 314 OFFCURVE",
"137 295 CURVE SMOOTH",
"102 270 OFFCURVE",
"75 249 OFFCURVE",
"75 235 CURVE SMOOTH",
"74 213 OFFCURVE",
"162 136 OFFCURVE",
"222 90 CURVE",
"197 57 LINE",
"102 130 OFFCURVE",
"33 197 OFFCURVE",
"33 236 CURVE SMOOTH",
"34 270 OFFCURVE",
"65 293 OFFCURVE",
"112 329 CURVE SMOOTH",
"137 347 OFFCURVE",
"168 370 OFFCURVE",
"202 400 CURVE"
);
}
);
width = 262;
}
);
unicode = 2039;
},
{
glyphname = guilsinglright;
layers = (
{
layerId = "B2224B7D-3358-49DE-B033-78E3556D2134";
name = Regular;
paths = (
{
closed = 1;
nodes = (
"33 88 LINE",
"68 119 OFFCURVE",
"100 143 OFFCURVE",
"125 162 CURVE SMOOTH",
"160 187 OFFCURVE",
"187 208 OFFCURVE",
"187 222 CURVE SMOOTH",
"188 244 OFFCURVE",
"100 321 OFFCURVE",
"40 367 CURVE",
"65 400 LINE",
"160 327 OFFCURVE",
"229 260 OFFCURVE",
"229 221 CURVE SMOOTH",
"228 187 OFFCURVE",
"197 164 OFFCURVE",
"150 128 CURVE SMOOTH",
"125 110 OFFCURVE",
"94 87 OFFCURVE",
"60 57 CURVE"
);
}
);
width = 262;
}
);
unicode = 203A;
},
{
glyphname = quoteleft;
layers = (
{
layerId = "B2224B7D-3358-49DE-B033-78E3556D2134";
name = Regular;
paths = (
{
closed = 1;
nodes = (
"69 471 OFFCURVE",
"61 475 OFFCURVE",
"56 479 CURVE SMOOTH",
"39 493 OFFCURVE",
"32 519 OFFCURVE",
"33 562 CURVE SMOOTH",
"35 588 OFFCURVE",
"40 621 OFFCURVE",
"48 650 CURVE",
"90 640 LINE",
"84 613 OFFCURVE",
"78 584 OFFCURVE",
"77 562 CURVE SMOOTH",
"76 530 OFFCURVE",
"80 518 OFFCURVE",
"82 515 CURVE",
"84 515 OFFCURVE",
"86 516 OFFCURVE",
"89 518 CURVE",
"110 479 LINE",
"98 473 OFFCURVE",
"89 471 OFFCURVE",
"81 471 CURVE SMOOTH"
);
}
);
width = 160;
}
);
unicode = 2018;
},
{
glyphname = quoteright;
layers = (
{
layerId = "B2224B7D-3358-49DE-B033-78E3556D2134";
name = Regular;
paths = (
{
closed = 1;
nodes = (
"74 647 OFFCURVE",
"82 643 OFFCURVE",
"87 639 CURVE SMOOTH",
"104 625 OFFCURVE",
"111 599 OFFCURVE",
"110 556 CURVE SMOOTH",
"108 530 OFFCURVE",
"103 497 OFFCURVE",
"95 468 CURVE",
"53 478 LINE",
"59 505 OFFCURVE",
"65 534 OFFCURVE",
"66 556 CURVE SMOOTH",
"67 588 OFFCURVE",
"63 600 OFFCURVE",
"61 603 CURVE",
"59 603 OFFCURVE",
"57 602 OFFCURVE",
"54 600 CURVE",
"33 639 LINE",
"45 645 OFFCURVE",
"54 647 OFFCURVE",
"62 647 CURVE SMOOTH"
);
}
);
width = 160;
}
);
unicode = 2019;
},
{
glyphname = dollar;
layers = (
{
layerId = "B2224B7D-3358-49DE-B033-78E3556D2134";
name = Regular;
paths = (
{
closed = 1;
nodes = (
"320 551 LINE",
"305.691 581.876 OFFCURVE",
"280.04 602.544 OFFCURVE",
"248.172 610.014 CURVE",
"247.143 639.887 OFFCURVE",
"245.458 670.754 OFFCURVE",
"243 703 CURVE",
"209 700 LINE",
"211.192 669.859 OFFCURVE",
"212.614 640.92 OFFCURVE",
"213.388 612.863 CURVE",
"162 608 OFFCURVE",
"112 578 OFFCURVE",
"91 521 CURVE",
"78.2794 477.387 OFFCURVE",
"74.6405 390.843 OFFCURVE",
"197.103 275.622 CURVE",
"187 169 OFFCURVE",
"184 153 OFFCURVE",
"176.366 40.3034 CURVE",
"149 34 OFFCURVE",
"84 28 OFFCURVE",
"52 91 CURVE",
"16 72 LINE",
"53 -1 OFFCURVE",
"120 -10 OFFCURVE",
"173.387 -2 CURVE",
"170.509 -42 OFFCURVE",
"167.617 -83 OFFCURVE",
"165 -123 CURVE",
"201 -126 LINE",
"202.747 -81 OFFCURVE",
"207.207 -35 OFFCURVE",
"212.009 9.04503 CURVE",
"260 27 OFFCURVE",
"306 62 OFFCURVE",
"324 119 CURVE SMOOTH",
"346 196 OFFCURVE",
"296 242 OFFCURVE",
"238.114 293.107 CURVE",
"245.495 384.906 OFFCURVE",
"250.599 471.625 OFFCURVE",
"249.221 567.059 CURVE",
"261.57 562.003 OFFCURVE",
"274.101 552.268 OFFCURVE",
"282 534 CURVE"
);
},
{
closed = 1;
nodes = (
"143.607 548.7 OFFCURVE",
"182.547 569.71 OFFCURVE",
"214.075 571.854 CURVE",
"214.58 486.76 OFFCURVE",
"209.347 408.726 OFFCURVE",
"202.052 328.056 CURVE",
"140.206 393.811 OFFCURVE",
"114.625 457.094 OFFCURVE",
"131 507 CURVE SMOOTH"
);
},
{
closed = 1;
nodes = (
"316 180 OFFCURVE",
"295 97 OFFCURVE",
"217.069 55.5423 CURVE",
"220 84 OFFCURVE",
"229 188 OFFCURVE",
"233.961 243.297 CURVE",
"235.296 242.2 OFFCURVE",
"236.642 241.101 OFFCURVE",
"238 240 CURVE SMOOTH"
);
}
);
width = 362;
}
);
unicode = 0024;
},
{
glyphname = asciitilde;
layers = (
{
layerId = "B2224B7D-3358-49DE-B033-78E3556D2134";
name = Regular;
paths = (
{
closed = 1;
nodes = (
"284 244 OFFCURVE",
"255 271 OFFCURVE",
"235 297 CURVE SMOOTH",
"217 322 OFFCURVE",
"199 349 OFFCURVE",
"171 352 CURVE SMOOTH",
"141 357 OFFCURVE",
"99 337 OFFCURVE",
"46 294 CURVE",
"16 330 LINE",
"79 384 OFFCURVE",
"132 406 OFFCURVE",
"177 400 CURVE SMOOTH",
"226 394 OFFCURVE",
"253 355 OFFCURVE",
"274 325 CURVE SMOOTH",
"285 310 OFFCURVE",
"308 292 OFFCURVE",
"317 292 CURVE SMOOTH",
"317 292 OFFCURVE",
"317 292 OFFCURVE",
"317 292 CURVE SMOOTH",
"322 292 OFFCURVE",
"360 297 OFFCURVE",
"402 360 CURVE",
"441 333 LINE",
"400 271 OFFCURVE",
"349 244 OFFCURVE",
"317 244 CURVE SMOOTH",
"317 244 OFFCURVE",
"317 244 OFFCURVE",
"317 244 CURVE SMOOTH"
);
}
);
width = 474;
}
);
unicode = 007E;
},
{
glyphname = equal;
layers = (
{
layerId = "B2224B7D-3358-49DE-B033-78E3556D2134";
name = Regular;
paths = (
{
closed = 1;
nodes = (
"95 248 LINE",
"162 248 OFFCURVE",
"206 251 OFFCURVE",
"250 252 CURVE SMOOTH",
"385 254 OFFCURVE",
"516 256 OFFCURVE",
"583 256 CURVE",
"583 214 LINE",
"516 214 OFFCURVE",
"386 213 OFFCURVE",
"252 210 CURVE SMOOTH",
"208 209 OFFCURVE",
"162 206 OFFCURVE",
"95 206 CURVE"
);
},
{
closed = 1;
nodes = (
"66 358 LINE",
"66 399 LINE",
"576 399 LINE",
"576 358 LINE"
);
}
);
width = 666;
}
);
unicode = 003D;
},
{
glyphname = greater;
layers = (
{
layerId = "B2224B7D-3358-49DE-B033-78E3556D2134";
name = Regular;
paths = (
{
closed = 1;
nodes = (
"177 520 OFFCURVE",
"263 448 OFFCURVE",
"320 405 CURVE SMOOTH",
"378 363 OFFCURVE",
"406 343 OFFCURVE",
"406 314 CURVE SMOOTH",
"406 287 OFFCURVE",
"382 269 OFFCURVE",
"336 233 CURVE SMOOTH",
"278 188 OFFCURVE",
"181 122 OFFCURVE",
"49 -29 CURVE",
"16 0 LINE",
"151 155 OFFCURVE",
"250 222 OFFCURVE",
"309 268 CURVE SMOOTH",
"327 281 OFFCURVE",
"341 292 OFFCURVE",
"349 301 CURVE SMOOTH",
"359 309 OFFCURVE",
"360 313 OFFCURVE",
"362 314 CURVE",
"360 316 OFFCURVE",
"358 320 OFFCURVE",
"347 330 CURVE SMOOTH",
"334 341 OFFCURVE",
"316 353 OFFCURVE",
"294 371 CURVE SMOOTH",
"236 412 OFFCURVE",
"148 486 OFFCURVE",
"24 600 CURVE",
"55 632 LINE"
);
}
);
width = 439;
}
);
unicode = 003E;
},
{
glyphname = less;
layers = (
{
layerId = "B2224B7D-3358-49DE-B033-78E3556D2134";
name = Regular;
paths = (
{
closed = 1;
nodes = (
"245 124 OFFCURVE",
"138 193 OFFCURVE",
"80 231 CURVE SMOOTH",
"37 260 OFFCURVE",
"16 273 OFFCURVE",
"16 299 CURVE SMOOTH",
"15 324 OFFCURVE",
"37 340 OFFCURVE",
"86 372 CURVE SMOOTH",
"146 415 OFFCURVE",
"247 486 OFFCURVE",
"394 633 CURVE",
"427 600 LINE",
"275 451 OFFCURVE",
"172 379 OFFCURVE",
"112 335 CURVE SMOOTH",
"91 321 OFFCURVE",
"71 307 OFFCURVE",
"63 300 CURVE",
"71 292 OFFCURVE",
"89 281 OFFCURVE",
"106 269 CURVE SMOOTH",
"164 230 OFFCURVE",
"274 158 OFFCURVE",
"427 0 CURVE",
"394 -31 LINE"
);
}
);
width = 460;
}
);
unicode = 003C;
},
{
glyphname = percent;
layers = (
{
layerId = "B2224B7D-3358-49DE-B033-78E3556D2134";
name = Regular;
paths = (
{
closed = 1;
nodes = (
"16 0 LINE",
"92 119 OFFCURVE",
"154 253 OFFCURVE",
"214 383 CURVE SMOOTH",
"252 466 OFFCURVE",
"289 544 OFFCURVE",
"327 616 CURVE",
"358 600 LINE",
"320 528 OFFCURVE",
"284 451 OFFCURVE",
"246 368 CURVE SMOOTH",
"186 237 OFFCURVE",
"122 102 OFFCURVE",
"46 -19 CURVE"
);
},
{
closed = 1;
nodes = (
"76 356 OFFCURVE",
"68 359 OFFCURVE",
"63 365 CURVE SMOOTH",
"53 376 OFFCURVE",
"50 392 OFFCURVE",
"53 419 CURVE SMOOTH",
"56 437 OFFCURVE",
"61 460 OFFCURVE",
"68 485 CURVE SMOOTH",
"80 525 OFFCURVE",
"101 576 OFFCURVE",
"115 593 CURVE",
"141 571 LINE",
"140 569 OFFCURVE",
"138 566 OFFCURVE",
"136 562 CURVE",
"138 562 OFFCURVE",
"140 562 OFFCURVE",
"142 562 CURVE SMOOTH",
"151 560 OFFCURVE",
"167 553 OFFCURVE",
"175 523 CURVE SMOOTH",
"179 501 OFFCURVE",
"178 473 OFFCURVE",
"169 445 CURVE SMOOTH",
"162 423 OFFCURVE",
"148 391 OFFCURVE",
"119 370 CURVE SMOOTH",
"108 363 OFFCURVE",
"100 359 OFFCURVE",
"91 357 CURVE SMOOTH",
"89 357 OFFCURVE",
"86 356 OFFCURVE",
"84 356 CURVE SMOOTH"
);
},
{
closed = 1;
nodes = (
"108 495 OFFCURVE",
"105 487 OFFCURVE",
"103 479 CURVE SMOOTH",
"86 426 OFFCURVE",
"86 401 OFFCURVE",
"87 391 CURVE",
"89 392 OFFCURVE",
"94 395 OFFCURVE",
"98 399 CURVE SMOOTH",
"130 422 OFFCURVE",
"143 467 OFFCURVE",
"142 500 CURVE SMOOTH",
"142 517 OFFCURVE",
"138 525 OFFCURVE",
"136 527 CURVE",
"134 527 OFFCURVE",
"125 524 OFFCURVE",
"110 502 CURVE"
);
},
{
closed = 1;
nodes = (
"219 46 OFFCURVE",
"212 53 OFFCURVE",
"207 58 CURVE SMOOTH",
"195 76 OFFCURVE",
"206 100 OFFCURVE",
"211 109 CURVE SMOOTH",
"219 128 OFFCURVE",
"236 153 OFFCURVE",
"259 184 CURVE",
"286 162 LINE",
"249 114 OFFCURVE",
"239 91 OFFCURVE",
"237 82 CURVE",
"244 83 OFFCURVE",
"258 90 OFFCURVE",
"273 102 CURVE SMOOTH",
"293 117 OFFCURVE",
"307 136 OFFCURVE",
"309 150 CURVE SMOOTH",
"311 158 OFFCURVE",
"309 164 OFFCURVE",
"304 169 CURVE SMOOTH",
"299 174 OFFCURVE",
"288 183 OFFCURVE",
"262 188 CURVE",
"270 222 LINE",
"329 209 OFFCURVE",
"342 180 OFFCURVE",
"345 159 CURVE SMOOTH",
"346 132 OFFCURVE",
"328 108 OFFCURVE",
"313 92 CURVE SMOOTH",
"296 73 OFFCURVE",
"273 58 OFFCURVE",
"254 51 CURVE SMOOTH",
"245 48 OFFCURVE",
"238 46 OFFCURVE",
"233 46 CURVE SMOOTH"
);
}
);
width = 391;
}
);
unicode = 0025;
},
{
glyphname = plus;
layers = (
{
layerId = "B2224B7D-3358-49DE-B033-78E3556D2134";
name = Regular;
paths = (
{
closed = 1;
nodes = (
"322 51 LINE",
"322 136 OFFCURVE",
"317 159 OFFCURVE",
"312 230 CURVE SMOOTH",
"304 350 OFFCURVE",
"297 412 OFFCURVE",
"314 556 CURVE",
"358 550 LINE",
"341 411 OFFCURVE",
"348 350 OFFCURVE",
"356 233 CURVE SMOOTH",
"361 162 OFFCURVE",
"366 137 OFFCURVE",
"366 51 CURVE"
);
},
{
closed = 1;
nodes = (
"66 284 LINE",
"66 328 LINE",
"583 328 LINE",
"583 284 LINE"
);
}
);
width = 666;
}
);
unicode = 002B;
},
{
glyphname = ampersand;
layers = (
{
layerId = "B2224B7D-3358-49DE-B033-78E3556D2134";
name = Regular;
paths = (
{
closed = 1;
nodes = (
"180 577 LINE",
"171 572 OFFCURVE",
"162 568 OFFCURVE",
"154 563 CURVE",
"155 574 OFFCURVE",
"155 585 OFFCURVE",
"155 595 CURVE SMOOTH",
"156 631 OFFCURVE",
"157 666 OFFCURVE",
"162 700 CURVE",
"124 705 LINE",
"119 668 OFFCURVE",
"118 632 OFFCURVE",
"117 596 CURVE SMOOTH",
"117 578 OFFCURVE",
"116 559 OFFCURVE",
"115 541 CURVE",
"91 526 OFFCURVE",
"72 513 OFFCURVE",
"58 501 CURVE SMOOTH",
"30 478 OFFCURVE",
"18 457 OFFCURVE",
"19 436 CURVE SMOOTH",
"20 410 OFFCURVE",
"44 395 OFFCURVE",
"51 389 CURVE",
"67 380 OFFCURVE",
"86 372 OFFCURVE",
"104 364 CURVE SMOOTH",
"128 355 OFFCURVE",
"165 339 OFFCURVE",
"165 327 CURVE",
"165 327 OFFCURVE",
"130 292 OFFCURVE",
"115 282 CURVE SMOOTH",
"69 248 OFFCURVE",
"12 207 OFFCURVE",
"16 148 CURVE",
"18 124 OFFCURVE",
"30 100 OFFCURVE",
"54 76 CURVE SMOOTH",
"68 60 OFFCURVE",
"88 45 OFFCURVE",
"111 30 CURVE",
"109 30 LINE",
"111 -36 OFFCURVE",
"110 -74 OFFCURVE",
"108 -148 CURVE",
"146 -148 LINE",
"148 -82 OFFCURVE",
"149 -45 OFFCURVE",
"148 8 CURVE",
"152 5 OFFCURVE",
"157 2 OFFCURVE",
"162 0 CURVE",
"180 33 LINE",
"100 76 OFFCURVE",
"56 117 OFFCURVE",
"54 151 CURVE SMOOTH",
"51 189 OFFCURVE",
"97 222 OFFCURVE",
"138 251 CURVE SMOOTH",
"173 277 OFFCURVE",
"203 299 OFFCURVE",
"203 327 CURVE SMOOTH",
"203 344 OFFCURVE",
"193 360 OFFCURVE",
"172 374 CURVE",
"157 383 OFFCURVE",
"138 391 OFFCURVE",
"119 399 CURVE SMOOTH",
"95 410 OFFCURVE",
"58 425 OFFCURVE",
"57 437 CURVE",
"57 446 OFFCURVE",
"66 475 OFFCURVE",
"198 543 CURVE"
);
}
);
width = 236;
}
);
unicode = 0026;
},
{
glyphname = at;
layers = (
{
layerId = "B2224B7D-3358-49DE-B033-78E3556D2134";
name = Regular;
paths = (
{
closed = 1;
nodes = (
"190 -15 OFFCURVE",
"136 9 OFFCURVE",
"95 54 CURVE SMOOTH",
"-14 174 OFFCURVE",
"-14 419 OFFCURVE",
"95 540 CURVE SMOOTH",
"136 587 OFFCURVE",
"191 612 OFFCURVE",
"254 612 CURVE SMOOTH",
"254 612 OFFCURVE",
"255 612 OFFCURVE",
"256 612 CURVE SMOOTH",
"326 611 OFFCURVE",
"405 580 OFFCURVE",
"490 519 CURVE SMOOTH",
"526 492 OFFCURVE",
"549 455 OFFCURVE",
"555 412 CURVE SMOOTH",
"560 377 OFFCURVE",
"555 336 OFFCURVE",
"538 299 CURVE SMOOTH",
"526 271 OFFCURVE",
"507 247 OFFCURVE",
"487 229 CURVE SMOOTH",
"464 208 OFFCURVE",
"438 200 OFFCURVE",
"415 204 CURVE SMOOTH",
"395 209 OFFCURVE",
"371 225 OFFCURVE",
"358 268 CURVE",
"326 225 OFFCURVE",
"286 211 OFFCURVE",
"227 225 CURVE SMOOTH",
"181 235 OFFCURVE",
"160 286 OFFCURVE",
"165 338 CURVE SMOOTH",
"174 391 OFFCURVE",
"220 430 OFFCURVE",
"274 428 CURVE SMOOTH",
"302 426 OFFCURVE",
"328 414 OFFCURVE",
"352 392 CURVE",
"322 359 LINE",
"286 392 OFFCURVE",
"251 388 OFFCURVE",
"231 370 CURVE SMOOTH",
"210 351 OFFCURVE",
"190 308 OFFCURVE",
"224 274 CURVE SMOOTH",
"237 261 OFFCURVE",
"289 263 OFFCURVE",
"303 274 CURVE SMOOTH",
"315 283 OFFCURVE",
"324 299 OFFCURVE",
"334 315 CURVE SMOOTH",
"342 331 OFFCURVE",
"338 326 OFFCURVE",
"345 349 CURVE SMOOTH",
"345 349 OFFCURVE",
"350 381 OFFCURVE",
"373 379 CURVE SMOOTH",
"377 379 OFFCURVE",
"394 376 OFFCURVE",
"394 353 CURVE SMOOTH",
"394 281 OFFCURVE",
"410 252 OFFCURVE",
"425 249 CURVE SMOOTH",
"442 244 OFFCURVE",
"476 272 OFFCURVE",
"497 318 CURVE SMOOTH",
"508 343 OFFCURVE",
"538 428 OFFCURVE",
"463 482 CURVE SMOOTH",
"386 537 OFFCURVE",
"316 566 OFFCURVE",
"256 567 CURVE SMOOTH",
"204 567 OFFCURVE",
"162 549 OFFCURVE",
"128 510 CURVE SMOOTH",
"35 406 OFFCURVE",
"35 188 OFFCURVE",
"128 85 CURVE SMOOTH",
"162 48 OFFCURVE",
"204 29 OFFCURVE",
"254 30 CURVE SMOOTH",
"314 31 OFFCURVE",
"383 60 OFFCURVE",
"459 115 CURVE",
"486 79 LINE",
"402 18 OFFCURVE",
"324 -14 OFFCURVE",
"255 -15 CURVE SMOOTH",
"254 -15 OFFCURVE",
"252 -15 OFFCURVE",
"251 -15 CURVE SMOOTH"
);
}
);
width = 590;
}
);
unicode = 0040;
},
{
glyphname = bar;
layers = (
{
layerId = "B2224B7D-3358-49DE-B033-78E3556D2134";
name = Regular;
paths = (
{
closed = 1;
nodes = (
"128 -132 LINE",
"128 -61 OFFCURVE",
"129 9 OFFCURVE",
"130 84 CURVE SMOOTH",
"133 291 OFFCURVE",
"136 504 OFFCURVE",
"116 700 CURVE",
"149 703 LINE",
"169 505 OFFCURVE",
"166 291 OFFCURVE",
"163 84 CURVE SMOOTH",
"162 9 OFFCURVE",
"161 -62 OFFCURVE",
"161 -132 CURVE"
);
}
);
width = 298;
}
);
unicode = 007C;
},
{
glyphname = copyright;
layers = (
{
layerId = "B2224B7D-3358-49DE-B033-78E3556D2134";
name = Regular;
paths = (
{
closed = 1;
nodes = (
"371 -26 OFFCURVE",
"267 -27 OFFCURVE",
"178 23 CURVE SMOOTH",
"105 61 OFFCURVE",
"54 118 OFFCURVE",
"31 188 CURVE SMOOTH",
"9 249 OFFCURVE",
"11 318 OFFCURVE",
"34 386 CURVE SMOOTH",
"61 462 OFFCURVE",
"113 528 OFFCURVE",
"180 573 CURVE SMOOTH",
"251 620 OFFCURVE",
"343 640 OFFCURVE",
"427 623 CURVE",
"418 571 LINE",
"256 601 OFFCURVE",
"123 493 OFFCURVE",
"80 369 CURVE SMOOTH",
"47 273 OFFCURVE",
"64 138 OFFCURVE",
"203 65 CURVE SMOOTH",
"302 11 OFFCURVE",
"389 44 OFFCURVE",
"438 76 CURVE SMOOTH",
"528 133 OFFCURVE",
"576 249 OFFCURVE",
"570 357 CURVE SMOOTH",
"563 445 OFFCURVE",
"516 514 OFFCURVE",
"436 552 CURVE",
"458 600 LINE",
"554 556 OFFCURVE",
"616 468 OFFCURVE",
"622 361 CURVE SMOOTH",
"626 298 OFFCURVE",
"613 234 OFFCURVE",
"583 174 CURVE SMOOTH",
"554 113 OFFCURVE",
"510 64 OFFCURVE",
"459 31 CURVE SMOOTH"
);
},
{
closed = 1;
nodes = (
"370 156 OFFCURVE",
"309 124 OFFCURVE",
"254 160 CURVE SMOOTH",
"224 179 OFFCURVE",
"202 215 OFFCURVE",
"191 261 CURVE SMOOTH",
"182 303 OFFCURVE",
"185 350 OFFCURVE",
"199 388 CURVE SMOOTH",
"211 422 OFFCURVE",
"233 449 OFFCURVE",
"261 466 CURVE SMOOTH",
"293 485 OFFCURVE",
"332 492 OFFCURVE",
"376 484 CURVE",
"368 431 LINE",
"293 444 OFFCURVE",
"261 404 OFFCURVE",
"249 369 CURVE SMOOTH",
"226 311 OFFCURVE",
"243 230 OFFCURVE",
"283 206 CURVE SMOOTH",
"315 185 OFFCURVE",
"352 214 OFFCURVE",
"377 241 CURVE",
"416 205 LINE"
);
}
);
width = 656;
}
);
unicode = 00A9;
},
{
glyphname = asciicircum;
layers = (
{
layerId = "B2224B7D-3358-49DE-B033-78E3556D2134";
name = Regular;
paths = (
{
closed = 1;
nodes = (
"294 428 OFFCURVE",
"280 454 OFFCURVE",
"269 477 CURVE SMOOTH",
"237 538 OFFCURVE",
"215 582 OFFCURVE",
"197 612 CURVE SMOOTH",
"189 628 OFFCURVE",
"182 640 OFFCURVE",
"177 646 CURVE",
"159 609 OFFCURVE",
"140 516 OFFCURVE",
"56 413 CURVE",
"16 446 LINE",
"98 543 OFFCURVE",
"107 621 OFFCURVE",
"136 680 CURVE SMOOTH",
"139 688 OFFCURVE",
"148 707 OFFCURVE",
"171 709 CURVE SMOOTH",
"197 711 OFFCURVE",
"215 685 OFFCURVE",
"234 652 CURVE SMOOTH",
"252 621 OFFCURVE",
"277 573 OFFCURVE",
"314 500 CURVE SMOOTH",
"326 477 OFFCURVE",
"340 453 OFFCURVE",
"355 423 CURVE",
"308 400 LINE"
);
}
);
width = 388;
}
);
unicode = 005E;
},
{
glyphname = grave;
layers = (
{
layerId = "B2224B7D-3358-49DE-B033-78E3556D2134";
name = Regular;
paths = (
{
closed = 1;
nodes = (
"168 645 OFFCURVE",
"132 673 OFFCURVE",
"98 700 CURVE SMOOTH",
"69 723 OFFCURVE",
"37 749 OFFCURVE",
"16 776 CURVE",
"51 801 LINE",
"69 778 OFFCURVE",
"96 757 OFFCURVE",
"126 734 CURVE SMOOTH",
"162 704 OFFCURVE",
"202 674 OFFCURVE",
"223 637 CURVE",
"185 615 LINE"
);
}
